<svg width="455" height="679" viewBox="0 0 455 679" fill="none" xmlns="http://www.w3.org/2000/svg">
<path d="M0 227.239C0 101.739 101.739 0 227.239 0V0C352.74 0 454.479 101.739 454.479 227.239V751.761C454.479 877.261 352.74 979 227.239 979V979C101.739 979 0 877.261 0 751.761V227.239Z" fill="none" fill-opacity="0.9"/>
<path d="M200.433 228.376C198.256 226.449 196.079 224.521 191.978 224.247C187.877 223.971 181.851 225.349 177.927 225.545C174.003 225.743 172.18 224.76 172.145 225.938C172.111 227.116 173.865 230.453 175.561 233.347C177.258 236.241 178.895 238.69 181.345 240.218C183.796 241.745 187.06 242.352 190.323 242.959M185.366 330.566C184.879 336.841 184.394 343.113 184.626 349.05C184.86 354.987 185.812 360.588 186.897 366.446C187.982 372.305 189.198 378.421 190.063 382.828C190.927 387.235 191.44 389.933 192.573 391.896C193.707 393.858 195.458 395.086 197.268 395.764C199.079 396.443 200.948 396.572 203.585 396.627C206.219 396.685 209.626 396.671 212.601 396.063C215.578 395.459 218.123 394.26 219.935 392.871C221.744 391.482 222.815 389.897 224.137 388.993C225.459 388.089 227.031 387.863 227.082 387.638C227.135 387.413 225.666 387.187 223.535 386.582C221.401 385.977 218.606 384.995 215.797 384.68C212.985 384.365 210.162 384.721 207.649 384.721C205.137 384.721 202.932 384.362 200.539 384.335C198.146 384.31 195.564 384.616 193.624 384.772C191.684 384.931 190.387 384.942 190.267 384.48C190.148 384.017 191.205 383.084 192.261 382.129C193.318 381.174 194.373 380.199 195.44 379.528C196.509 378.856 197.589 378.488 198.81 378.621C200.028 378.755 201.394 379.39 202.484 379.307C203.576 379.222 204.394 378.419 205.84 378.078C207.286 377.738 209.357 377.858 212.118 379.003C214.882 380.151 218.332 382.325 220.99 383.882C223.647 385.439 225.509 386.377 225.535 386.012C225.56 385.646 223.748 383.974 221.521 381.954C219.291 379.935 216.643 377.565 213.957 375.258C211.27 372.951 208.544 370.709 206.281 370.352C204.017 369.996 202.212 371.528 200.502 371.799C198.789 372.07 197.171 371.081 195.277 370.893C193.385 370.704 191.221 371.318 190.143 373.795C189.067 376.273 189.077 380.613 189.877 384.372C190.674 388.132 192.263 391.314 193.463 394.998C194.663 398.683 195.479 402.867 195.741 407.401C196.001 411.932 195.711 416.813 198.054 420.694C200.399 424.574 205.378 427.459 214.314 427.914C223.252 428.369 236.144 426.394 245.843 423.021C255.544 419.649 262.05 414.879 268.869 408.544C275.69 402.21 282.825 394.306 287.899 383.399C292.973 372.491 295.986 358.582 297.127 350.683C298.267 342.785 297.536 340.898 295.412 348.609C293.288 356.319 289.768 373.625 285.816 388.289C281.862 402.952 277.478 414.971 268.758 421.97C260.039 428.97 246.983 430.952 239.806 430.743C232.631 430.534 231.335 428.135 231.013 430.256C230.691 432.376 231.346 439.021 232.818 444.57C234.287 450.118 236.574 454.568 236.96 458.205C237.349 461.839 235.838 464.659 235.71 463.447C235.581 462.235 236.831 456.995 241.51 452.346C246.188 447.698 254.296 443.643 266.018 436.685C277.74 429.726 293.076 419.868 305.575 410.039C318.076 400.211 327.739 390.417 338.714 366.775C349.691 343.136 361.978 305.655 364.142 278.555C366.303 251.454 358.341 234.736 349.318 223.983C340.295 213.23 330.212 208.441 322.097 206.152C313.982 203.863 307.833 204.077 309.228 204.507C310.623 204.937 319.564 205.586 328.525 208.733C337.486 211.879 346.468 217.524 355.187 224.802C363.909 232.08 372.372 240.99 377.91 249.692C383.445 258.396 386.055 266.89 385.726 281.018C385.397 295.146 382.13 314.909 375.082 333.361C368.034 351.813 357.206 368.956 344.353 382.124C331.5 395.293 316.624 404.484 316.295 406.364C315.964 408.243 330.178 402.808 342.971 396.213C355.76 389.618 367.128 381.864 375.802 373.729C384.478 365.595 390.462 357.082 394.248 348.333C398.036 339.583 399.623 330.596 400.825 322.111C402.027 313.625 402.846 305.644 401.919 296.675C400.995 287.707 398.328 277.754 394.542 270.281C390.758 262.805 385.857 257.809 385.838 259.433C385.822 261.057 390.691 269.299 394.356 277.832C398.02 286.366 400.48 295.192 401.459 305.536C402.439 315.879 401.94 327.744 400.31 339.735C398.68 351.725 395.921 363.84 389.995 377.95C384.071 392.059 374.983 408.158 360.636 420.413C346.288 432.666 326.677 441.076 309.2 448.1C291.724 455.125 276.384 460.767 265.873 465.568C255.363 470.368 249.682 474.327 244.553 477.858C239.425 481.388 234.845 484.491 232.001 488.418C229.158 492.344 228.052 497.094 228.716 497.554C229.381 498.014 231.824 494.184 235.827 490.86C239.829 487.537 245.392 484.719 251.34 483.426C257.289 482.134 263.623 482.368 269.993 481.547C276.363 480.726 282.777 478.847 289.984 476.611C297.193 474.377 305.198 471.785 311.511 467.477C317.826 463.169 322.449 457.142 327.527 452.317C332.605 447.491 338.137 443.861 343.357 440.572C348.578 437.28 353.486 434.327 357.684 429.779C361.879 425.232 365.365 419.088 365.82 418.26C366.273 417.432 363.696 421.915 362.592 426.826C361.491 431.737 361.866 437.076 364.174 442.095C366.482 447.114 370.723 451.81 375.691 458.509C380.661 465.207 386.358 473.901 386.114 477.888C385.866 481.871 379.675 481.147 373.015 476.788C366.355 472.429 359.227 464.441 350.688 459.751C342.15 455.063 332.203 453.674 328.916 454.536C325.626 455.399 328.994 458.509 336.461 462.833C343.93 467.16 355.502 472.701 364.758 477.117C374.015 481.533 380.956 484.827 386.742 489.625C392.528 494.423 397.156 500.728 401.179 518.253C405.202 535.778 408.618 564.521 410.86 594.283C413.101 624.047 414.165 654.831 413.979 692.487C413.791 730.143 412.352 774.667 408.02 787.666C403.687 800.662 396.464 782.131 394.167 741.168C391.871 700.204 394.503 636.811 391.581 594.331C388.659 551.852 380.176 530.288 371.595 514.325C363.013 498.361 354.33 487.999 340.183 482.966C326.037 477.934 306.43 478.23 303.437 482.486C300.444 486.743 314.069 494.959 325.401 506.676C336.732 518.394 345.771 533.607 350.934 551.249C356.098 568.889 357.383 588.958 357.76 622.451C358.135 655.946 357.604 702.87 355.847 735.721C354.091 768.572 351.109 787.348 346.95 794.895C342.792 802.444 337.456 798.762 333.396 790.488C329.339 782.214 326.555 769.345 322.428 737.377C318.302 705.411 312.833 654.345 306.469 619.143C300.106 583.939 292.848 564.597 284.577 548.298C276.306 531.999 267.02 518.741 257.275 510.205C247.53 501.671 237.326 497.86 227.188 499.806C217.049 501.752 206.978 509.455 199.996 517.358C193.015 525.262 189.123 533.368 179.269 549.6C169.419 565.832 153.609 590.191 138.733 610.598C123.859 631.005 109.921 647.463 97.8934 663.031C85.8656 678.601 75.7505 693.28 69.0791 704.903C62.4078 716.526 59.1824 725.092 56.9525 734.267C54.7226 743.443 53.4927 753.225 54.9939 762.414C56.495 771.604 60.7296 780.195 59.2928 780.74C57.856 781.285 50.7455 773.78 46.3294 760.652C41.9155 747.525 40.1936 728.774 41.35 708.933C42.504 689.094 46.5339 668.165 49.419 655.07C52.3019 641.975 54.0375 636.714 55.8031 634.17C57.5663 631.627 59.3572 631.797 61.9986 632.991C64.64 634.184 68.1343 636.397 71.1895 636.802C74.2448 637.207 76.8678 635.806 77.6931 633.175C78.5207 630.545 77.5552 626.69 75.2885 623.698C73.0217 620.705 69.4493 618.578 65.9389 616.933C62.4285 615.288 58.9755 614.129 56.5916 614.304C54.2076 614.481 52.8881 615.992 53.2789 615.571C53.6674 615.15 55.7617 612.795 57.6859 611.217C59.61 609.639 61.3618 608.839 63.7434 609.595C66.1251 610.352 69.1343 612.666 72.4723 615.008C75.808 617.349 79.4701 619.716 82.5483 620.65C85.6265 621.582 88.1185 621.078 87.3277 617.499C86.5369 613.92 82.461 607.27 78.4517 602.279C74.4425 597.287 70.4999 593.957 67.5711 592.694C64.6423 591.431 62.7273 592.238 63.3365 592.213C63.9434 592.19 67.0722 591.334 69.3573 591.73C71.6447 592.126 73.0884 593.773 73.5206 591.401C73.9528 589.032 73.3735 582.647 73.9298 578.244C74.4861 573.842 76.1712 571.422 78.592 570.147C81.015 568.875 84.1714 568.749 85.284 567.162C86.3967 565.575 85.4656 562.532 83.5162 560.418C81.5667 558.306 78.6012 557.126 75.8977 557.437C73.1942 557.747 70.7528 559.548 68.7527 562.223C66.7504 564.898 65.1871 568.45 65.0446 570.888C64.8975 573.329 66.1665 574.656 67.8102 578.242C69.4539 581.828 71.47 587.668 72.5827 588.151C73.6976 588.634 73.9091 583.758 74.693 580.075C75.4793 576.392 76.8402 573.906 78.7943 568.027C80.7483 562.15 83.2978 552.88 84.8403 544.869C86.3875 536.857 86.9277 530.101 86.2818 526.113C85.6381 522.122 83.8035 520.898 82.3943 522.09C80.9828 523.281 79.9897 526.89 80.3575 531.054C80.7276 535.217 82.4564 539.935 84.0725 538.773C85.6886 537.614 87.1898 530.578 88.3967 526.23C89.6013 521.883 90.5094 520.225 95.7463 520.461C100.985 520.698 110.556 522.831 120.986 525.133C131.416 527.436 142.701 529.904 149.494 531.459C156.285 533.013 158.582 533.651 158.573 541.602C158.566 549.552 156.255 564.816 155.104 568.512C153.954 572.208 153.966 564.34 153.276 558.2C152.586 552.064 151.193 547.656 151.368 537.793C151.543 527.93 153.283 512.609 155.453 501.936C157.621 491.263 160.219 485.237 161.646 480.395C163.074 475.553 163.334 471.891 164.357 465.968C165.377 460.045 167.159 451.863 168.049 446.716C168.938 441.57 168.936 439.461 168.18 436.813C167.426 434.166 165.92 430.982 164.826 426.888C163.731 422.794 163.044 417.793 162.814 414.03C162.582 410.267 162.805 407.744 161.95 405.586C161.094 403.431 159.159 401.641 156.825 400.073C154.492 398.504 151.763 397.151 149.32 394.814C146.874 392.477 144.715 389.158 142.699 387.371C140.683 385.586 138.807 385.335 137.646 386.762C136.487 388.188 136.043 391.288 136.469 394.84C136.892 398.394 138.188 402.396 140.08 406.134C141.972 409.871 144.462 413.34 146.789 416.777C149.115 420.213 151.276 423.615 152.791 428.015C154.304 432.415 155.168 437.819 154.92 438.679C154.669 439.541 153.306 435.863 151.191 431.608C149.076 427.353 146.207 422.518 143.549 416.864C140.892 411.21 138.446 404.737 135.06 397.126C131.676 389.515 127.354 380.763 124.243 372.857C121.133 364.951 119.229 357.887 117.37 353.013C115.514 348.139 113.703 345.453 111.512 344.365C109.319 343.277 106.746 343.785 105.33 345.908C103.914 348.031 103.659 351.776 104.588 357.782C105.517 363.787 107.632 372.059 108.926 379.065C110.218 386.072 110.689 391.813 111.572 396.643C112.455 401.476 113.744 405.4 115.896 410.545C118.048 415.693 121.057 422.062 121.487 422.693C121.919 423.325 119.767 418.219 117.344 412.312C114.921 406.405 112.22 399.7 110.475 392.549C108.73 385.398 107.942 377.805 106.859 374.035C105.774 370.265 104.399 370.32 103.087 371.994C101.774 373.669 100.528 376.963 99.4935 380.494C98.459 384.022 97.636 387.787 97.659 392.411C97.6819 397.034 98.5486 402.515 99.4498 407.833C100.351 413.151 101.287 418.306 101.149 419.974C101.013 421.641 99.8038 419.824 98.6061 415.166C97.4061 410.509 96.2152 403.012 96.1808 397.011C96.1463 391.01 97.2612 386.504 98.0773 383.551C98.8911 380.597 99.4038 379.199 98.2337 379.325C97.0635 379.452 94.2106 381.108 91.937 383.024C89.6634 384.94 87.9645 387.116 86.5507 390.256C85.1346 393.395 84.0012 397.496 83.6426 401.729C83.2863 405.961 83.7024 410.325 84.1254 414.851C84.5484 419.378 84.9783 424.066 85.2288 427.3C85.4794 430.534 85.5507 432.316 84.9783 431.245C84.4104 430.173 83.1989 426.246 81.969 422.808C80.7368 419.369 79.4839 416.418 79.4793 413.253C79.4747 410.09 80.7184 406.713 81.461 403.967C82.2035 401.22 82.4426 399.1 81.4265 398.046C80.4127 396.993 78.1414 397.002 76.0862 398.26C74.0264 399.518 72.1826 402.026 70.3412 404.655C68.4998 407.284 66.6653 410.035 65.9527 413.549C65.24 417.064 65.6538 421.349 67.0814 426.605C68.5067 431.861 70.9435 438.092 72.8125 444.305C74.6838 450.518 75.9827 456.712 78.2103 462.789C80.4403 468.866 83.5966 474.824 87.0703 480.606C90.5439 486.389 94.3324 491.999 95.7509 498.026C97.167 504.054 96.206 510.499 95.2497 516.947L185.366 330.566ZM227.215 208.68C216.275 213.968 205.332 219.258 197.67 226.154L227.215 208.68ZM186.877 242.281C186.504 243.265 186.157 244.264 185.833 245.271L186.877 242.281ZM182.486 259.13C182.32 259.967 182.159 260.806 181.996 261.646L182.486 259.13ZM218.617 344.471C219.856 345.071 221.095 345.669 221.999 347.419C222.9 349.168 223.461 352.066 223.158 354.106C222.854 356.146 221.684 357.329 219.585 357.048C217.486 356.767 214.456 355.021 211.449 353.823C208.442 352.625 205.458 351.974 203.348 351.955C201.24 351.939 200.008 352.556 200.081 353.404C200.155 354.253 201.537 355.334 202.674 355.898C203.81 356.461 204.704 356.507 203.675 356.629C202.645 356.751 199.695 356.951 196.831 356.314C193.966 355.677 191.194 354.207 189.511 352.165C187.828 350.122 187.237 347.509 187.306 345.174C187.375 342.84 188.104 340.781 189.449 338.964C190.794 337.147 192.759 335.567 194.219 334.048C195.679 332.53 196.635 331.072 197.362 329.651C198.091 328.227 198.589 326.84 199.093 325.453L218.617 344.471ZM291.54 334.849C289.372 334.23 287.205 333.614 285.834 332.305C284.467 330.996 283.901 328.997 283.674 328.712C283.448 328.427 283.561 329.858 284.441 331.801C285.324 333.745 286.968 336.204 288.094 338.541C289.221 340.878 289.823 343.09 289.929 345.724C290.035 348.36 289.639 351.415 287.676 355.366C285.71 359.318 282.177 364.162 279.54 367.769C276.903 371.373 275.163 373.738 273.708 376.091C272.255 378.444 271.085 380.786 269.933 381.349C268.779 381.913 267.641 380.696 266.209 379.231C264.774 377.768 263.043 376.059 261.464 373.855C259.885 371.652 258.459 368.956 257.646 366.52C256.832 364.084 256.632 361.913 257 359.661C257.367 357.409 258.308 355.077 259.372 353.025C260.439 350.973 261.63 349.207 263.197 347.564C264.767 345.924 266.712 344.411 268.632 342.959C270.551 341.508 272.446 340.109 273.788 338.566C275.131 337.02 275.924 335.325 276.469 333.841C277.011 332.356 277.303 331.084 277.294 330.078C277.283 329.076 276.968 328.342 277.119 327.847C277.271 327.353 277.892 327.1 277.71 327.594C277.529 328.089 276.547 329.333 275.039 330.311C273.529 331.288 271.494 332.001 270.083 333.292C268.673 334.582 267.887 336.45 266.882 337.837C265.876 339.226 264.653 340.135 263.018 340.859C261.384 341.584 259.342 342.124 257.052 342.216C254.76 342.308 252.225 341.95 249.213 341.209C246.202 340.468 242.717 339.346 239.733 338.575C236.749 337.805 234.266 337.388 232.532 337.027C230.797 336.666 229.811 336.362 229.059 336.22C228.307 336.077 227.792 336.098 228.374 335.56C228.955 335.019 230.631 333.92 232.043 332.687C233.457 331.454 234.606 330.09 235.806 328.549C237.006 327.01 238.257 325.296 239.735 324.261C241.213 323.226 242.919 322.872 244.834 322.739C246.751 322.605 248.875 322.693 250.868 323.072C252.862 323.452 254.724 324.123 256.494 324.655C258.264 325.186 259.942 325.579 261.448 325.977C262.954 326.375 264.289 326.782 265.843 326.92C267.397 327.058 269.168 326.932 270.358 326.568C271.549 326.205 272.156 325.607 272.738 325.096C273.319 324.586 273.876 324.162 274.602 324.39C275.329 324.62 276.223 325.501 276.145 325.678C276.064 325.853 275.011 325.322 274.432 324.427C273.85 323.532 273.745 322.274 273.248 321.347C272.752 320.42 271.869 319.824 271.772 318.824C271.673 317.823 272.363 316.418 272.807 315.311C273.25 314.203 273.446 313.393 273.883 312.802C274.317 312.211 274.991 311.84 275.701 311.695C276.411 311.553 277.161 311.638 277.715 311.873C278.269 312.109 278.63 312.496 278.991 312.912C279.349 313.329 279.713 313.772 280.241 314.067C280.77 314.361 281.462 314.506 281.848 314.835C282.234 315.164 282.313 315.677 282.395 316.305C282.478 316.933 282.563 317.676 283.076 318.285C283.588 318.895 284.524 319.376 285.009 319.988C285.492 320.599 285.522 321.345 285.372 321.894C285.221 322.446 284.892 322.803 284.556 322.242C284.218 321.68 283.871 320.204 283.706 318.92C283.54 317.637 283.554 316.544 284.067 315.721C284.579 314.897 285.589 314.341 286.246 313.598C286.906 312.855 287.212 311.923 287.292 308.938C287.372 305.952 287.23 300.908 287.72 297.358C288.207 293.812 289.331 291.758 290.607 289.986C291.883 288.215 293.315 286.722 295.106 285.591C296.897 284.459 299.044 283.684 301.628 283.065C304.212 282.446 307.233 281.982 310.405 281.74C313.577 281.499 316.904 281.48 319.003 282.4C321.104 283.32 321.98 285.179 322.028 287.787C322.074 290.396 321.293 293.756 320.201 297.269C319.106 300.783 317.704 304.454 316.265 307.18C314.826 309.906 313.348 311.686 312.083 313.027C310.817 314.368 309.764 315.272 307.987 316.001C306.21 316.733 303.708 317.292 301.347 317.729C298.986 318.168 296.761 318.486 295.345 318.886C293.927 319.286 293.315 319.769 292.258 320.558C291.2 321.347 289.694 322.44 288.198 322.987C286.699 323.534 285.209 323.537 285.361 323.79C285.515 324.043 287.313 324.544 288.892 324.595C290.471 324.648 291.832 324.247 293.005 323.456C294.177 322.663 295.161 321.476 296.212 320.459C297.26 319.442 298.375 318.594 299.609 317.943C300.844 317.292 302.203 316.834 303.453 316.583C304.704 316.333 305.851 316.287 306.922 316.618C307.998 316.947 309 317.653 309.814 318.626C310.628 319.597 311.249 320.834 312.653 322.959C314.058 325.085 316.242 328.096 317.874 329.522C319.506 330.948 320.591 330.789 320.619 330.759C320.647 330.729 319.617 330.828 318.41 331.479C317.203 332.13 315.819 333.333 314.557 334.789C313.297 336.245 312.159 337.954 310.18 339.325C308.198 340.696 305.373 341.726 302.775 342.03C300.177 342.334 297.809 341.913 296.138 340.977C294.467 340.038 293.49 338.587 292.655 337.041C291.821 335.498 291.124 333.86 290.389 332.684C289.653 331.509 288.881 330.794 287.384 329.936C285.885 329.078 283.669 328.077 282.915 328.595C282.161 329.112 282.874 331.15 283.88 333.432C284.89 335.716 286.193 338.244 286.938 340.367C287.681 342.488 287.864 344.204 287.228 346.18C286.589 348.155 285.131 350.394 283.701 351.944C282.274 353.492 280.873 354.352 279.942 355.422C279.009 356.491 278.545 357.772 277.998 359.889C277.45 362.005 276.823 364.956 275.735 367.15C274.648 369.345 273.101 370.785 271.843 372.353C270.588 373.924 269.623 375.626 269.138 377.138C268.653 378.649 268.65 379.969 268.678 380.712C268.708 381.457 268.772 381.625 268.837 381.795L291.54 334.849ZM311.391 338.361C313.198 338.26 315.003 338.157 317.352 337.676C319.699 337.195 322.589 336.333 325.093 335.116C327.596 333.899 329.711 332.321 331.833 330.858C333.955 329.398 336.079 328.05 336.649 327.224C337.217 326.398 336.231 326.092 335.187 325.073C334.141 324.054 333.042 322.32 331.307 320.553C329.573 318.787 327.208 316.988 324.955 315.815C322.699 314.642 320.557 314.097 318.265 313.904C315.973 313.71 313.532 313.867 311.092 314.023L311.391 338.361ZM277.301 330.081C275.821 332.061 274.342 334.042 271.82 335.898C269.299 337.754 265.728 339.484 263.016 341.197C260.303 342.913 258.446 344.611 255.268 345.867C252.091 347.123 247.595 347.932 243.613 348.063C239.634 348.195 236.169 347.643 233.709 347.054C231.25 346.465 229.79 345.835 228.459 345.513C227.125 345.193 225.921 345.184 225.907 344.811C225.893 344.438 227.068 343.702 227.912 342.58C228.755 341.457 229.268 339.944 229.693 338.888C230.119 337.832 230.457 337.234 230.797 336.636L277.301 330.081ZM281.853 314.84C281.621 313.586 281.388 312.335 281.965 311.107C282.545 309.878 283.931 308.675 284.055 307.523C284.182 306.371 283.048 305.269 281.393 304.595C279.736 303.923 277.559 303.679 275.296 303.799C273.037 303.919 270.694 304.399 268.979 305.322C267.262 306.244 266.17 307.606 265.786 308.797C265.402 309.989 265.731 311.008 266.639 311.488C267.547 311.969 269.034 311.909 270.34 312.038C271.646 312.167 272.768 312.487 273.119 312.013C273.473 311.539 273.06 310.274 272.984 309.294C272.906 308.312 273.165 307.613 273.604 307.136C274.044 306.66 274.666 306.405 275.232 306.239C275.798 306.074 276.313 305.996 276.864 306.175C277.416 306.354 278.007 306.789 278.756 306.932C279.506 307.074 280.418 306.923 281.129 306.75C281.839 306.578 282.347 306.387 282.788 306.656C283.228 306.925 283.602 307.656 283.975 308.388L281.853 314.84ZM272.122 317.03C271.526 315.366 270.935 313.703 270.02 312.779C269.108 311.856 267.873 311.672 266.639 311.488L272.122 317.03ZM273.588 324.484C271.848 323.801 270.106 323.118 268.057 322.736C266.009 322.354 263.655 322.276 261.213 322.504C258.77 322.729 256.236 323.261 253.505 323.054C250.774 322.847 247.841 321.904 245.455 320.666C243.071 319.429 241.229 317.894 239.756 316.089C238.277 314.283 237.165 312.204 236.356 309.913C235.549 307.622 235.045 305.117 234.827 302.486C234.608 299.854 234.67 297.099 234.275 295.824C233.88 294.55 233.027 294.755 232.939 295.389C232.85 296.024 233.523 297.087 234.606 297.646C235.689 298.205 237.181 298.26 238.956 298.161C240.728 298.062 242.783 297.807 244.843 297.669C246.901 297.529 248.965 297.503 251.059 297.536C253.156 297.568 255.28 297.655 257.186 297.979C259.089 298.306 260.774 298.87 262.301 299.755C263.827 300.641 265.195 301.848 266.28 302.831C267.368 303.813 268.172 304.565 267.892 303.974C267.609 303.383 266.241 301.446 264.733 299.937C263.225 298.428 261.574 297.347 259.623 296.563C257.671 295.781 255.416 295.295 252.91 295.081C250.406 294.865 247.659 294.918 245.142 295.104C242.625 295.291 240.344 295.61 238.659 295.737C236.974 295.863 235.88 295.79 234.985 295.654C234.091 295.518 233.395 295.316 232.698 295.113L273.588 324.484ZM290.609 289.991C291.287 289.186 291.968 288.379 291.533 286.713C291.099 285.048 289.552 282.522 287.264 280.689C284.977 278.856 281.949 277.715 280.08 276.871C278.211 276.027 277.503 275.481 276.986 276.162C276.467 276.843 276.142 278.75 275.244 280.65C274.345 282.55 272.871 284.445 271.689 286.414C270.506 288.383 269.611 290.428 268.685 292.3C267.756 294.173 266.791 295.875 266.296 297.301C265.802 298.727 265.772 299.877 265.745 301.027L290.609 289.991ZM284.218 323.09C283.988 323.76 283.756 324.429 282.991 325.018C282.225 325.609 280.926 326.12 279.818 326.306C278.708 326.495 277.784 326.359 276.862 326.223L284.218 323.09ZM270.981 233.616C270.91 234.055 270.82 234.506 270.715 234.962C270.076 237.646 268.699 240.477 267.715 243.327C266.728 246.177 266.138 249.043 265.453 251.698C264.767 254.354 263.99 256.802 263.74 258.766C263.489 260.73 263.765 262.216 264.427 263.619C265.089 265.023 266.14 266.345 267.469 267.889C268.797 269.432 270.409 271.196 271.972 272.625C273.535 274.053 275.053 275.141 277.287 275.389C279.522 275.638 282.474 275.044 285.021 273.312C287.568 271.58 289.71 268.71 291.667 264.956C293.625 261.2 295.398 256.56 296.106 252.928C296.816 249.296 296.462 246.67 296.09 244.537C295.717 242.405 295.324 240.765 293.796 238.534C292.264 236.303 289.593 233.48 286.161 231.748C285.214 231.27 284.209 230.877 283.195 230.541L270.981 233.616ZM207.734 245.023C207.962 245.004 208.19 244.983 208.902 245.036C209.613 245.089 210.808 245.214 211.953 244.981C213.095 244.749 214.187 244.162 215.307 243.452C216.426 242.741 217.571 241.908 218.615 241.354C219.656 240.799 220.597 240.521 221.944 240.645C223.293 240.77 225.054 241.292 226.507 241.138C227.96 240.983 229.107 240.149 230.296 239.868C231.484 239.587 232.716 239.856 234.447 240.27C236.181 240.684 238.418 241.243 240.935 241.77C243.452 242.297 246.252 242.789 248.344 242.396C250.436 242.002 251.818 240.721 252.981 239.346C254.144 237.973 255.091 236.505 255.206 236.418C255.319 236.33 254.6 237.623 253.832 238.879C253.064 240.132 252.248 241.349 250.834 242.89C249.422 244.431 247.413 246.299 245.356 247.596C243.298 248.894 241.197 249.621 239.133 250.203C237.068 250.785 235.047 251.219 233.383 251.387C231.719 251.555 230.415 251.461 229.107 250.957C227.797 250.456 226.479 249.547 225.252 248.829C224.024 248.112 222.884 247.587 221.877 247.297C220.875 247.008 220.01 246.957 219.07 247.077C218.132 247.199 217.121 247.493 215.686 247.721C214.252 247.948 212.392 248.109 210.923 247.744C209.454 247.378 208.376 246.488 207.817 245.892C207.258 245.296 207.222 244.995 207.858 244.756C208.495 244.517 209.808 244.339 210.576 243.465C211.341 242.591 211.567 241.023 212.341 239.875C213.118 238.727 214.447 238.002 215.7 238.053C216.953 238.104 218.132 238.929 218.105 239.286C218.079 239.642 216.849 239.527 215.482 239.486C214.114 239.445 212.61 239.477 211.077 239.088C209.544 238.699 207.983 237.894 206.33 236.721C204.677 235.55 202.93 234.014 201.523 232.896C200.116 231.778 199.047 231.079 199.143 230.239C199.242 229.4 200.507 228.42 202.079 226.741C203.652 225.062 205.532 222.686 208.875 220.733C212.219 218.78 217.029 217.25 220.815 216.816C224.601 216.381 227.367 217.036 230.555 219.061C233.744 221.085 237.353 224.475 240.153 226.605C242.951 228.735 244.937 229.602 245.549 229.002C246.163 228.399 245.404 226.329 244.714 224.947C244.025 223.564 243.404 222.867 242.231 222.407C241.061 221.947 239.337 221.724 237.799 221.165C236.259 220.604 234.91 219.705 234.073 218.541C233.236 217.377 232.912 215.944 233.013 214.426C233.112 212.908 233.636 211.3 233.822 209.43C234.008 207.56 233.854 205.425 233.404 203.33C232.949 201.232 232.197 199.173 232.013 197.609C231.829 196.045 232.22 194.978 233.312 194.699C234.406 194.423 236.204 194.936 237.889 195.925C239.574 196.914 241.146 198.377 243.183 199.762C245.22 201.147 247.724 202.453 249.505 203.592C251.285 204.73 252.347 205.703 253.02 206.6C253.694 207.498 253.976 208.316 253.988 209.128C253.999 209.94 253.737 210.743 253.549 211.762C253.36 212.779 253.245 214.012 253.475 214.844C253.705 215.677 254.28 216.114 254.816 216.774C255.351 217.434 255.845 218.318 256.223 219.465C256.597 220.613 256.855 222.028 257.032 221.653C257.209 221.278 257.305 219.116 257.151 217.464C256.997 215.813 256.593 214.674 255.979 213.395C255.365 212.116 254.537 210.695 253.811 209.347C253.082 207.999 252.448 206.725 251.963 205.644C251.475 204.565 251.135 203.679 250.882 202.368C250.627 201.055 250.457 199.314 250.747 197.476C251.036 195.638 251.788 193.701 253.103 191.7C254.418 189.699 256.298 187.631 258.404 185.915C260.508 184.199 262.839 182.833 264.926 181.662C267.016 180.494 268.864 179.521 270.42 179.164C271.979 178.808 273.248 179.07 274.175 179.59C275.103 180.112 275.69 180.894 275.975 182.334C276.262 183.774 276.25 185.871 276.237 188.28C276.227 190.688 276.216 193.407 276.421 195.817C276.623 198.23 277.041 200.335 276.954 202.14C276.869 203.946 276.28 205.455 274.754 208.537C273.227 211.622 270.761 216.28 268.701 219.401C266.641 222.522 264.986 224.105 263.756 225.368C262.524 226.63 261.717 227.571 261.875 227.668C262.034 227.762 263.165 227.012 264.393 226.196C265.62 225.379 266.949 224.5 268.276 223.311C269.604 222.122 270.931 220.62 272.446 218.957C273.965 217.292 275.673 215.463 277.147 213.4C278.623 211.339 279.864 209.046 281.299 206.975C282.733 204.905 284.359 203.058 285.878 201.936C287.398 200.813 288.809 200.418 290.005 200.542C291.2 200.666 292.177 201.31 293.207 201.322C294.237 201.333 295.322 200.71 296.442 200.464C297.563 200.218 298.72 200.351 300.253 200.74C301.786 201.126 303.692 201.768 304.019 202.288C304.343 202.808 303.088 203.203 301.789 203.279C300.492 203.355 299.15 203.113 297.545 203.056C295.94 202.996 294.074 203.123 292.297 203.764C290.522 204.408 288.839 205.572 286.945 206.828C285.053 208.084 282.949 209.432 281.175 211.219C279.398 213.009 277.945 215.238 276.515 217.248C275.085 219.258 273.678 221.052 272.402 222.52C271.126 223.988 269.981 225.133 268.379 226.002C266.777 226.874 264.719 227.472 263.115 228.061C261.512 228.648 260.365 229.223 259.88 230.269C259.395 231.316 259.572 232.827 260.344 233.324C261.117 233.821 262.482 233.299 263.954 232.935C265.427 232.572 267.004 232.367 268.876 232.105C270.747 231.845 272.915 231.527 274.931 230.824C276.942 230.12 278.798 229.029 280.522 227.797C282.246 226.564 283.837 225.19 285.354 223.603C286.871 222.016 288.315 220.215 290.384 218.12C292.451 216.024 295.143 213.634 297.66 211.484C300.177 209.333 302.524 207.419 303.81 205.678C305.092 203.937 305.315 202.368 305.387 202.95C305.456 203.534 305.375 206.272 304.246 208.167C303.115 210.062 300.941 211.118 298.975 213.46C297.009 215.801 295.251 219.429 292.782 222.531C290.313 225.634 287.133 228.218 284.255 229.936C281.377 231.654 278.795 232.512 275.952 233.016C273.108 233.522 270.002 233.674 267.432 233.864C264.859 234.055 262.825 234.283 261.478 234.163C260.133 234.046 259.475 233.582 259.19 232.758C258.905 231.935 258.993 230.748 259.218 229.798C259.443 228.848 259.804 228.135 259.577 227.164C259.351 226.193 258.535 224.965 257.882 224.218C257.227 223.472 256.733 223.208 256.423 222.589C256.11 221.97 255.979 220.995 255.595 220.16C255.211 219.327 254.57 218.635 253.868 218.094C253.17 217.554 252.413 217.165 251.701 216.802C250.988 216.438 250.321 216.103 249.638 216.006C248.953 215.907 248.252 216.047 247.266 216.434C246.278 216.82 245.004 217.453 244.326 218.071C243.648 218.688 243.567 219.291 243.551 219.838C243.535 220.385 243.581 220.878 243.783 221.448C243.988 222.016 244.344 222.665 244.505 223.302C244.666 223.939 244.632 224.569 244.758 225.218C244.882 225.864 245.167 226.531 245.523 227.021C245.88 227.514 246.312 227.831 246.452 228.241C246.595 228.65 246.452 229.154 246.556 229.648C246.661 230.145 247.02 230.637 247.436 231.21C247.852 231.783 248.328 232.438 248.742 233.071C249.153 233.703 249.501 234.313 250.041 234.681C250.581 235.049 251.31 235.173 252.163 235.249C253.016 235.323 253.99 235.348 254.839 235.249C255.687 235.15 256.406 234.929 257.225 234.722C258.046 234.515 258.965 234.32 259.744 234.336C260.524 234.352 261.163 234.578 261.717 235.001C262.269 235.424 262.735 236.043 263.053 236.758C263.37 237.473 263.535 238.283 263.462 239.757C263.388 241.232 263.078 243.366 262.694 245.306C262.31 247.245 261.862 248.988 260.988 250.743C260.115 252.498 258.816 254.262 257.393 255.378C255.97 256.494 254.42 256.965 253.248 257.503C252.073 258.039 251.273 258.644 250.79 259.27C250.307 259.896 250.147 260.544 249.409 260.802C248.671 261.059 247.358 260.926 245.448 260.19C243.535 259.452 238.321 257.777 237.804 257.646C237.287 257.515 241.466 258.927 243.165 259.815C244.864 260.703 246.783 261.402 248.763 261.756C250.742 262.111 252.779 262.122 254.671 261.547C256.56 260.972 258.303 259.808 260.434 258.462C261.678 257.676 263.055 256.827 264.342 255.845L207.734 245.023ZM270.179 236.818C270.17 236.788 270.163 236.76 270.156 236.73C269.825 235.495 269.368 234.483 268.478 234.046C267.591 233.609 266.269 233.752 265.413 234.433C264.558 235.113 264.17 236.337 263.395 236.496C262.62 236.652 261.462 235.744 260.02 235.488C258.579 235.233 256.857 235.631 255.931 236.797C255.004 237.963 254.873 239.898 254.664 241.908C254.457 243.921 254.17 246.009 253.282 247.709C252.395 249.409 250.903 250.718 249.252 251.932C247.602 253.147 245.792 254.265 243.857 255.201C241.923 256.137 239.866 256.891 237.806 257.646L270.179 236.818ZM250.613 198.732C249.82 197.936 249.025 197.14 247.514 196.48C246.004 195.82 243.779 195.297 241.689 195.061C239.599 194.824 237.643 194.872 235.811 194.911C233.978 194.95 232.268 194.975 231.199 196.052C230.128 197.128 229.698 199.256 229.165 201.059C228.631 202.863 227.999 204.342 227.617 206.048C227.234 207.755 227.105 209.69 227.185 211.318C227.268 212.947 227.565 214.267 228.293 215.594C229.024 216.921 230.19 218.251 231.355 219.583L250.613 198.732ZM251.22 236.213C251.356 236.664 250.542 238.078 249.029 239.008C247.517 239.937 245.303 240.381 243.296 240.638C241.289 240.896 239.491 240.965 238.59 241C237.991 241.023 237.861 240.945 238.202 240.767C238.712 240.5 239.735 239.969 240.551 239.452C241.367 238.934 241.976 238.43 242.852 238.053C243.726 237.676 244.866 237.427 245.921 237.237C246.979 237.046 247.953 236.917 248.981 236.595C250.006 236.273 251.084 235.76 251.218 236.211L251.22 236.213ZM225.259 248.818C223.059 250.741 220.856 252.661 219.404 255.304C217.953 257.945 217.252 261.303 217.022 264.224C216.79 267.146 217.029 269.63 216.957 271.035C216.884 272.443 216.502 272.772 217.498 272.868C218.491 272.965 220.861 272.832 223.691 273.131C226.521 273.43 229.813 274.166 233.599 274.106C237.385 274.046 241.666 273.195 245.565 271.898C249.464 270.601 252.976 268.855 255.933 267.003C258.889 265.151 261.287 263.192 263.595 259.783C263.62 259.748 263.643 259.711 263.666 259.677L225.259 248.818ZM263.728 261.237C264.979 263.452 266.23 265.664 268.009 267.205C269.793 268.747 272.11 269.614 274.469 269.899C276.83 270.182 279.234 269.883 280.554 268.967C281.874 268.052 282.106 266.518 283.071 266.042C284.037 265.563 285.733 266.143 287.283 265.363C288.83 264.583 290.228 262.444 291.674 260.144C293.12 257.844 294.616 255.383 295.232 252.229C295.848 249.075 295.582 245.23 294.239 241.883C292.894 238.536 290.474 235.691 288.768 233.998C287.062 232.305 286.071 231.771 285.085 231.238L263.728 261.237ZM307.828 205.372C307.685 204.293 307.545 203.212 307.764 202.295C307.984 201.377 308.564 200.622 309.403 199.757C310.242 198.89 311.338 197.915 312.704 196.933C314.072 195.953 315.711 194.969 316.784 193.818C317.858 192.668 318.366 191.353 318.46 190.186C318.557 189.018 318.242 187.999 317.872 188.121C317.502 188.243 317.079 189.508 317.736 191.587C318.394 193.667 320.134 196.565 320.697 198.785C321.26 201.004 320.649 202.55 320.617 203.36C320.587 204.172 321.143 204.25 321.564 204.947C321.987 205.644 322.281 206.955 322.688 208.652C323.095 210.347 323.619 212.427 323.431 214.474C323.242 216.521 322.343 218.536 321.253 219.327C320.164 220.119 318.883 219.684 317.761 218.817C316.64 217.95 315.674 216.65 314.773 215.403C313.872 214.159 313.037 212.97 312.033 211.709C311.03 210.449 309.858 209.115 309.003 207.776C308.148 206.435 307.607 205.087 307.83 204.192C308.053 203.297 309.037 202.856 310.161 203.12C311.283 203.387 312.545 204.36 313.938 205.674C315.336 206.985 316.867 208.634 316.89 209.002C316.918 209.372 315.437 208.461 314.253 207.369C313.067 206.278 312.175 205.006 311.711 203.716C311.246 202.426 311.212 201.117 311.752 200.565C312.292 200.013 313.407 200.213 314.672 201.23C315.941 202.246 317.359 204.082 317.382 204.254C317.405 204.427 316.03 202.939 315.334 201.605C314.637 200.27 314.619 199.093 315.166 198.757C315.711 198.421 316.821 198.929 317.709 199.829C318.598 200.728 319.267 202.021 319.407 203.626C319.55 205.23 319.166 207.146 319.159 209.333C319.15 211.521 319.518 213.977 319.902 216.05C320.288 218.122 320.69 219.813 321.088 220.606C321.486 221.4 321.881 221.296 322.713 219.176C323.545 217.055 324.817 212.912 325.166 207.633C325.516 202.354 324.948 195.937 323.552 191.521C322.157 187.104 319.936 184.689 318.04 184.038C316.141 183.385 314.564 184.496 313.775 186.099C312.989 187.705 312.991 189.802 312.072 191.769C311.152 193.736 309.306 195.569 307.607 197.478C305.908 199.387 304.357 201.37 304.18 203.484C304.003 205.598 305.203 207.847 307.38 210.267C309.554 212.687 312.704 215.274 315.164 217.253C317.621 219.228 319.387 220.595 319.527 221.653C319.665 222.711 318.175 223.463 317.03 224.227C315.886 224.99 315.079 225.766 312.628 226.607C310.177 227.449 306.081 228.358 302.982 228.234C299.883 228.109 297.782 226.952 296.637 225.814C295.49 224.675 295.297 223.557 294.825 222.377C294.354 221.197 293.6 219.958 293.752 217.823C293.904 215.688 294.956 212.661 296.071 210.61C297.184 208.56 298.359 207.488 299.598 206.913C300.837 206.338 302.143 206.26 303.182 206.564C304.221 206.87 304.996 207.56 304.844 208.121C304.692 208.682 303.61 209.115 303.26 209.749C302.911 210.384 303.292 211.224 304.423 212.254C305.554 213.285 307.439 214.506 308.807 215.1C310.177 215.693 311.033 215.656 310.908 215.208C310.782 214.762 309.672 213.904 310.154 214.295C310.635 214.686 312.709 216.328 314.338 217.858C315.968 219.387 317.15 220.806 316.86 221.358C316.568 221.91 314.807 221.595 312.412 220.618C310.017 219.64 306.991 218 305.858 216.97C304.727 215.939 305.488 215.518 305.747 215.429C306.007 215.339 305.768 215.58 305.019 215.585C304.272 215.59 303.019 215.357 301.899 214.764C300.777 214.17 299.791 213.213 299.642 212.418C299.492 211.622 300.18 210.989 300.816 210.667C301.455 210.345 302.044 210.334 301.731 210.559C301.423 210.785 300.212 211.249 299.472 212.169C298.731 213.092 298.46 214.472 298.391 215.507C298.322 216.542 298.458 217.227 299.101 217.473C299.745 217.72 300.899 217.524 301.966 217.533C303.032 217.542 304.012 217.756 304.883 218.177C305.754 218.598 306.518 219.226 306.007 219.843C305.499 220.459 303.72 221.064 302.292 221.416C300.865 221.768 299.791 221.869 299.455 221.747C299.122 221.625 299.531 221.28 300.561 221.184C301.591 221.087 303.242 221.236 304.975 221.315C306.706 221.393 308.52 221.398 310.341 221.793C312.159 222.191 313.987 222.982 313.761 223.527C313.538 224.073 311.267 224.374 308.745 224.675C306.223 224.979 303.453 225.283 302.136 225.273C300.821 225.266 300.961 224.947 301.005 225.292C301.051 225.637 301 226.647 301.492 227.279C301.984 227.912 303.014 228.165 304.798 228.105C306.58 228.047 309.118 227.677 309.768 227.988C310.421 228.298 309.191 229.287 308.545 230.244C307.899 231.201 307.839 232.126 308.522 232.149C309.205 232.172 310.633 231.295 311.913 230.168C313.194 229.043 314.329 227.668 315.734 226.64C317.141 225.611 318.819 224.931 320.139 223.854C321.46 222.78 322.424 221.312 323.405 220.673C324.387 220.034 325.387 220.224 325.265 220.772C325.143 221.319 323.902 222.223 322.757 222.985C321.612 223.748 320.559 224.372 320.959 225.011C321.362 225.651 323.214 226.308 324.679 227.284C326.146 228.261 327.221 229.559 327.575 230.706C327.932 231.854 327.564 232.85 326.52 234.237C325.479 235.624 323.764 237.404 321.529 238.86C319.295 240.316 316.541 241.448 314.109 242.071C311.674 242.695 309.559 242.805 308.536 242.267C307.513 241.729 307.587 240.542 308.235 239.104C308.885 237.667 310.113 235.976 311.373 234.175C312.633 232.374 313.922 230.46 315.391 229.032C316.858 227.603 318.504 226.663 318.676 226.952C318.851 227.242 317.555 228.763 316.571 230.255C315.589 231.746 314.918 233.209 314.028 234.538C313.136 235.868 312.026 237.064 311.154 237.694C310.285 238.322 309.658 238.382 309.768 238.525C309.879 238.667 310.722 238.895 311.635 239.113C312.548 239.334 313.527 239.548 314.205 239.353C314.883 239.157 315.256 238.555 315.869 237.361C316.483 236.167 317.338 234.382 317.782 233.115C318.228 231.849 318.267 231.102 318.644 229.996C319.019 228.889 319.734 227.422 320.339 227.017C320.943 226.61 321.435 227.263 321.506 228.482C321.575 229.699 321.219 231.481 320.718 232.491C320.217 233.501 319.568 233.736 319.104 233.671C318.64 233.607 318.366 233.239 318.366 233.74C318.364 234.244 318.633 235.617 318.552 236.717C318.47 237.818 318.035 238.647 317.414 239.097C316.794 239.548 315.987 239.624 315.987 239.449C315.987 239.274 316.791 238.849 317.573 238.58C318.352 238.311 319.109 238.196 319.925 238.03C320.741 237.864 321.621 237.653 322.031 237.156C322.442 236.659 322.385 235.877 322.226 235.017C322.067 234.157 321.81 233.22 321.856 233.237C321.904 233.255 322.258 234.226 322.658 234.69C323.058 235.155 323.506 235.113 323.948 234.854C324.389 234.594 324.826 234.115 325.083 233.478C325.341 232.843 325.417 232.047 325.042 231.1C324.67 230.152 323.844 229.048 323.226 228.473C322.605 227.898 322.191 227.849 322.463 228.195C322.734 228.54 323.693 229.28 324.545 229.901C325.396 230.52 326.143 231.019 326.75 231.159C327.357 231.3 327.828 231.081 328.428 231.003C329.031 230.925 329.764 230.987 331.031 230.628C332.3 230.269 334.1 229.487 336.307 227.99C338.514 226.492 341.125 224.28 344.01 222.435C346.895 220.59 350.056 219.111 352.344 218.046C354.629 216.979 356.038 216.323 355.808 215.601C355.578 214.879 353.707 214.092 350.631 214.318C347.555 214.541 343.275 215.774 339.663 216.921C336.051 218.069 333.109 219.132 330.739 219.902C328.369 220.671 326.573 221.147 326.624 221.186C326.674 221.225 328.571 220.829 330.589 220.312C332.608 219.794 334.743 219.157 336.127 219.157C337.511 219.157 338.139 219.799 337.185 220.48C336.231 221.161 333.695 221.878 331.736 222.324C329.778 222.771 328.396 222.946 327.265 222.964C326.134 222.982 325.256 222.847 324.686 222.987C324.116 223.127 323.854 223.546 324.051 224.031C324.249 224.517 324.911 225.066 325.854 225.676C326.794 226.288 328.017 226.959 329.1 227.622C330.185 228.284 331.132 228.94 332.058 228.917C332.985 228.894 333.89 228.199 334.242 227.422C334.594 226.644 334.392 225.791 333.792 225.016C333.192 224.241 332.194 223.548 331.536 223.369C330.877 223.189 330.559 223.525 331.178 223.925C331.798 224.326 333.355 224.793 334.665 225.105C335.976 225.418 337.04 225.582 337.649 225.218C338.258 224.855 338.412 223.967 337.847 223.277C337.279 222.587 335.994 222.097 335.805 222.048C335.617 222 336.532 222.396 337.477 222.525C338.422 222.653 339.403 222.518 340.208 222.092C341.012 221.667 341.645 220.951 341.32 220.546C340.996 220.139 339.714 220.04 338.684 220.139C337.654 220.236 336.877 220.528 337.114 220.266C337.35 220.004 338.603 219.185 339.98 218.619C341.355 218.053 342.856 217.738 344.288 217.602C345.721 217.469 347.086 217.515 348.371 217.285C349.656 217.055 350.859 216.549 351.162 216.105C351.465 215.661 350.872 215.279 349.309 215.624C347.746 215.969 345.21 217.036 343.624 218.06C342.035 219.084 341.392 220.061 340.75 221.041L307.828 205.372ZM138.756 318.52C137.08 320.507 135.404 322.495 133.643 325.119C131.882 327.741 130.039 330.998 128.54 334.021C127.043 337.043 125.892 339.836 125.046 342.667C124.2 345.501 123.655 348.376 122.995 351.065C122.333 353.754 121.556 356.254 121.54 357.929C121.524 359.603 122.271 360.452 123.296 359.314C124.321 358.175 125.623 355.049 126.662 352.264C127.703 349.478 128.482 347.031 129.073 344.592C129.659 342.154 130.057 339.723 130.786 338.021C131.515 336.319 132.572 335.343 133.287 335.424C134.004 335.504 134.379 336.643 134.106 338.081C133.834 339.518 132.915 341.257 132.161 342.274C131.404 343.293 130.814 343.59 130.958 343.09C131.103 342.591 131.984 341.294 133.122 340.231C134.26 339.171 135.653 338.348 136.577 338.117C137.501 337.887 137.954 338.256 137.871 338.943C137.788 339.633 137.17 340.645 136.135 342.223C135.103 343.801 133.653 345.945 132.156 347.624C130.659 349.303 129.117 350.518 128.786 350.476C128.455 350.435 129.335 349.138 130.811 347.652C132.289 346.166 134.361 344.491 136.407 343.505C138.453 342.518 140.471 342.216 141.023 343.019C141.577 343.82 140.667 345.722 138.913 347.877C137.161 350.032 134.57 352.441 132.487 354.555C130.404 356.668 128.832 358.488 129.057 358.644C129.282 358.801 131.308 357.292 133.646 355.442C135.986 353.593 138.641 351.401 140.595 349.568C142.554 347.732 143.811 346.256 144.607 344.88C145.402 343.504 145.736 342.228 145.492 340.921C145.246 339.615 144.425 338.274 143.745 337.011C143.064 335.748 142.522 334.561 142.457 333.577C142.391 332.592 142.798 331.806 142.515 330.913C142.232 330.019 141.26 329.016 140.949 327.408C140.639 325.8 140.991 323.592 140.432 322.023C139.876 320.454 138.411 319.525 136.917 319.859C135.42 320.192 133.894 321.791 132.039 324.114C130.184 326.437 128.002 329.49 126.264 334.06C124.526 338.63 123.234 344.719 122.241 349.45C121.248 354.184 120.558 357.559 120.841 359.969C121.124 362.38 122.379 363.824 124.446 363.988C126.51 364.151 129.384 363.035 132.011 362.732C134.639 362.428 137.016 362.936 139.604 363.877C142.193 364.818 144.988 366.187 145.807 366.704C146.623 367.219 145.457 366.883 143.706 366.295C141.954 365.706 139.616 364.866 138.126 364.597C136.637 364.328 135.988 364.627 134.926 364.806C133.864 364.986 132.386 365.046 130.591 365.266C128.797 365.487 126.692 365.871 125.866 366.265C125.043 366.658 125.503 367.061 126.689 367.44C127.876 367.82 129.788 368.176 131.928 368.498C134.069 368.82 136.439 369.11 138.526 369.878C140.614 370.644 142.418 371.891 143.522 372.093C144.628 372.296 145.034 371.456 145.46 371.166C145.887 370.874 146.336 371.132 146.726 370.594C147.117 370.058 147.446 368.726 147.839 367.53C148.23 366.334 148.68 365.273 149.058 363.721C149.435 362.168 149.738 360.126 149.929 360.091C150.117 360.057 150.198 362.028 149.949 362.725C149.703 363.422 149.133 362.84 147.913 362.559C146.694 362.279 144.83 362.297 144.048 361.945C143.269 361.591 143.565 360.866 143.071 360.146C142.577 359.426 141.285 358.709 141.078 358.331C140.871 357.956 141.747 357.92 143.29 358.078C144.832 358.237 147.039 358.587 148.455 358.338C149.874 358.09 150.497 357.241 150.517 356.39C150.538 355.539 149.956 354.683 149.106 354.032C148.257 353.379 147.143 352.931 145.933 352.098C144.726 351.265 143.425 350.051 142.6 349.947C141.772 349.844 141.418 350.849 141.756 351.169C142.092 351.486 143.119 351.116 143.644 351.178C144.165 351.24 144.186 351.732 143.593 352.661C143 353.591 141.793 354.957 140.545 355.967C139.294 356.977 138.004 357.632 136.478 357.858C134.952 358.083 133.186 357.878 131.22 358.78C129.255 359.682 127.085 361.69 127.223 361.683C127.358 361.678 129.802 359.659 132.531 357.246C135.26 354.831 138.273 352.022 140.508 350.285C142.742 348.549 144.198 347.889 145.51 347.808C146.823 347.728 147.995 348.231 149.244 349.25C150.492 350.269 151.814 351.81 152.736 353.611C153.658 355.412 154.179 357.478 154.14 359.263C154.101 361.048 153.504 362.555 153.255 363.909C153.009 365.264 153.11 366.467 152.529 368.383C151.947 370.299 150.681 372.931 148.899 374.318C147.117 375.707 144.818 375.852 142.844 375.822C140.867 375.79 139.214 375.583 136.496 374.182C133.781 372.781 130.002 370.187 127.634 368.581C125.266 366.973 124.31 366.354 124.218 366.796C124.126 367.238 124.898 368.744 126.328 370.883C127.756 373.023 129.843 375.792 130.722 376.498C131.597 377.204 131.271 375.845 130.324 374.099C129.377 372.353 127.809 370.221 126.425 368.464C125.039 366.709 123.832 365.329 122.501 364.257C121.17 363.185 119.714 362.419 119.101 361.51C118.489 360.602 118.721 359.548 119.259 359.967C119.797 360.385 120.641 362.272 119.698 364.149C118.758 366.025 116.036 367.889 113.965 369.618C111.896 371.348 110.478 372.94 109.707 374.288C108.94 375.636 108.818 376.737 108.314 377.115C107.806 377.492 106.914 377.142 106.34 376.48C105.763 375.817 105.507 374.84 105.889 374.083C106.271 373.326 107.291 372.793 108.533 372.303C109.774 371.813 111.238 371.371 112.855 370.649C114.471 369.927 116.241 368.921 117.239 368.498C118.236 368.075 118.462 368.229 118.335 369.168C118.209 370.106 117.728 371.827 117.006 372.981C116.285 374.136 115.321 374.722 114.314 374.927C113.307 375.132 112.257 374.955 111.425 375.399C110.593 375.845 109.976 376.912 109.901 377.766C109.825 378.619 110.289 379.258 110.967 379.753C111.645 380.247 112.537 380.597 113.326 381.14C114.117 381.685 114.804 382.426 115.636 382.667C116.468 382.909 117.448 382.649 118.358 382.833C119.271 383.017 120.119 383.64 120.862 383.748C121.606 383.856 122.248 383.447 123.073 383.468C123.896 383.488 124.901 383.944 125.016 384.05C125.131 384.155 124.351 383.912 123.765 382.92C123.177 381.929 122.779 380.188 122.257 377.409C121.735 374.63 121.089 370.814 121.678 371.148C122.266 371.482 124.092 375.965 125.078 379.355C126.062 382.745 126.209 385.046 125.361 386.419C124.51 387.792 122.664 388.241 119.756 387.534C116.848 386.826 112.878 384.963 110.252 383.042C107.625 381.122 106.34 379.141 105.206 377.595C104.073 376.05 103.1 374.936 102.275 373.568C101.452 372.201 100.785 370.582 101.716 369.858C102.648 369.135 105.176 369.308 107.772 369.013C110.367 368.717 113.022 367.953 114.997 367.215C116.97 366.476 118.257 365.768 118.317 365.216C118.379 364.664 117.209 364.273 114.285 363.127C111.358 361.982 106.675 360.082 103.645 358.421C100.618 356.758 99.2429 355.332 99.0727 354.488C98.9026 353.644 99.9349 353.384 101.795 353.968C103.657 354.552 106.346 355.981 108.772 357.669C111.197 359.355 113.36 361.301 113.298 361.823C113.236 362.348 110.953 361.45 108.294 360.13C105.634 358.81 102.604 357.064 100.53 355.967C98.4567 354.87 97.3417 354.421 95.9233 353.929C94.5049 353.437 92.783 352.901 91.9669 353.126C91.1554 353.352 91.2496 354.334 91.7485 355.166C92.2473 355.997 93.1508 356.675 94.7256 356.915C96.3003 357.154 98.5394 356.954 98.9509 356.965C99.3624 356.977 97.9463 357.197 96.5486 357.253C95.1531 357.308 93.7761 357.197 93.2451 357.632C92.7117 358.065 93.0267 359.04 93.4956 359.79C93.9646 360.54 94.5876 361.064 95.8037 361.289C97.0198 361.515 98.8291 361.444 100.682 361.177C102.537 360.91 104.438 360.45 104.057 360.521C103.675 360.59 101.013 361.191 99.1877 361.538C97.3647 361.885 96.3808 361.979 96.1371 362.757C95.8957 363.534 96.3899 364.997 97.9555 365.731C99.521 366.465 102.153 366.469 104.866 366.389C107.579 366.308 110.37 366.141 112.625 365.611C114.88 365.082 116.599 364.19 116.551 364.356C116.503 364.521 114.687 365.747 113.071 366.499C111.455 367.249 110.038 367.525 108.048 367.769C106.054 368.013 103.484 368.227 101.333 367.9C99.1808 367.574 97.4452 366.711 95.4773 364.813C93.5095 362.916 91.3071 359.985 88.9714 357.772C86.6358 355.56 84.1622 354.067 81.5644 352.222C78.9667 350.377 76.2471 348.181 75.4356 346.428C74.6264 344.678 75.7252 343.371 78.0793 343.277C80.4357 343.182 84.0449 344.3 88.8634 346.166C93.6819 348.031 99.7119 350.644 104.558 353.142C109.402 355.638 113.061 358.016 115.719 359.969C118.374 361.922 120.025 363.447 121.632 365.724C123.236 368.001 124.795 371.031 126.354 374.06L138.756 318.52ZM133.972 235.962C133.735 234.157 133.499 232.351 132.995 230.897C132.494 229.444 131.724 228.344 131.02 227.054C130.317 225.763 129.678 224.28 129.625 223.311C129.572 222.343 130.105 221.885 130.386 222.048C130.666 222.212 130.699 222.994 130.209 224.172C129.719 225.352 128.71 226.927 127.115 228.369C125.519 229.812 123.34 231.116 122.227 232.291C121.115 233.467 121.071 234.513 121.875 236.137C122.68 237.763 124.335 239.967 124.859 240.411C125.386 240.855 124.779 239.534 124.089 238.258C123.4 236.981 122.627 235.744 122.521 234.706C122.413 233.669 122.972 232.827 123.503 232.73C124.034 232.632 124.54 233.276 125.77 234.849C127 236.422 128.956 238.925 129.303 239.527C129.653 240.13 128.395 238.833 127.133 237.303C125.869 235.774 124.597 234.009 124.259 232.972C123.921 231.935 124.517 231.619 124.967 231.24C125.416 230.86 125.715 230.412 126.356 230.488C126.997 230.564 127.977 231.162 128.802 232.188C129.625 233.213 130.292 234.665 130.004 234.43C129.722 234.196 128.485 232.273 128.039 231.291C127.595 230.308 127.94 230.265 128.349 229.828C128.756 229.393 129.225 228.563 130.154 228.931C131.08 229.299 132.466 230.867 133.273 233.519C134.08 236.172 134.308 239.909 134.377 240.544C134.446 241.179 134.354 238.713 134.181 237.209C134.009 235.705 133.758 235.164 133.25 234.982C132.745 234.801 131.981 234.975 131.547 236.036C131.112 237.096 131 239.044 131.085 241.172C131.17 243.3 131.45 245.609 131.186 247.493C130.922 249.377 130.115 250.837 130.207 251.196C130.301 251.555 131.296 250.812 132.285 249.218C133.271 247.624 134.246 245.179 134.97 241.887C135.694 238.596 136.165 234.46 135.938 230.902C135.708 227.343 134.779 224.365 133.945 222.354C133.11 220.344 132.372 219.3 131.391 218.975C130.407 218.653 129.177 219.049 128.31 219.868C127.443 220.684 126.942 221.924 126.303 223.311C125.662 224.701 124.882 226.239 123.933 227.465C122.981 228.691 121.859 229.607 121.036 230.423C120.213 231.24 119.691 231.955 119.542 232.905C119.39 233.853 119.611 235.033 120.551 236.737C121.487 238.439 123.142 240.664 124.496 242.612C125.848 244.558 126.901 246.228 127.866 247.61C128.834 248.993 129.717 250.088 130.023 250.184C130.331 250.281 130.062 249.379 129.494 248.169C128.924 246.959 128.053 245.444 126.85 243.585C125.648 241.726 124.11 239.525 122.636 238.207C121.165 236.889 119.756 236.452 118.395 236.448C117.032 236.445 115.714 236.873 114.556 237.572C113.397 238.272 112.393 239.24 111.618 241.285C110.845 243.332 110.303 246.456 110.347 248.629C110.39 250.803 111.018 252.024 112.029 253.071C113.043 254.117 114.439 254.992 116.372 255.159C118.305 255.33 120.777 254.796 122.903 254.262C125.025 253.729 126.8 253.193 127.947 252.829C129.092 252.464 129.604 252.27 129.181 252.185C128.756 252.1 127.395 252.126 125.673 252.151C123.949 252.176 121.864 252.201 119.917 252.105C117.972 252.008 116.165 251.79 115.262 252.029C114.358 252.268 114.356 252.963 114.593 253.404C114.829 253.846 115.298 254.028 115.096 253.646C114.891 253.262 114.013 252.312 113.528 251.27C113.041 250.228 112.947 249.096 113.903 248.71C114.857 248.323 116.864 248.684 118.737 248.903C120.611 249.121 122.354 249.197 123.986 249.421C125.618 249.644 127.14 250.019 127.659 249.881C128.181 249.74 127.701 249.087 126.848 248.02C125.993 246.952 124.765 245.469 123.349 244.588C121.933 243.705 120.328 243.422 119.303 243.504C118.278 243.59 117.829 244.043 118.045 244.714C118.262 245.386 119.137 246.281 119.917 246.946C120.696 247.61 121.381 248.047 121.342 247.831C121.305 247.615 120.544 246.748 119.698 246.23C118.852 245.713 117.917 245.547 116.758 245.536C115.597 245.524 114.213 245.667 113.445 246.044C112.678 246.423 112.528 247.038 112.712 247.624C112.894 248.211 113.411 248.772 113.473 248.537C113.535 248.303 113.149 247.274 112.937 246.368C112.728 245.462 112.696 244.682 112.829 244.008C112.96 243.337 113.257 242.773 114.094 242.679C114.931 242.584 116.305 242.959 117.018 243.353C117.731 243.746 117.777 244.153 117.186 243.905C116.597 243.654 115.372 242.748 114.82 241.973C114.266 241.197 114.386 240.553 114.79 240.162C115.195 239.769 115.887 239.626 116.556 239.686C117.225 239.746 117.873 240.011 118.505 240.609C119.137 241.207 119.756 242.138 119.429 241.993C119.105 241.846 117.841 240.622 117.487 239.824C117.137 239.026 117.703 238.656 118.425 238.612C119.147 238.568 120.027 238.854 120.698 239.348C121.372 239.843 121.834 240.549 122.418 241.439C123.004 242.329 123.715 243.403 124.882 244.859C126.05 246.315 127.673 248.153 128.356 249.72C129.036 251.286 128.779 252.583 129.781 252.475C130.784 252.367 133.048 250.858 134.234 250.361C135.42 249.864 135.529 250.382 135.069 250.879C134.611 251.376 133.586 251.852 132.588 252.268C131.591 252.684 130.62 253.043 129.549 253.462C128.478 253.881 127.31 254.364 126.446 254.847C125.581 255.33 125.02 255.817 124.278 256.427C123.533 257.036 122.606 257.77 121.894 258.088C121.181 258.405 120.687 258.311 120.696 257.86C120.708 257.409 121.225 256.606 122.138 255.875C123.052 255.143 124.358 254.481 125.554 253.97C126.749 253.46 127.836 253.096 128.726 252.901C129.616 252.705 130.312 252.678 130.657 252.967C131.002 253.257 130.997 253.867 130.6 254.479C130.204 255.088 129.416 255.7 128.526 256.287C127.636 256.873 126.646 257.434 125.756 258.051C124.869 258.667 124.082 259.337 123.429 259.999C122.774 260.664 122.252 261.322 121.728 262.053C121.204 262.785 120.689 263.587 120.372 264.383C120.055 265.179 119.942 265.966 120.252 266.504C120.565 267.042 121.301 267.332 122.57 267.18C123.839 267.028 125.641 266.435 127.63 265.789C129.62 265.145 131.795 264.448 133.6 263.245C135.407 262.042 136.846 260.33 137.289 259.067C137.733 257.802 137.177 256.983 136.411 256.333C135.648 255.682 134.671 255.199 134.03 254.656C133.391 254.113 133.083 253.51 132.903 253.358C132.724 253.207 132.669 253.503 132.878 254.122C133.087 254.741 133.558 255.679 134.108 256.337C134.657 256.995 135.278 257.377 135.593 257.959C135.908 258.541 135.908 259.323 135.717 259.955C135.524 260.586 135.138 261.066 134.303 261.416C133.466 261.766 132.181 261.984 131.082 262.52C129.984 263.056 129.071 263.909 129.517 263.909C129.963 263.909 131.761 263.056 132.354 262.18C132.947 261.301 132.333 260.399 132.156 259.594C131.979 258.789 132.241 258.083 132.549 257.522C132.862 256.96 133.223 256.544 133.17 256.733C133.122 256.924 132.66 257.722 132.351 258.37C132.043 259.019 131.892 259.518 131.588 259.937C131.287 260.356 130.837 260.691 130.464 260.809C130.092 260.926 129.797 260.82 129.623 260.436C129.448 260.052 129.393 259.387 129.579 258.612C129.763 257.837 130.193 256.949 130.6 256.266C131.007 255.583 131.395 255.104 131.425 255.146C131.455 255.187 131.131 255.751 130.678 256.408C130.227 257.064 129.648 257.812 129.096 258.559C128.547 259.307 128.025 260.052 127.413 260.714C126.802 261.377 126.101 261.956 125.439 262.433C124.777 262.909 124.154 263.281 123.765 263.718C123.377 264.153 123.223 264.652 123.551 264.887C123.878 265.122 124.689 265.089 125.4 264.712C126.11 264.335 126.717 263.615 127.266 262.87C127.816 262.124 128.308 261.349 128.731 261.057C129.154 260.765 129.51 260.954 129.719 261.193C129.933 261.432 130.002 261.717 129.977 262.14C129.949 262.561 129.825 263.118 129.687 263.472C129.547 263.827 129.391 263.978 128.993 264.197C128.595 264.415 127.958 264.701 127.036 264.914C126.115 265.128 124.91 265.271 124.227 265.225C123.544 265.179 123.384 264.947 122.908 264.942C122.432 264.937 121.641 265.163 121.563 265.05C121.487 264.937 122.124 264.487 122.703 263.902C123.282 263.318 123.804 262.603 124.395 261.825C124.988 261.048 125.65 260.208 126.259 259.461C126.866 258.711 127.42 258.051 128.02 257.448C128.618 256.845 129.264 256.296 129.901 255.603C130.542 254.911 131.174 254.074 131.761 253.559C132.349 253.041 132.892 252.845 133.687 253.149C134.48 253.45 135.526 254.251 136.524 254.92C137.522 255.592 138.471 256.132 139.085 256.645C139.699 257.158 139.979 257.639 139.632 257.986C139.283 258.334 138.306 258.548 138.326 258.69C138.347 258.835 139.363 258.911 140.584 258.571C141.8 258.232 143.221 257.478 144.821 256.574C146.423 255.67 148.205 254.612 149.651 253.8C151.097 252.988 152.205 252.422 153.72 251.868C155.235 251.314 157.154 250.773 158.729 249.929C160.304 249.082 161.534 247.932 161.862 247.093C162.191 246.253 161.621 245.724 160.639 245.49C159.66 245.253 158.271 245.308 156.044 245.455C153.819 245.602 150.756 245.839 148.195 246.347C145.637 246.856 143.582 247.633 142.011 248.234C140.441 248.834 139.356 249.253 137.984 249.793C136.611 250.334 134.952 250.992 135.372 251.003C135.793 251.015 138.294 250.382 140.349 249.844C142.402 249.306 144.007 248.864 144.922 248.914C145.837 248.965 146.062 249.508 145.575 250.048C145.09 250.589 143.894 251.132 142.572 251.429C141.25 251.728 139.804 251.785 138.161 251.868C136.517 251.951 134.678 252.059 135.535 251.808C136.393 251.557 139.954 250.946 142.409 250.495C144.864 250.046 146.216 249.761 147.191 249.91C148.168 250.06 148.772 250.644 148.763 251.21C148.756 251.776 148.143 252.321 147.166 252.48C146.188 252.638 144.853 252.411 144.287 252.098C143.722 251.785 143.936 251.394 144.441 251.429C144.947 251.463 145.749 251.923 146.145 252.385C146.54 252.848 146.529 253.312 146.2 253.791C145.871 254.267 145.223 254.757 144.538 254.959C143.851 255.162 143.122 255.074 142.136 254.932C141.149 254.789 139.903 254.594 138.855 254.168C137.809 253.745 136.958 253.092 137.607 253.117C138.257 253.142 140.402 253.844 141.517 254.439C142.632 255.035 142.708 255.525 142.476 255.939C142.246 256.353 141.71 256.696 141.172 257.006C140.634 257.317 140.094 257.6 140.561 257.278C141.027 256.956 142.494 256.027 143.694 255.557C144.894 255.088 145.821 255.081 146.529 254.69C147.239 254.299 147.729 253.526 148.497 252.786C149.264 252.045 150.308 251.337 151.324 250.672C152.34 250.007 153.331 249.388 154.356 248.926C155.379 248.464 156.439 248.162 156.86 248.16C157.278 248.16 157.06 248.457 156.375 248.701C155.69 248.944 154.538 249.135 153.336 249.17C152.133 249.204 150.885 249.08 149.747 248.908C148.609 248.735 147.589 248.514 146.549 248.535C145.513 248.556 144.467 248.818 143.416 249.08L133.972 235.962ZM359.339 281.115C354.645 283.33 349.948 285.545 345.183 286.992C340.417 288.438 335.578 289.119 331.987 289.506C328.394 289.892 326.047 289.986 324.29 291.231C322.534 292.475 321.366 294.872 322.727 296.521C324.09 298.17 327.985 299.072 332.088 298.748C336.194 298.423 340.509 296.871 344.353 294.649C348.199 292.427 351.569 289.533 354.79 286.739C358.01 283.944 361.084 281.248 360.482 280.379C359.879 279.509 355.603 280.471 351.318 279.981C347.033 279.493 342.739 277.554 338.392 276.422C334.04 275.291 329.631 274.966 325.681 275.965C321.732 276.965 318.242 279.288 318.817 279.314C319.394 279.339 324.037 277.064 327.18 272.04C330.32 267.017 331.957 259.245 333.226 252.422C334.495 245.598 335.396 239.721 335.307 238.548C335.219 237.375 334.146 240.905 331.348 242.964C328.552 245.023 324.035 245.609 319.552 247.044C315.069 248.48 310.619 250.768 307.129 253.706C303.637 256.643 301.106 260.234 299.786 265.4C298.467 270.566 298.363 277.312 299.6 280.381C300.837 283.449 303.414 282.837 306.391 279.672C309.371 276.507 312.752 270.789 316.097 265.713C319.444 260.636 322.752 256.206 325.762 252.353C328.769 248.5 331.477 245.23 333.166 242.851C334.856 240.473 335.525 238.985 336.196 237.499L359.339 281.115ZM265.853 299.134C266.526 295.074 267.2 291.012 266.795 286.66C266.391 282.308 264.908 277.662 262.648 274.497C260.39 271.332 257.356 269.651 254.321 267.969L265.853 299.134ZM235.804 328.549C232.912 329.908 230.02 331.27 225.801 331.532C221.581 331.797 216.036 330.962 211.859 329.913C207.681 328.862 204.875 327.597 202.373 326.883C199.872 326.173 197.677 326.016 198.399 324.825C199.12 323.633 202.76 321.404 206.178 319.297C209.596 317.191 212.796 315.205 215.649 313.538C218.502 311.87 221.008 310.518 224.401 309.966C227.792 309.414 232.073 309.66 234.776 310.814C237.482 311.967 238.615 314.025 239.618 315.486C240.62 316.947 241.489 317.807 239.749 318.481C238.008 319.155 233.654 319.643 229.592 320.328C225.528 321.011 221.751 321.892 217.631 322.26C213.511 322.628 209.047 322.481 205.898 322.927C202.75 323.373 200.92 324.413 199.093 325.45L235.804 328.549ZM214.764 304.862C215.831 305.057 216.9 305.253 218.215 305.669C219.528 306.085 221.084 306.722 222.518 307.274C223.951 307.827 225.261 308.296 226.498 307.994C227.735 307.691 228.9 306.617 229.362 304.586C229.827 302.555 229.588 299.564 229.937 296.553C230.289 293.542 231.229 290.506 232.142 288.086C233.054 285.667 233.939 283.859 234.808 282.145C235.677 280.429 236.53 278.808 235.075 277.292C233.62 275.776 229.859 274.368 226.719 273.501C223.578 272.634 221.059 272.31 219.631 272.48C218.201 272.65 217.868 273.312 217.399 274.704C216.93 276.098 216.325 278.219 216.105 279.695C215.884 281.172 216.047 282.002 216.728 281.747C217.408 281.492 218.608 280.151 218.741 277.496C218.877 274.842 217.944 270.87 216.645 267.702C215.346 264.535 213.677 262.173 211.659 260.604C209.64 259.038 207.27 258.265 205.881 257.421C204.491 256.576 204.079 255.663 202.123 255.389C200.164 255.118 196.663 255.486 193.527 255.923C190.389 256.36 187.617 256.864 185.697 257.878C183.778 258.893 182.709 260.415 181.994 261.641C181.276 262.867 180.906 263.797 179.437 264.379C177.966 264.963 175.394 265.202 173.026 266.605C170.658 268.008 168.492 270.573 167.157 272.519C165.821 274.465 165.32 275.79 164.966 276.96C164.614 278.129 164.409 279.141 164.423 280.337C164.435 281.531 164.662 282.911 164.775 284.222C164.888 285.533 164.881 286.78 164.936 287.767C164.989 288.753 165.104 289.485 165.044 290.115C164.984 290.745 164.75 291.277 164.885 292.597C165.021 293.917 165.529 296.027 166.4 297.706C167.274 299.385 168.513 300.634 169.656 301.352C170.798 302.069 171.842 302.255 172.596 302.566C173.35 302.877 173.814 303.309 174.242 303.843C174.672 304.376 175.067 305.007 175.587 305.515C176.109 306.023 176.752 306.407 177.63 306.676C178.509 306.946 179.619 307.097 180.748 307.327C181.874 307.555 183.019 307.859 184.047 308.052C185.074 308.247 185.987 308.333 187.056 308.445C188.127 308.556 189.352 308.694 190.408 308.73C191.461 308.767 192.341 308.705 193.228 308.698C194.116 308.694 195.012 308.747 195.932 308.806C196.851 308.868 197.799 308.937 198.759 309C199.723 309.062 200.7 309.115 201.415 308.885C202.13 308.655 202.578 308.142 203.12 307.686C203.661 307.231 204.293 306.835 204.891 306.621C205.486 306.407 206.052 306.377 205.307 306.042C204.56 305.706 202.507 305.069 200.182 304.977C197.863 304.885 195.27 305.34 192.723 305.464C190.175 305.588 187.672 305.379 185.21 304.673C182.75 303.967 180.329 302.764 178.472 301.013C176.612 299.263 175.309 296.967 174.777 294.725C174.246 292.482 174.486 290.292 174.479 288.475C174.467 286.658 174.207 285.211 173.672 284.339C173.136 283.468 172.325 283.164 170.837 284.027C169.347 284.887 167.184 286.911 166.078 288.533C164.975 290.154 164.927 291.373 164.382 290.962C163.835 290.55 162.789 288.507 162.338 286.124C161.885 283.741 162.03 281.02 162.522 279.594C163.014 278.168 163.86 278.037 163.685 277.814C163.511 277.591 162.322 277.271 161.343 277.26C160.366 277.248 159.602 277.545 158.734 278.844C157.865 280.144 156.894 282.449 156.655 284.928C156.414 287.41 156.901 290.067 157.085 292.109C157.269 294.152 157.147 295.578 156.671 296.705C156.196 297.832 155.363 298.66 155.244 299.215C155.127 299.771 155.722 300.054 156.425 300.514C157.129 300.974 157.938 301.607 158.931 302.481C159.922 303.355 161.097 304.473 162.354 305.506C163.612 306.538 164.952 307.491 166.301 308.208C167.651 308.926 169.01 309.414 170.575 309.858C172.141 310.302 173.915 310.709 175.456 311.021C176.998 311.334 178.306 311.555 179.41 311.691C180.513 311.827 181.407 311.882 182.453 311.776C183.499 311.67 184.695 311.41 185.55 311.049C186.405 310.688 186.92 310.223 187.116 309.772C187.311 309.322 187.182 308.88 187.116 308.661C187.049 308.443 187.051 308.441 187.61 308.489C188.169 308.537 189.286 308.632 189.527 309.715C189.769 310.798 189.141 312.871 189.256 314.69C189.371 316.507 190.228 318.071 191.104 318.63C191.982 319.189 192.881 318.745 193.649 318.923C194.421 319.1 195.065 319.898 195.686 319.983C196.309 320.068 196.909 319.44 197.484 318.679C198.058 317.917 198.61 317.023 199.001 316.351C199.394 315.679 199.626 315.233 200.491 315.178C201.353 315.123 202.845 315.461 204.629 315.217C206.412 314.973 208.491 314.152 210.102 313.352C211.716 312.553 212.861 311.776 213.567 309.853C214.268 307.93 214.53 304.859 215.247 303.385C215.964 301.91 217.144 302.03 218.38 301.561C219.617 301.092 220.916 300.034 221.856 298.552C222.801 297.069 223.387 295.164 222.725 292.362C222.063 289.563 220.151 285.871 218.222 284.944C216.293 284.015 214.344 285.851 213.176 287.799C212.006 289.745 211.617 291.804 211.098 293.759C210.576 295.716 209.923 297.572 208.98 299.136C208.038 300.701 206.806 301.975 205.658 302.918C204.509 303.861 203.447 304.471 202.366 304.466C201.288 304.461 200.196 303.845 198.985 303.7C197.773 303.555 196.444 303.882 195.132 304.243C193.821 304.604 192.525 304.997 191.913 304.804C191.302 304.611 191.369 303.831 193.286 301.181C195.203 298.532 198.969 294.014 201.497 289.966C204.024 285.915 205.316 282.336 205.73 280.245C206.144 278.154 205.681 277.556 205.233 277.862C204.785 278.168 204.348 279.378 204.734 278.108C205.121 276.839 206.327 273.092 207.371 271.228C208.415 269.365 209.293 269.384 209.971 270C210.649 270.617 211.125 271.831 210.98 273.124C210.836 274.417 210.065 275.794 209.408 276.845C208.748 277.897 208.199 278.626 207.955 279.387C207.714 280.151 207.776 280.947 207.583 281.892C207.39 282.837 206.937 283.932 206.475 285.257C206.012 286.584 205.544 288.142 205.208 289.303C204.872 290.465 204.67 291.226 204.07 292.188C203.47 293.149 202.47 294.306 201.537 295.307C200.603 296.307 199.737 297.151 199.063 297.878C198.389 298.607 197.904 299.219 197.513 299.891C197.12 300.563 196.822 301.292 196.311 302.019C195.803 302.748 195.086 303.475 194.371 304.204L214.764 304.862ZM211.918 290.695C211.796 289.623 211.675 288.553 211.224 287.403C210.773 286.253 209.999 285.02 209.364 283.879C208.73 282.739 208.235 281.685 207.744 280.634L211.918 290.695ZM207.431 314.488C206.578 316.119 205.723 317.749 204.686 319.675C203.649 321.6 202.431 323.82 200.01 325.621C197.589 327.422 193.966 328.802 191.254 329.464C188.539 330.127 186.732 330.071 185.352 330.548C183.973 331.024 183.026 332.034 181.805 332.038C180.587 332.043 179.095 331.04 177.814 329.915C176.534 328.79 175.458 327.541 174.318 326.325C173.177 325.108 171.971 323.925 170.713 323.141C169.456 322.357 168.145 321.97 167.924 321.105C167.704 320.243 168.57 318.9 169.554 317.915C170.536 316.931 171.633 316.305 172.283 315.36C172.934 314.414 173.136 313.156 173.456 312.211C173.773 311.265 174.207 310.635 174.559 310.49C174.911 310.343 175.182 310.679 175.451 311.015L207.431 314.488ZM202.688 274.601C202.369 275.711 202.049 276.822 201.78 277.825C201.511 278.828 201.293 279.725 200.948 280.661C200.603 281.598 200.137 282.575 199.311 283.709C198.486 284.843 197.304 286.134 196.228 287.268C195.157 288.402 194.189 289.377 192.75 290.442C191.311 291.507 189.401 292.664 189.15 293.184C188.9 293.703 190.316 293.591 191.428 293.122C192.541 292.652 193.355 291.829 194.504 290.532C195.651 289.234 197.134 287.463 197.769 284.809C198.399 282.154 198.18 278.619 197.78 276.392C197.382 274.168 196.803 273.253 196.077 272.494C195.348 271.737 194.472 271.134 193.378 270.766C192.284 270.396 190.975 270.26 190.012 269.991C189.051 269.722 188.44 269.322 187.079 269.085C185.72 268.848 183.612 268.774 181.727 269.191C179.842 269.607 178.18 270.513 177.106 271.481C176.033 272.45 175.548 273.476 175.113 274.479C174.676 275.481 174.295 276.459 174.221 277.821C174.152 279.182 174.394 280.926 175.035 282.72C175.676 284.514 176.713 286.361 178.051 288.411C179.389 290.46 181.026 292.712 182.513 293.922C184.001 295.13 185.343 295.295 185.194 294.605C185.049 293.913 183.41 292.362 182.056 290.716C180.702 289.066 179.63 287.32 178.987 285.692C178.348 284.063 178.136 282.552 178.251 280.652C178.366 278.752 178.805 276.464 179.798 274.582C180.791 272.701 182.341 271.228 183.911 270.513C185.481 269.795 187.074 269.835 188.086 269.871C189.097 269.908 189.527 269.943 190.748 269.524C191.969 269.105 193.98 268.231 195.631 268.015C197.281 267.799 198.573 268.234 199.608 269.149C200.64 270.067 201.417 271.463 201.966 272.993C202.516 274.522 202.842 276.183 202.819 278.14C202.796 280.098 202.424 282.354 202.247 284.206C202.068 286.058 202.086 287.504 201.578 288.399C201.07 289.294 200.033 289.637 198.302 290.451C196.569 291.265 194.143 292.551 191.725 293.48C189.306 294.41 186.902 294.982 184.985 295.084C183.067 295.185 181.642 294.814 180.417 294.345C179.189 293.876 178.164 293.308 177.313 292.549C176.46 291.79 175.784 290.842 175.332 290.653C174.879 290.465 174.651 291.038 174.881 291.753C175.111 292.468 175.798 293.324 176.598 293.795C177.398 294.267 178.311 294.354 179.269 295.12C180.228 295.886 181.235 297.335 182.258 298.817C183.281 300.298 184.32 301.812 185.545 302.92C186.773 304.029 188.182 304.73 189.594 305.434L202.688 274.601ZM199.608 269.149C199.98 268.31 200.35 267.47 200.072 266.658C199.794 265.846 198.868 265.064 197.668 264.726C196.467 264.388 194.989 264.5 193.704 264.247C192.419 263.994 191.327 263.376 189.959 262.913C188.591 262.451 186.95 262.147 185.405 262.232C183.863 262.318 182.412 262.791 181.43 263.212C180.449 263.633 179.934 264.001 179.421 264.372L199.608 269.149ZM184.959 294.12C185.106 293.204 185.254 292.289 185.074 291.484C184.893 290.676 184.382 289.977 183.762 289.478C183.141 288.979 182.412 288.678 181.824 288.517C181.233 288.358 180.782 288.339 181.173 288.126C181.564 287.912 182.796 287.5 184.051 286.957C185.309 286.414 186.587 285.738 187.909 284.979C189.231 284.22 190.594 283.378 191.302 282.55C192.01 281.722 192.063 280.91 191.665 280.484C191.267 280.059 190.421 280.024 189.672 280.298C188.923 280.572 188.27 281.161 188.129 281.043C187.989 280.926 188.362 280.107 188.962 279.532C189.562 278.957 190.394 278.628 191.192 278.607C191.989 278.584 192.75 278.87 193.244 279.412C193.741 279.953 193.971 280.751 194.058 281.556C194.146 282.361 194.093 283.176 193.801 284.045C193.509 284.914 192.973 285.844 192.757 286.92C192.541 287.997 192.647 289.223 192.787 289.299C192.927 289.375 193.104 288.298 193.773 287.675C194.442 287.051 195.601 286.881 196.159 286.002C196.718 285.124 196.677 283.539 196.286 282.083C195.895 280.627 195.153 279.295 194.394 278.387C193.635 277.48 192.856 276.995 191.969 276.71C191.083 276.425 190.086 276.337 189.249 276.65C188.408 276.963 187.727 277.674 187.293 278.469C186.858 279.265 186.672 280.144 187.035 280.917C187.398 281.69 188.309 282.357 188.231 282.538C188.157 282.72 187.095 282.419 186.391 281.835C185.688 281.25 185.341 280.385 185.362 279.59C185.382 278.794 185.766 278.065 186.391 277.361C187.017 276.657 187.881 275.981 188.994 275.47C190.106 274.959 191.47 274.617 192.564 274.612C193.661 274.607 194.488 274.943 195.376 275.999C196.263 277.055 197.21 278.833 198.157 280.611L184.959 294.12ZM189.906 275.109C188.408 275.353 186.909 275.596 185.683 276.597C184.456 277.598 183.506 279.353 183.922 280.875C184.339 282.398 186.125 283.688 187.401 283.843C188.677 283.997 189.447 283.015 189.447 283.015C189.447 283.015 188.677 283.997 187.844 284.45C187.014 284.903 186.122 284.827 185.311 284.39C184.499 283.953 183.773 283.153 183.394 282.347C183.014 281.54 182.985 280.728 183.141 281.126C183.299 281.524 183.64 283.136 183.706 284.358C183.773 285.579 183.562 286.412 183.352 287.245L189.906 275.109ZM211.461 241.676C207.419 240.031 203.376 238.384 198.394 239.587C193.415 240.788 187.495 244.839 182.421 246.743C177.348 248.648 173.122 248.413 172.368 249.821C171.614 251.231 174.329 254.285 176.773 256.169C179.217 258.053 181.387 258.766 183.557 259.477L211.461 241.676ZM220.96 252.967C215.93 254.449 210.895 255.928 205.507 255.24C200.118 254.552 194.371 251.7 188.787 250.435C183.205 249.17 177.787 249.494 172.366 249.818L220.96 252.967Z" stroke="#A78682" stroke-width="3" stroke-linecap="round" stroke-linejoin="round"/>
</svg>
