<?xml version="1.0" encoding="utf-8"?>
<!-- Generator: Adobe Illustrator 26.3.1, SVG Export Plug-In . SVG Version: 6.00 Build 0)  -->
<svg version="1.1" id="Layer_1" xmlns="http://www.w3.org/2000/svg" xmlns:xlink="http://www.w3.org/1999/xlink" x="0px" y="0px"
	 viewBox="0 0 800 580" style="enable-background:new 0 0 800 580;" xml:space="preserve">
<style type="text/css">
	.st0{fill:#FFFFFF;}
	.st1{fill:#121212;}
	.st2{fill:#020202;}
	.st3{fill:#FAFAFA;}
	.st4{fill:#F4F4F4;}
	.st5{fill:#0D0D0D;}
	.st6{fill:#FDFDFD;}
	.st7{fill:#F9F9F9;}
</style>
<path class="st0" d="M546.1,396c-9.5,6.6-19,13.2-29,20.1c-1,0.9-1.5,1.5-2,2.1c-0.2,0.2-0.4,0.4-0.9,0.9c-0.6,0.5-0.8,0.8-1.1,1
	c0,0,0,0-0.3,0.1c-0.8,0.4-1.3,0.7-1.8,0.9c-1.7,1.5-3.4,3.1-5.7,4.9c-1.1,0.9-1.7,1.5-2.3,2c-0.9,1.8-1.8,3.6-3.1,5.9
	c-2.5,3.3-1.3,5.3,1.1,7.1c0.9,2,1.8,4.1,3,6.8c0.5,1.5,0.8,2.4,1.1,3.3c0.6,1.1,1.2,2.2,2,3.8c0.8,1.1,1.4,1.6,2,2.2
	c2.5,4.5,5,8.9,7.8,13.8c0.6,0.7,0.8,0.9,1,1.1c0,0,0,0.4,0.1,0.9c0.4,1,0.7,1.6,1,2.1c4.6,8,9.2,16.1,13.7,24.6
	c-1.3,0.8-2.6,1.1-3.8,1.4c0,0,0-0.4,0-0.8c0-0.7,0-1.1,0-1.4c-0.3-0.7-0.5-1.4-0.9-2.7c-1.1-2.1-2.1-3.6-3.1-5.1
	c-0.9-1.5-1.9-2.9-3-5c-1.8-3.1-3.4-5.7-5-8.2c0,0,0.1-0.3-0.1-0.6c-0.7-0.6-1.2-0.8-1.7-1.1c-1.5,0.1-3.2-0.4-4.3,0.3
	c-8.3,4.8-16.1,2.2-23.9-1.2c-19.7-8.5-39.6-16.4-60.9-20.2c-27.2-4.9-52.4,0.3-76.4,13.8c-13.7,7.7-25,18-36.4,29.3
	c-0.7,0.7-0.9,1-1.2,1.3c-1,2.3-2,4.6-3.2,7.4c-0.8,1.5-1.4,2.5-2.1,3.4c-0.6-2.1-1.1-4.2-1.9-6.8c-0.5-0.8-0.8-1.1-1.1-1.3
	c-0.5-0.7-1-1.5-1.8-2.7c-0.5-0.8-0.8-1.1-1-1.4c-2.2-3.7-4.4-7.3-7-11.5c-0.6-0.8-0.8-1.1-1-1.4c-0.5-0.8-1.1-1.6-1.9-2.8
	c-0.6-0.7-0.8-0.9-1-1.1c0,0,0,0-0.1-0.2c-0.4-0.4-0.6-0.6-0.8-0.8c-0.9-1.4-1.9-2.8-3.1-4.7c-0.5-0.8-0.7-1.2-1-1.5
	c-0.2-0.2-0.4-0.3-0.9-0.8c-0.6-0.5-0.8-0.8-1.1-1c0,0,0,0-0.2-0.2c-0.4-0.4-0.6-0.6-0.8-0.8c-1.9-3.4-3.8-6.9-5.9-11
	c-1.2-2.5-2.1-4.2-3.1-6c-0.3-1.8-0.6-3.5-0.9-5.8c0-0.7,0-1,0-1.2c0-0.4,0-0.9,0.1-1.8c0-1,0-1.6-0.1-2.2c0-0.4,0-0.9,0-1.8
	c0-0.7,0-1,0-1.2c0.3-2.1,0.6-4.2,1.2-6.9c0.4-2.5,0.6-4.4,0.7-6.3c0-1,0.1-2.1,0.3-3.6c0.4-1.4,0.6-2.2,0.9-3.1
	c0.2-12.3,1-24.6,0.5-36.8c-0.4-8.8-4.7-12.3-13.4-13.5c-5.2-0.4-9.8-0.6-14.3-0.8c-0.4,0-0.7,0-1.8-0.1c-2.6-0.4-4.5-0.6-6.3-0.8
	c-11.2,0.2-22.3-0.5-32.2-6.6c-13.1-8.1-16.1-18.3-9.6-32.2c2.2-4.7,2.2-8.9-0.6-13.6c-1.6-2.7-1.1-6.5-1.4-10.4
	c0.5-0.8,0.7-1,0.9-1.2c0,0,0,0,0.2-0.2c0.4-0.4,0.7-0.6,0.9-0.8c0.2-0.2,0.4-0.4,0.9-0.9c0.6-0.6,0.8-0.8,1-1.1
	c0.2-0.2,0.4-0.4,1-0.9c0.6-0.6,0.8-0.8,1-1.1c-0.3-1.1-0.5-2.2-1-3.9c-0.5-1-0.8-1.6-1-2.1c0,0,0,0-0.1-0.3
	c-0.4-0.8-0.6-1.3-0.9-1.8c-1.6-5.7-0.2-10.8,2.8-15.7c4.2-6.9,4.1-7-2.2-11.7c-0.9-0.7-1.8-1.5-2.7-2.2
	c-11.2-8.6-11.5-20.7-0.6-29.9c7-5.9,14.1-11.6,21.2-17.4c3.2-2.6,5.8-5,0.9-8.7c-2.2-1.6-3.8-4.3-4.9-6.8c-0.7-1.5,0.1-3.6,0.2-5.4
	c1.6,0.4,3.4,0.5,4.9,1.3c2,1.1,3.7,2.9,5.7,3.9c4,1.9,6,0.9,6.8-3.4c0.4-2.1,0.1-4.3-0.1-6.4c-0.5-3.5-1.5-6.9-1.7-10.3
	c-0.7-9.1,0.5-17,6.6-25.1c11.2-14.6,20.5-30.7,30.6-46.1c10.8-16.6,23.6-31.1,42.8-38.3c6.8-2.5,14.1-4,21.2-5.7
	c4.2-1,8.5-1.3,13.6-1.9c4.2,0,7.6-0.1,11-0.1c0.8,0,1.5,0,3.1,0.1c7.2,0,13.6-0.1,20.1-0.2c0.4,0,0.7,0,1.6,0.2
	c0.9,0.4,1.2,0.6,1.6,0.8c5.9,0.7,11.8,1.6,17.8,1.9c26.2,1.6,50.7,9.2,73.9,20.8c15,7.5,27.5,18.5,38.6,31
	c14.1,15.9,28.2,31.8,42.4,47.7c12,13.3,25,25.8,35.9,40c13.5,17.6,22.8,37.5,23.2,61.4c0.4,8.1,0.7,15.3,1.1,22.5
	c-1.6,9.3-2.6,18.8-4.9,28c-4.8,19.3-15.1,35.7-28.3,50.3c-4,4.4-8.3,8.6-12.9,13.3c-0.6,0.7-0.9,0.9-1.1,1.2
	c-0.8,0.6-1.5,1.1-2.7,2c-0.7,0.5-0.9,0.8-1.2,1c0,0,0,0.1-0.2,0.2c-0.4,0.4-0.6,0.6-0.8,0.8c0,0,0,0.1-0.2,0.2
	c-0.4,0.4-0.7,0.6-0.9,0.8c-1.1,0.9-2.1,1.8-3.7,3c-0.8,0.6-1.1,0.8-1.4,1c-2.1,1.5-4.2,3.1-6.8,5c-0.7,0.5-0.9,0.8-1.1,1
	c0,0,0,0-0.2,0.1C547,395.5,546.6,395.7,546.1,396 M208,302c0,0,0,0-0.4-0.3c-0.2-0.2-0.5-0.5-1.1-0.7c0,0-0.4,0-0.9,0.3
	c-0.5,0.6-1.1,1.1-1.6,1.7c0,0,0,0-0.5,0.3c-0.5,0.3-1,0.6-1.5,1.3c0,0,0,0.4-0.3,0.8c-0.2,0.3-0.4,0.6-0.9,1.2
	c-0.2,0.2-0.3,0.3-1,0.8c-0.3,0.2-0.6,0.5-0.8,1.4c0,0.7,0,1.5,0.4,2.7c0.6,0.5,1.1,1,1.7,2c0,0,0,0.4,0.3,0.8
	c0.2,0.3,0.5,0.5,1.1,1.2c0.5,0.8,1.1,1.5,1.6,3.2c0,2.4,0,4.9-0.1,8.1c-1,3.1-1.9,6.2-3.4,9.6c-0.5,0.5-1,1.1-1.4,2.3
	c-0.3,7,3.5,12,8.6,15.9c8.3,6.3,17.9,9,29.1,8.7c7.1-0.1,14.2-0.2,21.7-0.3c0,0,0.5,0,1.1,0.3c0.9,0.2,1.7,0.5,3.4,0.7
	c2.7,0.3,5.3,0.7,8.3,1.3c0.2,0.2,0.4,0.4,0.7,0.6c0,0,0,0,0.4,0.3c0.8-0.6,2.3-1.3,2.3-1.9c-0.1-6.1-0.4-12.2-0.7-19.1
	c0-2,0-4.1,0.5-6.7c0.5-3.9,1-7.8,1.5-12.5c0.7-9.6,1.5-19.2,1.9-28.8c0.1-2.5-0.3-5.5-1.6-7.6c-9.1-15.9-15.5-32.6-17.9-50.8
	c-0.9-6.9-1.6-13.8-2.3-21.3c-0.4-1.2-0.7-2.3-1.1-4.3c0-1.1,0-2.2,0.2-4c-0.4-4.7-0.8-9.4-1.3-15.1c0-4.7,0-9.4,0.5-14.6
	c1.9-2.4,1.5-4.5-1.5-6.6c-5,0.4-10.1,0.6-15,1.3c-3.7,0.5-4.4,3-3.8,6.6c0.9,5,1.6,10.2,1.3,15.2c-0.5,7.2-0.1,8.3,6.8,11.2
	c2.7,1.2,5.1,3.2,7.6,4.8c-2.9,1-5.9,1.9-9.2,2.9c-0.5,0.3-1,0.6-2,1c0,0-0.4,0.1-0.9-0.1c-0.9,0.4-1.8,0.7-3.1,1.5
	c-0.8,0.5-1.6,1-2.8,1.9c-0.3,0.3-0.5,0.6-1,1.1c-0.1,0.2-0.3,0.4-1,0.8c-0.3,0.2-0.6,0.5-1.3,1.2c-0.8,1.8-1.7,3.6-2.8,5.9
	c-0.2,0.5-0.5,1.1-0.9,2.2c-0.3,0.8-0.6,1.5-1.1,2.9c-0.2,0.8-0.5,1.6-0.8,3.2c-0.7,3.1-1.3,6.1-2.5,9.6c-0.8,1.9-1.6,3.8-2.4,6.1
	c0,0,0,0.5-0.3,1.1c-0.2,1.2-0.5,2.3-0.7,4.1c0,0.4,0,0.8-0.1,1.5c0,0.2,0,0.4-0.1,1.3c-0.3,1.2-0.6,2.3-1.1,4.2
	c-0.2,1.5-0.5,2.9-0.7,5.3c0,9.3,0,18.6,0,28.7c0,2.1,0,4.2,0,6.3c0,0,0,0-0.8,0c-0.8,0-1.6,0-2.8,0c0,0-0.3,0-0.8-0.4
	c-0.3-0.2-0.6-0.4-1.2-0.9c-0.2-0.2-0.3-0.4-0.8-1C208.4,302.6,208.2,302.3,208,302 M389.6,297.4c-0.2,0.2-0.4,0.4-0.9,1.3
	c-2.5,3.8-4.9,7.6-7.8,11.9c-0.3,0.5-0.6,1.1-1.2,1.9c-0.2,0.2-0.4,0.4-1,0.9c-0.3,0.2-0.5,0.5-0.9,1.2c-0.2,0.5-0.4,1-1.1,1.8
	c-0.3,0.3-0.5,0.5-1,1.3c-0.3,0.5-0.5,0.9-1.3,1.7c-0.8,1-1.6,1.9-2.7,3.5c-1.9,2.4-3.8,4.8-6.1,7.5c-0.5,0.6-1,1.3-1.5,2.2
	c0,0,0,0.3-0.4,0.8c-0.2,0.4-0.4,0.7-0.8,1.3c-0.2,0.2-0.3,0.3-1,0.8c-0.3,0.3-0.6,0.5-1.3,1.3c-4.5,5.4-9,10.7-13.9,16.5
	c-0.2,0.2-0.4,0.5-0.7,0.8c0,0-0.1,0-0.4,0.3c-0.2,0.2-0.5,0.4-1.2,1c-1.1,1.2-2.2,2.3-3.7,3.9c-0.2,0.3-0.4,0.6-0.9,1.2
	c-0.2,0.2-0.4,0.3-1,0.8c-0.3,0.2-0.5,0.4-0.8,0.7c0,0,0,0-0.3,0.4c-0.2,0.3-0.4,0.5-0.9,1.1c-0.2,0.2-0.3,0.4-1,0.8
	c-0.3,0.2-0.6,0.5-1.4,1.1c-1.1,1.2-2.3,2.4-3.7,3.9c-0.2,0.2-0.4,0.5-0.7,0.7c0,0,0,0,0,0.3c0,0.3,0,0.5,0.6,0.8c0,0,0.5,0,0.7,0.5
	c1.2-0.2,2.5-0.3,4.6-0.5c3.7-0.7,7.7-0.8,11.2-2.1c6.7-2.3,13.3-5.3,20.2-8.3c0.2-0.2,0.5-0.4,0.7-0.7c0,0,0,0,0.4-0.3
	c0.2-0.2,0.5-0.5,1.2-0.9c0.7-0.2,1.4-0.5,2.6-1.1c0.3-0.3,0.5-0.5,1.1-1.1c0.2-0.2,0.4-0.4,1-0.9c0.2-0.2,0.5-0.5,1.2-1
	c0.8-0.6,1.6-1.1,2.8-2c0.3-0.2,0.5-0.5,1.4-1c1.7-1.2,3.4-2.5,5.6-4.1c0.3-0.3,0.5-0.6,1.1-1.1c0.2-0.2,0.4-0.3,1-0.8
	c0.3-0.2,0.5-0.5,1.3-1.1c8.8-8.1,17.9-16,26.4-24.4c18.3-18.2,35.9-37,54.5-54.9c16.7-16.2,36-28.9,56.8-39.4
	c1.8-0.9,4.3-0.5,6.4-0.7c-0.2,2,0.2,4.3-0.7,6c-3.3,6.3-6.9,12.6-10.7,18.6c-11.2,17.2-24.1,32.9-38.6,47.5
	c-11,11.2-22.6,21.5-35.1,30.8c-22.5,16.8-47.2,29.2-73.5,38.5c-1.5,0.6-3,1.4-4.5,2.1c0.1,0.7,0.2,1.5,0.3,2.2
	c6.7,0,13.4,0,20.9,0.3c10.5-0.1,20.9-0.2,32-0.3c0.4,0,0.8,0,1.9,0.3c4.1-0.1,8.3-0.2,13.3-0.3c26.9-0.7,53.1-5.2,77.8-15.7
	c17.5-7.4,33.6-17.7,46.1-32.5c4.3-5,7.9-10.6,12.1-15.8c0.9-1.1,3-2.6,3.7-2.3c1.3,0.6,2.7,2.4,3,3.9c0.5,2,0.2,4.3-0.1,6.4
	c-1.2,8.6-3.2,16.8-7,24.8c-7.6,15.9-18.7,28.3-34,36.8c-7.4,4.1-15.4,7-23.2,10.3c-12.6,5.2-25.7,7.9-40.3,8.1
	c-3.4,0.3-6.7,0.6-10.9,1c-1,0-2.1,0-3.3,0.2c-0.1,0.1-0.2,0.2-0.2,0.3c0.1,0.2,0.2,0.4,0.8,0.5c0,0,0.4,0,0.9,0.3
	c0.5,0.2,1.1,0.5,2.3,0.8c1.4,0.3,2.8,0.6,4.5,1.3c0.3,0.2,0.5,0.4,1.4,0.7c0.4,0,0.8,0,1.6,0.3c0.2,0.2,0.5,0.5,1.4,0.8
	c1.1,0.3,2.2,0.6,3.6,1.2c0.3,0.2,0.5,0.4,1.2,0.7c0,0,0.5,0,0.4,0.8c0,1.1-0.1,2.2-0.7,3.1c-0.8-0.3-1.5-0.6-2.8-1.2
	c-0.5-0.2-1.1-0.5-2.3-0.9c-2.7-1-5.5-1.9-8.8-3.1c-0.9-0.2-1.7-0.5-3-0.7c0,0-0.4,0-0.9-0.3c-0.5-0.2-1.1-0.5-2-0.7
	c0,0-0.4,0-0.7-0.3c-0.6-0.2-1.2-0.4-2.5-0.6c-0.4,0-0.8,0-1.7-0.5c-0.9-0.5-1.9-1-3.2-1.5c0,0-0.4,0-1.2-0.3
	c-11.4,0.1-22.9,0.2-35.2,0.3c-2.6,0-5.3,0-8.8,0c-3.1,0.7-6.1,1.3-9.9,2c-0.7,0-1.4,0.1-2.7-0.1c-1.5,0.4-3.1,0.7-5.5,1.2
	c-20.7,3.2-41.5,6-62.2,9.8c-12.4,2.2-24.6,4.4-37,1.3c-0.2-0.1-0.6,0.3-1.6,1c7.7,15.4,2,33.4,9,49.4c1-1.2,1.5-2.4,1.7-3.6
	c2.3-11,8.6-18,19.1-22.5c11.2-4.8,22.9-5.3,35.6-6.5c13.5,0,27,0,41.4,0c9.6,0.5,19.2,0.9,28.8,1.7c16,1.3,32.1,3,48.1,5.2
	c0,0.7,0,1.4-0.9,2.2c-6,0-12.1,0-18.7-0.5c-3.7-2.1-7.4-1.8-11.2,0.6c1.7,0.3,3.4,0.6,5.8,0.9c20.3,4.3,38.9,13.3,58.2,21.5
	c0.9,0.9,1.8,1.8,2.7,2.7c0.3-0.3,0.7-0.6,1-1c-0.7-0.8-1.5-1.7-2.1-2.8c0,0,0.1-0.3-0.1-0.8c-0.3-0.5-0.5-1.1-1.3-2.1
	c-2.5-5.1-5-10.3-7.5-16.1c-0.6-1.5-1.2-2.9-1.9-5.1c0-0.8,0-1.5,0.5-2.7c1.2-2.3,2.5-4.5,4.2-7.2c7.8-5.8,15.5-11.6,23.8-17.8
	c0.5-0.5,1-1.1,1.5-1.7c0,0,0.1,0,0.6-0.2c0.5-0.3,1-0.6,1.8-1.4c1.2-1.1,2.4-2.2,4.1-3.5c0.5-0.3,1-0.6,2-1.1
	c0.4-0.2,0.9-0.5,1.9-1c0.5-0.3,1.1-0.5,2.2-1.2c7.8-6.2,15.5-12.4,23.9-18.8c0.8-1.3,1.6-2.6,2.8-4.3c0.5-0.5,1.1-1,2.1-1.7
	c0.5-0.6,1.1-1.1,1.6-1.7c0,0,0,0,0.6-0.2c0.5-0.3,1-0.6,1.6-1.4c0.2-0.5,0.4-1,1.1-1.4c0.9-0.8,1.7-1.5,3-2.8
	c8.6-10.8,18.1-21.1,23.7-34.4c0-0.6-0.1-1.2,0.1-2.3c0.6-0.7,1.2-1.5,2.1-2.8c0.2-0.6,0.5-1.2,0.7-2c0,0,0-0.3,0.3-0.8
	c0.2-0.3,0.5-0.7,0.7-1.3c0,0,0-0.3,0.4-0.8c0.5-1.2,1.1-2.4,1.7-4.4c1.3-14,2.6-28.1,4-42.1c0.2-2,0.6-3.9,0.9-6.7
	c-0.6-2.4-1.3-4.9-2-7.9c-0.4-2.9-0.7-5.9-1.4-8.8c-3.2-13.9-9-26.6-16.9-38.4c-3.4-5.1-7.2-9.9-11-15.4c-0.6-0.6-1.1-1.2-1.6-1.8
	c0,0,0,0-0.3-0.5c-0.5-0.5-1.1-1-1.7-1.5c0,0,0,0-0.3-0.6c-0.3-0.5-0.6-1-1.4-1.7c-0.8-0.5-1.6-1-2.5-2.2c-1-1.1-2.1-2.3-3.5-3.8
	c-0.5-0.5-0.9-1-1.6-2.1c-0.3-0.5-0.7-1.1-1.5-2c-1.1-1.2-2.2-2.4-3.5-4.2c-1.2-1.1-2.5-2.3-3.8-3.5c0,0,0,0-0.5-0.3
	c-0.5-0.3-1-0.5-1.9-1.3c-2.5-2.4-4.9-4.9-7.8-7.8c-0.6-0.6-1.2-1.1-2.2-2.2c-1.5-1.8-3-3.5-4.9-5.7c-0.2-0.2-0.4-0.5-1.1-1.2
	c-9.1-10.3-18.5-20.4-27.2-31c-18.3-22.4-41.5-37.4-69-45.4c-15-4.3-30.5-7.3-45.9-9.5c-20.3-2.9-40.8-4.4-61.2-0.6
	c-7,1.3-13.9,3.4-20.9,5.2c0.1,0.6,0.2,1.2,0.2,1.8c4.9,0,9.9-0.1,14.8,0c10.4,0.3,14.8,4.9,13.4,15.1c-0.8,6.4-2.8,12.7-4.6,18.9
	c-7.1,24.8-14.4,49.6-21.3,74.4c-7,25.2-14.5,50.2-20,75.7c-5.4,25.2-8.6,50.9-12.5,76.4c-0.8,5.3-0.3,10.9-0.4,17
	c0,0.4,0,0.9-0.3,1.8c-0.2,0.5-0.5,1-0.7,2.3c0,0.7,0,1.5-0.1,2.3c0,0,0.1,0.1,0.5-0.3c0.2-1.2,0.4-2.4,0.6-4.2c0-0.2,0-0.4,0.5-1
	c0.8-2.2,1.6-4.4,2.7-7.3c0.9-3.8,1.8-7.5,3-11.9c0.2-0.8,0.5-1.6,0.8-3.2c0.3-1.4,0.6-2.8,1.2-4.7c0.2-0.6,0.5-1.1,0.7-2.1
	c0,0,0-0.4,0.6-0.8c0.8-1.9,1.6-3.8,2.7-6.4c0.6-2.1,1.2-4.2,2.1-6.9c0.2-0.8,0.5-1.6,0.7-2.9c0,0,0-0.5,0.3-1.1
	c0.2-0.9,0.4-1.7,0.7-3.2c0-0.4,0-0.7,0.4-1.5c0.2-0.3,0.4-0.5,0.8-1.5c0.3-1.7,0.5-3.3,1.2-5.4c0.2-0.3,0.4-0.5,0.6-0.8
	c0,0,0,0,0.6-0.4c0.8-1.9,1.7-3.7,2.7-6.3c0.6-2.1,1.2-4.2,2.1-6.9c0.2-0.8,0.5-1.6,0.7-3.2c1-3.4,2-6.7,3.2-10.6
	c0.2-0.5,0.5-1,0.7-1.5c0,0,0,0,0.4-0.5c0.5-1.2,1-2.5,1.6-4.1c0,0,0-0.4,0.3-0.9c0.2-0.5,0.5-1,1-2.1c0.3-0.8,0.5-1.7,1.1-3.1
	c0.2-0.9,0.4-1.7,0.7-3.1c0-0.4,0-0.8,0.4-1.5c0.2-0.3,0.5-0.5,0.7-1.2c0,0,0-0.4,0.3-0.9c0.2-0.6,0.5-1.1,0.9-2.4
	c0.6-1.7,1.3-3.4,2.4-5.5c0.8-1.6,1.6-3.2,2.4-5.2c0,0,0-0.4,0.3-0.9c0.2-0.5,0.5-1.1,0.9-2.3c0.6-1.7,1.2-3.4,2.1-5.7
	c0.2-0.6,0.5-1.1,0.9-2.3c0.6-1.4,1.2-2.8,2.1-4.7c0.2-0.5,0.5-1,0.7-1.5c0,0,0,0,0.8,0c0.8,0,1.6,0.1,2.3,0.8
	c-0.7,2.3-1.3,4.6-2.3,7.4c-0.2,0.3-0.4,0.6-0.8,1.6c-0.8,2.4-1.7,4.8-3.1,7.5c-1.2,2.5-2.5,5.1-3.7,8.1c0,0,0,0.5-0.3,1.1
	c-0.2,0.9-0.4,1.7-0.7,3.1c0,0.4,0,0.7-0.4,1.5c-0.2,0.3-0.4,0.6-0.8,1.6c-1.3,3.7-2.6,7.4-4.4,11.5c-0.5,1.8-1,3.7-1.5,6.1
	c0,0.2,0,0.3-0.3,0.8c-0.2,0.2-0.4,0.4-0.6,0.7c0,0,0,0-0.4,0.3c-0.2,0.2-0.4,0.4-0.7,1.5c-1,3.4-2,6.8-3.2,10.8
	c-0.2,0.8-0.5,1.6-0.8,3.2c-0.5,2.1-1,4.2-1.9,6.6c-0.3,0.9-0.6,1.9-1,3.2c0,0-0.1,0.4-0.5,0.8c-0.5,0.9-1,1.8-1.6,3.4
	c-2.3,8.4-4.6,16.7-7.2,25.5c-0.2,0.3-0.4,0.6-0.7,1.2c0,0,0,0.4-0.5,0.8c-0.5,0.9-1,1.8-1.6,3.4c-1,3.4-1.9,6.8-3.2,10.8
	c-0.2,1.1-0.5,2.3-0.8,4.2c-0.6,2.7-1.3,5.5-2.3,8.6c-0.2,0.9-0.3,1.9-0.6,3.2c0,0-0.1,0.4-0.6,0.9c-0.5,1.2-1,2.5-1.5,4.1
	c0,0,0,0.4-0.3,1c-0.2,0.8-0.5,1.7-0.7,3.2c0,1.4,0,2.8,0,4.9c5.6-11.5,11.1-22.1,16-32.9c12.6-27.8,25.4-55.6,37.2-83.8
	c8.3-19.7,15.2-40.1,22.5-60.2c4.7-13.1,8.9-26.4,13.6-40.1c0.2-0.5,0.5-1.1,0.9-2.2c0.3-0.8,0.6-1.5,1.1-2.8c0.2-0.5,0.5-1,0.9-2.2
	c0.3-1.1,0.6-2.2,1.5-3.6c1.4-2.1,2.8-4.1,4.2-6.2c-0.6-0.4-1.2-0.7-1.8-1.1c-1.3,2.3-2.7,4.5-4.3,7.4c-1.5,2.1-3,4.2-4.9,6.7
	c-0.3,0.3-0.5,0.5-0.8,1.2c0,0,0,0.4-0.3,0.7c-0.2,0.2-0.4,0.5-0.7,0.7c0,0,0,0-0.4,0.3c-0.2,0.2-0.4,0.5-0.9,1.3
	c-0.8,1.5-1.6,3-3.3,4.4c-1.2,0-2.3-0.1-3.2-0.7c1.9-3.1,3.8-6.2,6-9.7c0.2-0.3,0.5-0.5,0.7-1.2c0,0,0-0.4,0.3-0.8
	c0.2-0.3,0.4-0.5,0.9-1.1c0.2-0.2,0.4-0.4,1-0.9c0.3-0.2,0.5-0.5,1-1.4c1.9-3,3.8-6,6.1-9.6c0.2-0.3,0.4-0.7,0.9-1.3
	c0.2-0.2,0.4-0.3,1-0.8c0.3-0.3,0.5-0.6,1-1.1c0.2-0.2,0.3-0.4,1-0.9c0.3-0.3,0.5-0.5,1.1-1.4c1.6-2.3,2.9-4.9,4.9-6.9
	c1.4-1.4,3.6-2,5.4-3c-0.1,2,0.3,4.2-0.4,5.9c-2.2,5-4.8,9.8-7.7,15c-0.5,1.3-0.9,2.6-1.4,4.2c0,0,0,0.4-0.4,0.8
	c-0.2,0.3-0.4,0.6-1,1.5c-0.9,2.4-1.8,4.7-3,7.5c-0.2,0.3-0.5,0.5-0.8,1.5c-2.6,7.3-5.4,14.7-7.8,22c-5.7,17.2-11,34.5-17.1,51.6
	c-6.3,17.5-12.8,35-20.2,52c-11.5,26.7-23.9,53-35.9,79.5c-2.2,4.8-4.9,9.4-7.1,14.2c-1,2.2-1.1,4.3,2.9,4.7
	c1.5-0.6,2.9-1.2,4.8-1.9c0,0,0.4,0,0.9-0.4c0.3-0.2,0.6-0.5,1.6-0.9c12.1-3.1,21-10.4,26.9-21.4c4.3-8.1,8.7-16.1,12.6-24.4
	c11.4-23.8,22.5-47.8,34.1-71.6c6.8-14.1,13.7-28.2,21.5-41.7c10.5-18,24-33.9,38-49.3c5.2-5.6,10.7-10.9,16.2-16.2
	c1-0.9,2.9-0.8,4.4-1.1c0,1.7,0.5,3.5,0,5c-0.8,2.1-2.2,4.1-3.5,6c-9.7,13.7-16.8,28.7-22.4,44.4c-5.3,14.9-9.9,30-15.7,44.7
	c-5.7,14.2-12.6,27.8-19.5,42c-0.5,0.6-1,1.2-1.6,2.3c-0.3,0.7-0.6,1.5-1.2,2.6c-0.2,0.2-0.4,0.5-0.7,0.8
	C390,297,390,297,389.6,297.4 M205.3,294.4c0.2,0.2,0.4,0.5,1.1,1.2c1.2,0.8,2.4,1.7,3.8,2.9c0.6-0.2,1.9-0.4,1.9-0.5
	c-0.3-3-0.7-5.9-1.1-9.8c0-3.8,0-7.5,0.3-12c0.2-3.4,0.5-6.7,0.7-10.8c0-0.5,0-0.9,0.3-2.1c0.2-1.5,0.5-3,0.7-5c0-0.4,0-0.8,0.3-1.8
	c0.2-0.8,0.5-1.7,0.8-3c0,0,0-0.5,0.5-1c1.2-3.5,2.3-7,3.5-11c0,0,0-0.5,0.3-1.1c0.2-0.8,0.5-1.6,0.8-3.2c0.7-2.1,1.3-4.2,2.2-6.8
	c0.2-0.8,0.5-1.7,0.9-3.2c0.9-2,1.9-4.1,3.2-6.5c0.2-0.3,0.4-0.6,0.9-1.1c0.2-0.2,0.4-0.3,1-0.9c0.2-0.3,0.5-0.5,1-1.1
	c0.2-0.2,0.3-0.4,1.1-0.9c1.6-0.7,3.2-1.4,4.8-2.1c-6-4.1-8.4-2.1-10.3,2c-0.2,0.2-0.4,0.4-1,0.9c-0.3,0.2-0.5,0.4-0.8,0.7
	c0,0,0,0-0.4,0.3c-0.2,0.2-0.5,0.5-1.3,1c-7,5.7-14.4,11.1-21,17.3c-8.2,7.8-7.3,13.9,1.9,20.8c3.2,2.5,5.9,5.7,8.8,9.3
	c0,1.3,0,2.7-0.2,4.7c-2.6,4.5-5.2,9-8.2,13.8c0.1,0.9,0.2,1.7,0.4,3.1c0,0.2,0,0.3,0.3,1c0.3,0.5,0.6,1,1.2,2
	c0.2,0.5,0.4,1,0.9,1.8c0.2,0.2,0.4,0.5,0.7,0.7C205,294,205,294,205.3,294.4 M343,351c0,0,0,0,0.4-0.4c0.2-0.3,0.4-0.6,0.9-1.3
	c0.3-0.4,0.5-0.7,1.2-1.5c0.3-0.3,0.5-0.6,1.2-1.4c6.6-7.7,13.1-15.5,19.7-23.2c21.7-25.3,35.4-54.9,45.9-86.2
	c5.8-17.2,12.1-34.1,18.1-51.2c0.5-1.4,0.6-3,1.1-5.6c-1.9,1.2-2.9,1.5-3.4,2.2c-10,13.7-21,26.7-29.6,41.3
	c-10.2,17.3-18.3,35.8-27.1,53.9c-5.5,11.4-10.3,23.1-15.9,34.4c-7.9,16.1-16.3,32-24.8,48.3c-0.2,0.2-0.4,0.5-0.7,0.7
	c0,0,0,0-0.4,0.4c-0.2,0.3-0.4,0.5-0.6,1.1c0,0,0.1,0.4-0.6,0.7c-3.2,1.9-4.9,4.5-4.1,9.3c2.2-3.4,3.9-6,5.6-8.6c0,0,0,0,0.3-0.3
	c0.2-0.2,0.4-0.4,0.6-0.7c0,0,0,0,0.6-0.3c0.5-0.3,1-0.6,1.8-1.4c1.2-1.4,2.4-2.8,4-4.6c0.2-0.3,0.4-0.6,1-1.4
	c1.2-1.1,2.3-2.2,3.9-3.6C342.5,351.5,342.7,351.2,343,351 M321,371C321,371,321,371,321,371C321,371,321,371,321,371 M295,482
	c0,0,0,0,0.3,0.5c0.3,0.6,0.5,1.1,1,1.9c0.2,0.1,0.3,0.3,1,0.4c0.3-1.9,0.5-3.8,0.4-6.3c-7.2-11.2-11.2-23.3-10.6-36.7
	c0.5-10.3-2.8-19.6-6.2-30.4c-1,8.9-1.9,16.3-3.3,24.2c-2.2,6.2-2.8,12.3,0.5,18.8c0,0,0,0.4,0.3,0.8c0.2,0.3,0.5,0.5,0.9,1.5
	c2.3,4.4,4.5,8.8,7.1,13.5c0.2,0.2,0.5,0.5,1,1c0.2,0.2,0.4,0.4,0.9,1c0.2,0.3,0.5,0.5,1.1,1.3c1.5,2.1,3.1,4.2,4.8,6.8
	C294.5,480.9,294.8,481.5,295,482 M314,111.7c0-0.3,0-0.5,0-1.1c0,0,0-0.3-0.2-0.4c-0.3,0-0.5,0-1,0.3c-0.2,0.2-0.4,0.3-1,0.8
	c-0.2,0.2-0.5,0.5-1.1,1.2c-7.5,10.8-14.6,21.7-18.9,34.9c-0.2,0.6-0.5,1.1-0.8,2.4c-0.7,2-1.3,4.1-2.5,6.6c-0.8,2.5-1.6,5-2.5,8.4
	c-1.3,15.7-2.7,31.4-4.3,47.9c0,11.3,0,22.6,0,33.9c0.1,0,0.2,0,0.4,0c0.3-3.9,0.6-7.8,1-12.5c2-10.4,4-20.8,6.2-31.8
	c0.2-0.8,0.5-1.7,0.7-3.1c0-0.4,0-0.9,0.3-2c0.2-1.1,0.5-2.3,0.7-3.9c0,0,0-0.5,0.6-0.4c0.8,1.1,1.6,2.2,2.4,3.7c0,0,0,0.4-0.3,1.1
	c-0.2,1.1-0.5,2.3-0.7,4.3c-0.2,2-0.3,4-0.6,6c-2,12.1-4.6,24.2-6.1,36.4c-1.9,15.9-2.9,31.8-4.6,48.5c-0.3,4.8-0.6,9.5-0.9,14.3
	c0.7,0,1.4,0,2.1,0c0-2.4,0-4.7,0-7.8c0-0.8,0-1.5,0.4-2.7c0.2-1.5,0.4-3,0.6-5.1c0-0.2,0-0.4,0.5-1c0.5-1.9,1-3.8,1.4-6.6
	c0.2-1.8,0.2-3.7,0.6-5.4c4.2-19.3,8.1-38.7,12.8-57.9c4.2-16.9,9.5-33.5,14.3-50.3c4.8-16.4,9.7-32.8,14.4-49.3
	c2.8-9.9,5.2-19.9,8-29.8c1.4-5.1-0.1-8.4-5.7-10.7c-6.2-2.2-12.4-2.9-19.2,0.5c-17.5,1.9-29.2,12.1-36.8,27.1
	c-3.4,6.8-5.8,14.2-7.6,21.5c-3.3,13.2-6.8,26.4-5,40.9c0.1,1.5,0.2,3-0.1,5c-0.6,0.8-1.1,1.6-2.2,3c-2.1,6.8-2.8,13.6,0.5,21.3
	c1.8,15.9,2.8,31.9,5.6,47.5c1.7,9.4,6.4,18.3,9.7,27.4c0.5-0.1,1.1-0.2,1.6-0.3c0-1.8,0-3.5,0-5.3c0.3-21.3,0.6-42.6,1.1-63.9
	c0.3-10.1,0.9-20.3,1.8-30.3c1.8-18.8,10-35.5,19.3-51.4c4.9-8.4,11.5-15.8,17.6-23.5c1.2-1.5,3.5-4.6,4.9,0.6
	c-0.2,0.9-0.5,1.7-0.9,3.3c-0.9,3-1.9,6-3.2,9.5c-0.2,0.3-0.4,0.6-0.6,1.3c0,0,0,0.3-0.5,0.3c-0.9-1-1.7-2-2.6-3
	C314,112,314,112,314,111.7 M324,439.3c-11.7,3.3-19.2,10.3-18.6,16.9c6.4-5.3,13-10.7,19.8-16.2c0.1-0.2,0.2-0.5,0.4-0.7
	C325.3,439.2,325,439.2,324,439.3 M492.5,368.1c-1.1,0.6-2.3,1.2-4,1.8c-0.2,0-0.4,0-1.1-0.1c-1.5,0.4-2.9,0.8-4.8,1.2
	c0,0-0.4,0-1.1,0.1c-0.8,0.3-1.6,0.6-3.2,1c-9.1,1.1-18.1,2.7-27.2,3.1c-16.6,0.7-33.2,0.7-49.8,1c-2.5,0-5.1,0-8.9,0
	c1.6,1,1.9,1.3,2.3,1.4c12.2,3.1,24.5,6.3,36.7,9.3c7.7,1.9,15.5,4.8,23.2,4.8c19,0,37.5-3.5,55.9-8.8c12-3.5,22.5-8.9,32.6-15.5
	c4.5-2.9,9-6.4,12.3-10.6c4.6-5.8,8.3-12.4,11.8-18.9c2.4-4.7,3.8-9.9,5.7-15c-1.3-0.3-1.5-0.4-1.6-0.3c-0.7,0.5-1.3,0.9-2,1.4
	c-9.8,8.4-19,17.6-29.5,25.1C525.9,359,510.4,365.9,492.5,368.1 M387.3,351.4c-3.3,2.2-6.7,4.4-10.4,6.8c-0.3,0.6-0.6,1.3-0.8,1.9
	c1-0.4,2-0.8,3.6-1.5c7.5-3.2,15.3-5.9,22.3-9.9c14.1-8,28.4-16,41.5-25.5c12.8-9.3,25-19.8,36.3-31c16.1-16.1,30.1-34.1,41.7-54.6
	c0.2-0.4,0.4-0.7,0.9-1.3c0.2-0.2,0.4-0.3,1.1-0.7c0.5-0.8,1-1.5,1.6-2.3c-0.3-0.2-0.5-0.4-0.8-0.6c-0.7,0.6-1.4,1.1-2.7,2
	c-9.6,6-19.7,11.3-28.6,18.2c-21,16.2-40.1,34.3-58.3,53.6c-14.3,15.2-30.3,28.8-46,43.5C388.3,350.5,388.1,350.7,387.3,351.4
	 M479.5,455c-22.7-8.8-46-15.8-70-19.7c-21.7-3.5-43.6-4.4-65.2,2.5c-12.6,4.1-23.5,10.3-31.8,20.5c-6.8,8.3-12.3,17.3-7.5,28.7
	c0.8,1.9,1.9,3.7,2.9,5.6c1.9-1.2,4.1-2,5.6-3.5c10.9-11.2,23.5-20,37-27.7c26.2-14.9,54.6-15.1,83-10.4
	c13.6,2.3,26.6,8.2,39.9,12.7c9,3,17.8,6.5,26.8,9.6c3.4,1.2,6.5,0.6,8.9-3.3c-1.6-1.1-3-2.3-4.5-3
	C496.4,462.9,488.3,459.2,479.5,455 M358.5,398.9c21.7-2.8,43.5-5.7,65.4-8.6c-5.8-1.7-11.4-3.4-17.2-5c-7.4-2-14.8-4-22.2-5.6
	c-14.9-3.2-29.8-9.3-45.3-2.3c-2.7,1.2-5.6,2.2-8.6,2.6c-14.6,2.1-29.3,3.8-43.9,6c-1.7,0.2-4.1,1.8-4.4,3.2
	c-1.3,6.2,3.1,14.7,9.1,16.1c6.7,1.5,13.9,2.8,20.6,1.9C327.3,405.3,342.4,401.9,358.5,398.9 M252.6,140c-3.1,4.2-6.3,8.4-9.9,13.2
	c3.9,1.2,6.7,2,9.5,3.1c3.4,1.3,4.5-0.1,4.9-3.3c0.6-5.8,1.5-11.5,2.2-17.3c0.2-1.3,0-2.7,0-4.1c-0.4-0.1-0.8-0.3-1.2-0.4
	C256.4,134,254.7,136.7,252.6,140 M247.4,166.5c1.3,0.1,2.6,0.3,3.9,0.2c2.6-0.2,3-1.6,1.7-3.7c-1.8-2.8-8-4.7-11.7-3.5
	c-3.7,1.3-5.1,4.2-5.2,8.4C239.8,167.4,243.2,167,247.4,166.5 M339.1,434.5c-1.7,0.3-3.5,0.6-5.2,0.9c0.1,0.4,0.3,0.9,0.4,1.3
	C336,436,337.7,435.4,339.1,434.5 M430.9,435.8c1.3,0.3,2.5,0.5,3.8,0.8c0-0.4,0.1-0.9,0.1-1.3C433.5,435.3,432.2,435.4,430.9,435.8
	 M325.6,375.5c-0.5,0.1-1.1,0.2-1.6,0.3c0.1,0.2,0.2,0.5,0.4,0.7C324.8,376.2,325.3,376,325.6,375.5 M329.1,437.7
	c0.2,0,0.5,0,0.7,0.1c-0.1-0.2-0.1-0.5-0.2-0.7C329.5,437.2,329.3,437.4,329.1,437.7 M318.1,377.2c0.4,0,0.8,0.1,1.2,0.1
	c0,0,0-0.3,0-0.4C318.9,376.9,318.5,377,318.1,377.2 M312.9,378.5l0.3,0.1C313.2,378.6,312.9,378.4,312.9,378.5 M280.4,367l0.2,0.1
	C280.6,367.1,280.4,366.9,280.4,367 M315,107.5C315,107.5,315,107.5,315,107.5 M299.5,487.5C299.5,487.5,299.5,487.5,299.5,487.5
	 M303.5,460.5C303.5,460.5,303.5,460.5,303.5,460.5 M372.5,361.5C372.5,361.5,372.5,361.5,372.5,361.5z"/>
<path class="st1" d="M248.3,369.1c4.1,0.1,8.7,0.3,13.5,0.7C257.6,369.8,253.2,369.5,248.3,369.1z"/>
<path class="st1" d="M516.8,478.1c1.6,2.3,3.3,4.8,5,7.7C520.3,483.6,518.5,481,516.8,478.1z"/>
<path class="st1" d="M273.7,427.2c0,1.5-0.1,3.4-0.5,5.6C273.2,431.1,273.4,429.3,273.7,427.2z"/>
<path class="st1" d="M273.1,454.3c0.9,1.4,1.9,3.2,2.9,5.4C275,458.3,274.1,456.5,273.1,454.3z"/>
<path class="st1" d="M240.1,368.3c1.5,0,3.4,0.2,5.7,0.6C244.3,368.9,242.3,368.7,240.1,368.3z"/>
<path class="st1" d="M274.9,420.4c-0.1,0.6-0.3,1.4-0.7,2.4C274.3,422.2,274.6,421.4,274.9,420.4z"/>
<path class="st1" d="M515.2,417.9c0.3-0.4,0.8-1,1.5-1.7C516.5,416.6,516,417.2,515.2,417.9z"/>
<path class="st1" d="M272,443.3c0.1,0.3,0.2,0.8,0.1,1.5C272,444.6,272,444.1,272,443.3z"/>
<path class="st1" d="M509,456.7c-0.4-0.3-1-0.8-1.8-1.6C507.6,455.4,508.2,455.9,509,456.7z"/>
<path class="st1" d="M505,450.7c-0.2-0.5-0.5-1.4-0.9-2.6C504.4,448.6,504.7,449.4,505,450.7z"/>
<path class="st1" d="M511.3,421c0.2-0.2,0.7-0.4,1.5-0.8C512.5,420.3,512,420.6,511.3,421z"/>
<path class="st1" d="M515.3,476.2c0.3,0.1,0.8,0.4,1.5,0.8C516.5,476.9,516,476.6,515.3,476.2z"/>
<path class="st1" d="M546.3,395.9c0.2-0.2,0.7-0.4,1.4-0.7C547.5,395.3,547.1,395.5,546.3,395.9z"/>
<path class="st1" d="M519,474.7c-0.2-0.3-0.5-0.8-0.8-1.6C518.3,473.4,518.6,473.9,519,474.7z"/>
<path class="st1" d="M200.1,293.3c0.2,0.3,0.4,0.8,0.8,1.6C200.7,294.6,200.4,294.1,200.1,293.3z"/>
<path class="st1" d="M199.1,291.3c0.2,0.2,0.4,0.7,0.8,1.5C199.7,292.5,199.4,292,199.1,291.3z"/>
<path class="st1" d="M293.1,485.2c0.1,0.1,0.3,0.4,0.7,0.9C293.7,486,293.5,485.7,293.1,485.2z"/>
<path class="st1" d="M513.2,419.9c0-0.1,0.3-0.3,0.7-0.7C513.9,419.2,513.7,419.5,513.2,419.9z"/>
<path class="st1" d="M517.8,471.8c-0.1,0-0.3-0.3-0.7-0.7C517.2,471.2,517.4,471.4,517.8,471.8z"/>
<path class="st1" d="M283.2,472.2c0.1,0,0.3,0.3,0.8,0.7C283.9,472.8,283.6,472.6,283.2,472.2z"/>
<path class="st1" d="M272,447.2c0,0,0,0.2,0,0.6C272,448,272,447.5,272,447.2z"/>
<path class="st1" d="M285.1,474.1c0.1,0.1,0.3,0.4,0.7,0.9C285.7,474.9,285.5,474.6,285.1,474.1z"/>
<path class="st1" d="M272,440.3c0,0,0,0.3,0,0.6C272,440.9,272,440.7,272,440.3z"/>
<path class="st1" d="M562.2,383.9c0-0.1,0.2-0.3,0.6-0.7C562.8,383.3,562.7,383.6,562.2,383.9z"/>
<path class="st1" d="M548.2,394.9c0-0.1,0.3-0.3,0.7-0.7C548.8,394.2,548.6,394.5,548.2,394.9z"/>
<path class="st1" d="M556.1,388.9c0.1-0.1,0.4-0.3,0.9-0.7C557,388.3,556.7,388.5,556.1,388.9z"/>
<path class="st1" d="M561.1,384.9c0-0.1,0.3-0.3,0.7-0.7C561.8,384.3,561.6,384.5,561.1,384.9z"/>
<path class="st1" d="M563.3,382.8c0-0.1,0.3-0.3,0.8-0.7C564,382.2,563.7,382.5,563.3,382.8z"/>
<path class="st1" d="M567.1,379.9c0-0.1,0.3-0.3,0.7-0.8C567.8,379.2,567.6,379.5,567.1,379.9z"/>
<path class="st1" d="M201.8,299.1c0,0.1-0.3,0.3-0.7,0.7C201.2,299.8,201.4,299.5,201.8,299.1z"/>
<path class="st1" d="M199.8,301.1c0,0.1-0.3,0.3-0.7,0.7C199.2,301.8,199.4,301.5,199.8,301.1z"/>
<path class="st1" d="M197.9,303.1c0,0.1-0.3,0.3-0.7,0.7C197.2,303.7,197.4,303.4,197.9,303.1z"/>
<path class="st1" d="M196.8,304.2c0,0.1-0.2,0.3-0.6,0.7C196.1,304.8,196.3,304.5,196.8,304.2z"/>
<path class="st2" d="M480,403c0,0-0.5,0-0.9-0.2c-0.7-0.4-0.9-0.6-1.2-0.8c-1.1-0.3-2.2-0.6-3.8-1.1c-0.7-0.5-1-0.7-1.2-0.9
	c-0.4,0-0.8,0-1.7-0.2c-0.8-0.4-1-0.6-1.3-0.8c-1.4-0.3-2.8-0.6-4.8-1.1c-1.1-0.4-1.7-0.7-2.2-0.9c0,0-0.4,0-0.6-0.3
	c-0.2-0.2-0.2-0.7-0.2-0.7c1,0,2.1,0,4,0c4.2-0.3,7.6-0.6,11-1c13.6-0.2,26.8-2.9,39.3-8.1c7.8-3.3,15.8-6.2,23.2-10.3
	c15.2-8.5,26.3-20.9,34-36.8c3.8-8,5.8-16.2,7-24.8c0.3-2.1,0.6-4.4,0.1-6.4c-0.3-1.5-1.6-3.3-3-3.9c-0.8-0.3-2.8,1.2-3.7,2.3
	c-4.1,5.2-7.8,10.7-12.1,15.8c-12.5,14.8-28.6,25-46.1,32.5c-24.7,10.5-51,15-78.7,15.7c-5,0-9.1,0-13.2,0c-0.4,0-0.8,0-1.9,0
	c-11.2,0-21.6,0-32,0c-6.7,0-13.4,0-20.1,0c-0.1-0.7-0.2-1.5-0.3-2.2c1.5-0.7,2.9-1.6,4.5-2.1c26.3-9.4,51-21.8,73.5-38.5
	c12.6-9.4,24.1-19.7,35.1-30.8c14.5-14.7,27.4-30.3,38.6-47.5c3.9-6,7.4-12.2,10.7-18.6c0.9-1.6,0.5-4,0.7-6
	c-2.2,0.2-4.6-0.2-6.4,0.7c-20.8,10.4-40.1,23.2-56.8,39.4c-18.5,17.9-36.2,36.8-54.5,54.9c-8.5,8.4-17.6,16.3-26.9,24.8
	c-0.7,0.6-1,0.8-1.2,1.1c-0.2,0.2-0.4,0.3-0.9,0.8c-0.6,0.6-0.9,0.9-1.2,1.2c-1.7,1.2-3.4,2.5-5.6,4c-0.8,0.5-1,0.8-1.3,1
	c-0.8,0.6-1.6,1.1-2.8,2c-0.7,0.6-0.9,0.8-1.2,1c-0.2,0.2-0.4,0.3-0.9,0.9c-0.6,0.6-0.9,0.9-1.2,1.1c-0.7,0.2-1.4,0.5-2.6,1
	c-0.7,0.5-0.9,0.8-1.2,1c0,0,0,0-0.2,0.2c-0.4,0.4-0.7,0.6-0.9,0.9c-6.6,2.7-13.1,5.6-19.9,8c-3.5,1.2-7.5,1.4-12,2.1
	c-1.9,0-2.9,0-4,0c0,0-0.5,0-0.7-0.3c-0.3-0.4-0.3-0.6-0.3-0.8c0,0,0,0,0.2-0.2c0.4-0.4,0.6-0.6,0.8-0.9c1.1-1.2,2.3-2.4,3.9-3.9
	c0.8-0.6,1.1-0.8,1.4-1.1c0.2-0.2,0.3-0.3,0.8-0.9c0.5-0.6,0.7-0.9,0.9-1.2c0,0,0,0,0.2-0.2c0.5-0.4,0.7-0.6,1-0.8
	c0.2-0.1,0.4-0.3,0.9-0.8c0.5-0.7,0.7-1,0.9-1.3c1.1-1.2,2.2-2.3,3.8-3.8c0.7-0.5,0.9-0.8,1.1-1c0,0,0.1,0,0.3-0.2
	c0.4-0.5,0.6-0.7,0.8-1c4.5-5.4,9-10.7,14-16.5c0.7-0.7,1-1,1.3-1.3c0.2-0.1,0.4-0.3,0.8-0.8c0.5-0.7,0.7-1.1,0.9-1.5
	c0,0,0-0.3,0.3-0.6c0.8-1,1.3-1.6,1.8-2.3c1.9-2.4,3.8-4.8,6.1-7.5c1.2-1.4,2-2.4,2.8-3.4c0.3-0.5,0.5-0.9,1.1-1.8
	c0.6-0.7,0.8-1,1.1-1.2c0.2-0.5,0.4-1,0.9-1.9c0.5-0.7,0.8-0.9,1-1.2c0.2-0.2,0.4-0.4,0.9-1c0.6-0.9,1-1.5,1.3-2
	c2.5-3.8,4.9-7.6,7.7-11.8c0.6-0.7,0.8-0.9,0.9-1.2c0,0,0,0,0.2-0.2c0.4-0.4,0.6-0.7,0.8-1c0.3-0.7,0.6-1.5,1.1-2.6
	c0.8-1,1.3-1.6,1.8-2.2c6.4-13.9,13.4-27.5,19-41.7c5.9-14.6,10.4-29.8,15.7-44.7c5.6-15.7,12.6-30.8,22.4-44.4
	c1.3-1.9,2.8-3.9,3.5-6c0.5-1.5,0-3.3,0-5c-1.5,0.4-3.4,0.2-4.4,1.1c-5.5,5.2-11.1,10.5-16.2,16.2c-14.1,15.3-27.6,31.2-38,49.3
	c-7.9,13.5-14.7,27.6-21.5,41.7c-11.5,23.8-22.6,47.8-34.1,71.6c-4,8.2-8.3,16.3-12.6,24.4c-5.9,11-14.7,18.2-27.5,21.6
	c-0.9,0.5-1.2,0.7-1.5,1c0,0-0.4,0-0.9,0.1c-2,0.7-3.5,1.3-5,1.9c-3.2-0.4-3.2-2.6-2.2-4.8c2.3-4.8,4.9-9.4,7.1-14.2
	c12.1-26.5,24.4-52.8,35.9-79.5c7.4-17.1,13.9-34.5,20.2-52c6.1-17,11.4-34.4,17.1-51.6c2.5-7.4,5.2-14.7,8.1-22.6
	c0.5-0.8,0.7-1.1,0.9-1.4c0.9-2.4,1.8-4.7,3-7.6c0.6-0.8,0.8-1.1,1-1.4c0,0,0-0.4,0.2-0.9c0.7-1.7,1.2-2.9,1.7-4
	c2.4-4.9,5.1-9.7,7.2-14.7c0.7-1.7,0.3-4,0.4-5.9c-1.8,1-4.1,1.6-5.4,3c-1.9,2-3.3,4.5-5.2,7.3c-0.6,0.8-0.9,1-1.2,1.3
	c-0.2,0.2-0.4,0.3-0.8,0.8c-0.6,0.6-0.9,0.9-1.1,1.2c-0.2,0.1-0.4,0.3-0.9,0.8c-0.5,0.7-0.7,1.1-0.9,1.4c-1.9,3-3.8,6-6.1,9.6
	c-0.6,0.8-0.8,1-1.1,1.3c-0.2,0.2-0.4,0.3-0.9,0.9c-0.5,0.6-0.7,0.9-1,1.1c0,0,0,0.4-0.2,0.8c-0.4,0.7-0.7,0.9-0.9,1.2
	c-1.9,3.1-3.8,6.2-6,9.8c-0.9,1-1.4,1.6-1.9,2.1c0,0,0.1,0.1-0.1,0.2c-0.4,0.4-0.6,0.6-1,1.2c-2.1,4-4,7.7-6.2,11.7
	c-4.4,8.5-8.6,16.7-12.8,25.2c-0.4,0.7-0.6,1.2-1,1.9c-0.4,0.8-0.6,1.3-1,2.1c-1.1,2.4-2,4.5-3.1,6.8c-1.4,2.8-2.6,5.3-3.8,7.9
	c0,0,0,0-0.1,0.3c-0.4,0.8-0.6,1.3-0.8,1.8c-0.6,1.4-1.2,2.8-2.1,4.7c-0.5,1.1-0.7,1.7-0.9,2.3c-0.6,1.7-1.2,3.4-2.1,5.7
	c-0.5,1.1-0.7,1.7-0.9,2.3c0,0,0,0.4-0.3,0.8c-1.1,2-1.9,3.6-2.7,5.1c-0.6,1.7-1.3,3.4-2.1,5.7c-0.5,1.2-0.7,1.7-0.9,2.3
	c0,0,0,0.4-0.2,0.8c-0.4,0.7-0.6,0.9-0.8,1.2c0,0.4,0,0.8-0.2,1.7c-0.4,1.4-0.5,2.3-0.7,3.1c-0.3,0.8-0.5,1.7-1.1,3
	c-0.5,1.1-0.7,1.6-1,2.1c0,0,0,0.4-0.3,0.8c-0.8,1.7-1.2,2.9-1.7,4.1c0,0,0,0-0.2,0.2c-0.4,0.8-0.6,1.3-0.8,1.8
	c-1,3.4-2,6.7-3.1,10.8c-0.4,1.5-0.6,2.3-0.8,3.1c-0.6,2.1-1.2,4.2-2.2,6.9c-1.2,2.4-2,4.3-2.9,6.1c0,0,0,0-0.3,0.2
	c-0.4,0.5-0.6,0.7-0.8,1c-0.3,1.7-0.5,3.3-1.1,5.5c-0.5,0.8-0.7,1.1-0.9,1.4c0,0.4,0,0.7-0.2,1.7c-0.4,1.4-0.6,2.3-0.7,3.2
	c0,0,0,0.5-0.2,1c-0.4,1.3-0.6,2.2-0.8,3c-0.6,2.1-1.2,4.2-2.2,6.9c-1.2,2.5-2,4.3-2.9,6.2c0,0,0,0.4-0.2,0.8
	c-0.4,1-0.6,1.6-0.8,2.2c-0.3,1.4-0.6,2.8-1.1,4.8c-0.4,1.5-0.6,2.3-0.9,3.1c-0.9,3.8-1.8,7.5-3.1,11.9c-1.2,2.1-2.1,3.6-2.9,5.1
	c0.1-5.4-0.4-11,0.4-16.3c3.9-25.5,7.1-51.2,12.5-76.4c5.5-25.5,13-50.6,20-75.7c6.9-24.9,14.3-49.6,21.3-74.4
	c1.8-6.2,3.7-12.5,4.6-18.9c1.3-10.3-3-14.8-13.4-15.1c-4.9-0.2-9.9,0-14.8,0c-0.1-0.6-0.2-1.2-0.2-1.8c7-1.7,13.9-3.9,20.9-5.2
	c20.4-3.8,40.9-2.3,61.2,0.6c15.4,2.2,30.9,5.1,45.9,9.5c27.5,8,50.7,23,69,45.4c8.7,10.6,18.1,20.7,27.6,31.5
	c0.6,0.7,0.9,0.9,1.1,1.2c1.5,1.8,3,3.5,4.9,5.8c1,1,1.6,1.6,2.3,2.1c2.5,2.4,4.9,4.9,7.8,7.8c0.9,0.7,1.5,0.9,2,1.2
	c0,0,0,0,0.1,0.4c1.4,1.5,2.6,2.6,3.9,3.8c1.1,1.2,2.2,2.4,3.6,4c0.7,1,1,1.6,1.4,2.1c0.5,0.5,0.9,1,1.7,2c1.3,1.6,2.3,2.8,3.3,4
	c0.8,0.5,1.6,1,2.7,2c0.7,0.9,1,1.4,1.3,1.8c0,0,0,0,0.2,0.3c0.7,0.7,1.3,1.2,1.8,1.7c0,0,0,0,0.1,0.3c0.7,0.9,1.2,1.5,1.8,2.1
	c3.6,5,7.3,9.8,10.7,14.9c8,11.7,13.8,24.5,16.9,38.4c0.7,2.9,0.9,5.9,1.4,9.5c0.7,3.2,1.3,5.6,1.9,8.1c-0.3,2-0.7,3.9-0.9,5.9
	c-1.3,14-2.7,28.1-4.3,42.7c-0.8,1.8-1.3,3.1-1.8,4.3c0,0,0,0.3-0.1,0.6c-0.4,0.7-0.7,1.1-0.9,1.5c0,0,0,0.3-0.1,0.6
	c-0.4,1-0.6,1.6-0.8,2.3c-0.6,0.7-1.2,1.5-2,2.7c-0.2,1.1-0.1,1.7,0,2.3c-5.6,12.9-15,23.2-24.1,34.4c-1.3,1.1-2.2,1.7-3,2.4
	c-0.2,0.5-0.4,1-1,1.8c-0.8,0.7-1.3,1-1.8,1.3c0,0,0,0-0.3,0.2c-0.8,0.7-1.3,1.3-1.9,1.8c-0.5,0.5-1.1,1-2,1.8
	c-1.3,1.7-2.1,2.9-3,4.1c-7.8,6.2-15.5,12.4-23.8,18.9c-1.1,0.6-1.6,0.8-2.2,1.1c-0.4,0.2-0.9,0.5-1.8,1c-1,0.5-1.5,0.8-2,1.1
	c-1.2,1.1-2.4,2.2-4.1,3.6c-0.9,0.7-1.4,1-1.9,1.3c0,0-0.1,0-0.3,0.2c-0.7,0.7-1.2,1.3-1.7,1.9c-7.8,5.8-15.5,11.6-23.6,17.3
	c-0.6-1.3-1-2.4-1.5-3.8c-1.3-2.4-2.5-4.5-3.8-6.8c-0.5-0.8-0.8-1.2-1.4-2c-1-1.1-1.7-1.9-2.7-3c-0.5-0.4-0.8-0.6-1.4-1
	c-1.6-1.1-3-1.9-4.6-3.1C482.5,404.7,481.3,403.9,480,403z"/>
<path d="M236,363c-10.4,0.5-20.1-2.1-28.4-8.4c-5.1-3.9-8.9-8.9-8.4-16.4c0.7-1,1.2-1.6,1.7-2.1c1-3.1,1.9-6.2,3.1-10
	c0.1-3.3,0-5.8,0-8.3c-0.5-0.8-1.1-1.5-2-2.7c-0.6-0.7-0.8-0.9-1.1-1.2c0,0,0-0.4-0.2-0.8c-0.7-1-1.3-1.5-1.8-2c0-0.7,0-1.5,0.2-2.7
	c0.5-0.8,0.8-1,1.1-1.2c0.2-0.1,0.4-0.3,0.8-0.8c0.5-0.7,0.7-1,0.9-1.3c0,0,0-0.4,0.2-0.7c0.7-0.6,1.2-0.9,1.7-1.2c0,0,0,0,0.2-0.2
	c0.8-0.7,1.3-1.3,1.8-1.8c0,0,0.4,0,0.8,0.2c0.6,0.4,0.9,0.6,1.1,0.8c0,0,0,0,0.2,0.2c0.4,0.5,0.6,0.8,0.8,1
	c0.1,0.2,0.3,0.4,0.8,0.9c0.7,0.5,1,0.7,1.3,0.9c0,0,0.3,0,0.8,0.1c1.3,0,2.2-0.1,3.1-0.1c0,0,0,0,0.2-0.3c0.1-2.5,0-4.7-0.1-6.8
	c0-9.3,0-18.6,0.2-28.6c0.4-2.3,0.6-3.7,0.8-5.2c0.3-1.2,0.6-2.3,0.9-4c0.1-0.6,0.1-1,0.1-1c0-0.4,0-0.8,0.2-1.9
	c0.4-1.8,0.6-3,0.8-4.1c0,0,0-0.5,0.3-0.9c1.1-2.3,1.9-4.2,2.7-6.1c0.7-3.1,1.3-6.1,2.1-9.9c0.4-1.5,0.6-2.3,0.8-3.1
	c0.3-0.8,0.6-1.5,1.1-2.9c0.5-1.1,0.7-1.7,0.9-2.2c0.8-1.8,1.7-3.6,3-5.8c0.8-0.6,1.1-0.9,1.4-1.1c0.2-0.2,0.3-0.3,0.8-0.9
	c0.6-0.6,0.8-0.9,1.1-1.2c0.8-0.5,1.6-1,2.9-1.8c1.4-0.5,2.2-0.8,3.1-1.1c0,0,0.4-0.1,0.9-0.2c0.9-0.4,1.4-0.6,1.9-0.9
	c2.9-1,5.9-1.9,8.8-2.9c-2.5-1.6-4.9-3.7-7.6-4.8c-6.8-3-7.2-4-6.8-11.2c0.3-5-0.4-10.2-1.3-15.2c-0.6-3.6,0.1-6.1,3.8-6.6
	c5-0.7,10-0.9,15.5-0.8c0.5,2.5,0.5,4.6,0.6,6.6c0,4.7,0,9.4,0,15.1c0.3,5.6,0.7,10.3,1,14.9c0,1.1,0,2.2,0,4c0.3,1.9,0.6,3,0.9,4.1
	c0.8,6.9,1.5,13.9,2.4,20.8c2.4,18.2,8.9,34.9,17.9,50.8c1.2,2.2,1.7,5.1,1.6,7.6c-0.4,9.6-1.2,19.2-2.1,29.5
	c-0.8,4.6-1.3,8.4-1.8,12.2c0,2,0,4.1,0,7c-0.7,7.2-1.3,13.6-2,19.9c0,0,0,0-0.2-0.1c-0.3-0.4-0.6-0.6-0.9-0.8
	c-2.7-0.3-5.3-0.7-8.7-1.2c-1.6-0.4-2.5-0.6-3.3-0.8c0,0-0.5,0-1.2,0C250.1,363,243,363,236,363z"/>
<path d="M331,81c4.9,1.8,6.5,5.1,5.1,10.2c-2.8,9.9-5.2,19.9-8,29.8c-4.7,16.5-9.6,32.8-14.4,49.3c-4.9,16.7-10.1,33.4-14.3,50.3
	c-4.8,19.2-8.6,38.6-12.8,57.9c-0.4,1.8-0.4,3.6-0.8,6.2c-0.7,2.6-1.2,4.5-1.7,6.3c0,0.2,0,0.4-0.1,1.2c-0.4,2-0.7,3.5-1,4.9
	c0,0.8,0,1.5-0.2,2.4c-0.4-2.4-0.6-4.9-0.9-7.4c1.4-15.9,2.4-31.9,4.3-47.7c1.5-12.2,4-24.3,6.1-36.4c0.3-2,0.4-4,0.8-6.7
	c0.4-1.9,0.6-3,0.8-4.2c0,0,0-0.4,0.2-1c1.4-4.7,2.5-8.9,3.8-13.4c0.4-2.8,0.7-5.2,1.1-7.9c0.4-1.1,0.6-1.9,0.8-2.9
	c0-0.2,0-0.7,0.2-1c0.4-1.5,0.6-2.6,0.8-4c0-0.2,0-0.7,0.2-0.9c0.4-0.5,0.6-0.8,0.8-1.4c0-1,0-1.7,0.1-2.7c0.4-1.1,0.6-2,0.9-3.2
	c0.4-2.1,0.7-3.8,1.1-5.7c0.4-0.8,0.6-1.4,0.8-2.2c0-0.7,0.1-1,0.3-1.7c1-2.8,1.8-5.4,2.6-8.2c0-0.2,0-0.7,0.2-0.9
	c0.4-0.4,0.6-0.7,0.9-1.3c0.4-2.1,0.6-3.8,1-5.8c0.4-0.8,0.6-1.3,0.8-2.1c0-0.2,0-0.7,0.2-1c0.4-0.8,0.6-1.3,0.9-2
	c0-0.2,0-0.6,0.2-0.9c0.4-0.8,0.6-1.4,0.9-2.3c0.4-1.7,0.7-3.1,1.2-4.7c1.1-1.8,1.9-3.4,2.7-4.9c0,0,0-0.3,0.2-0.7
	c0.4-0.7,0.6-1,0.8-1.3c0.9-3,1.9-6,3.1-9.7c0.5-1.5,0.7-2.4,0.9-3.2c-1.7-4.6-3.9-1.6-5.1,0c-6.1,7.7-12.7,15.1-17.6,23.5
	c-9.3,16-17.5,32.6-19.3,51.4c-1,10.1-1.6,20.2-1.8,30.3c-0.5,21.3-0.8,42.6-1.1,63.9c0,1.8,0,3.5,0,5.3c-0.5,0.1-1.1,0.2-1.6,0.3
	c-3.3-9.1-8-18-9.7-27.4c-2.9-15.7-3.9-31.7-5.6-48.5c0-7.6,0-14.2,0-20.9c0.6-0.8,1.1-1.6,1.9-3.1c0.2-2.1,0.2-3.5,0.2-5
	c-2.1-13.8,1.4-27.1,4.7-40.3c1.9-7.4,4.2-14.8,7.6-21.5c7.6-15,19.3-25.2,37.6-27.1C318.9,81,325,81,331,81z"/>
<path d="M459,400c0,0,0.4,0,0.9,0.2c1,0.4,1.6,0.6,2.1,0.8c0,0,0.4,0,0.9,0.2c1.4,0.4,2.2,0.6,3.1,0.8c2.7,1,5.5,1.9,8.8,3.1
	c1.1,0.5,1.7,0.7,2.2,0.9c0.8,0.3,1.5,0.6,2.7,1.3c0.7,0.5,0.9,0.8,1.3,1.1c0.3,0.3,0.5,0.5,0.9,0.8c0.5,0.4,0.8,0.6,1.4,1
	c2.7,2.4,5.2,4.5,7.8,7c0.4,0.5,0.6,0.8,1,1.3c0.7,1.3,1.3,2.4,1.8,3.9c0,2.1,0,3.9-0.2,5.7c-0.6,0.4-1.1,0.6-1.8,1
	c-0.6,0.4-0.9,0.6-1.4,1c-0.3,0.4-0.4,0.6-1,0.9c-4.2,1-7.9,2-12,3c-1.1,0.4-1.8,0.7-2.9,1c-1.4,0-2.6,0-3.7,0.1
	c-16-1.5-32-3.1-48.1-4.5c-9.6-0.8-19.2-1.1-29.6-1.9c-11.6-0.4-22.4-0.7-33.2-0.7c-2.8,0-5.6,0.6-8.3,1
	c-11.7,1.2-23.4,1.7-34.6,6.6c-10.5,4.5-16.8,11.5-19.1,22.5c-0.3,1.2-0.7,2.4-1.7,3.6c-7.1-16-1.4-34-9-49.4c1.1-0.6,1.4-1,1.6-1
	c12.5,3.1,24.7,0.9,37-1.3c20.6-3.7,41.4-6.6,63-9.8c2.3-0.3,3.8-0.6,5.3-0.9c0.7,0,1.4-0.1,2.8-0.1c3.9-0.7,6.9-1.3,10-2
	c2.6,0,5.3,0,8.8,0c12.3,0,23.7,0,35.1,0c0,0,0.4,0,0.8,0.3c1.3,0.7,2.3,1.2,3.2,1.7c0.4,0,0.8,0,1.8,0.2
	C457.9,399.6,458.5,399.8,459,400z"/>
<path d="M479.8,455.1c8.5,4,16.6,7.8,24.7,11.7c1.6,0.8,2.9,1.9,4.5,3c-2.5,3.9-5.5,4.5-8.9,3.3c-9-3.1-17.8-6.6-26.8-9.6
	c-13.2-4.5-26.2-10.4-39.9-12.7c-28.4-4.7-56.8-4.5-83,10.4c-13.5,7.7-26.2,16.5-37,27.7c-1.5,1.5-3.7,2.4-5.6,3.5
	c-1-1.9-2.1-3.7-2.9-5.6c-4.8-11.4,0.7-20.4,7.5-28.7c8.4-10.1,19.2-16.4,31.8-20.5c21.6-6.9,43.5-6,65.2-2.5
	C433.5,439.1,456.8,446.2,479.8,455.1z"/>
<path d="M331,359.9c8.2-16,16.5-31.8,24.4-47.9c5.6-11.3,10.4-23.1,15.9-34.4c8.8-18.1,16.9-36.6,27.1-53.9
	c8.5-14.5,19.6-27.6,29.6-41.3c0.5-0.7,1.5-1,3.4-2.2c-0.5,2.7-0.6,4.2-1.1,5.6c-6,17.1-12.3,34.1-18.1,51.2
	c-10.6,31.3-24.2,60.9-45.9,86.2c-6.6,7.7-13.1,15.4-20.1,23.6c-0.7,0.7-0.9,1-1.2,1.4c-0.3,0.4-0.5,0.7-1.1,1.5
	c-0.5,0.7-0.7,1-0.9,1.3c0,0,0,0-0.2,0.2c-0.5,0.4-0.7,0.6-0.9,0.9c-1.2,1.1-2.3,2.2-3.9,3.7c-0.6,0.8-0.8,1.1-1,1.4
	c-1.2,1.4-2.4,2.8-4,4.5c-0.9,0.7-1.4,1-1.9,1.3c0,0,0,0-0.2,0.1c-0.4,0.3-0.6,0.6-0.8,0.8c0,0,0,0-0.2-0.2
	c-0.4-0.4-0.6-0.6-0.7-0.8c0,0-0.1-0.4,0.1-0.8c0.4-0.6,0.6-0.9,0.8-1.1c0,0,0,0,0.2-0.2C330.6,360.5,330.9,360.2,331,359.9z"/>
<path d="M292,340c1-3.4,1.9-6.8,3.2-10.7c0.8-1.5,1.3-2.4,1.8-3.3c0,0,0-0.4,0.2-0.8c0.4-0.7,0.6-1,0.8-1.2
	c2.3-8.4,4.6-16.7,7.2-25.7c0.8-1.5,1.3-2.4,1.8-3.3c0,0,0.1-0.4,0.3-0.9c0.6-1.4,0.9-2.2,1.2-3c0.5-2.1,1-4.2,1.7-6.9
	c0.4-1.5,0.6-2.3,0.8-3.1c1-3.4,2-6.8,3.2-10.8c0.5-0.8,0.7-1,0.9-1.2c0,0,0,0,0.2-0.2c0.4-0.4,0.6-0.6,0.8-0.9c0-0.2,0-0.3,0.1-1.1
	c0.7-2.3,1.3-4.1,1.8-5.9c1.3-3.7,2.6-7.4,4.2-11.7c0.5-0.9,0.7-1.2,0.9-1.5c0-0.4,0-0.7,0.2-1.7c0.4-1.4,0.6-2.3,0.8-3.2
	c0,0,0-0.5,0.3-0.9c1.5-3,2.8-5.5,4-8.1c0.8-2.4,1.7-4.8,2.8-7.7c0.5-0.9,0.7-1.2,0.9-1.6c0.7-2.3,1.3-4.6,2.3-7.4
	c0.3-0.4,0.7-0.5,0.9-0.6c0.4-0.3,0.6-0.5,0.9-1.1c0.3-1.1,0.6-1.9,1-3c1.8-4,3.4-7.8,5.1-11.8c4.4-8.8,8.6-17.3,13-26
	c0.4-0.3,0.6-0.5,0.9-0.9c0.4-0.5,0.6-0.7,0.9-1.3c0.4-1.1,0.6-1.9,1.1-2.8c0.4-0.4,0.6-0.6,0.8-0.9c0,0,0,0,0.2-0.2
	c0.4-0.4,0.6-0.6,0.9-1.2c1-2.4,1.9-4.5,3.1-6.7c1.2-1,2.1-1.9,3-2.8c0.8-1.5,1.6-3,2.7-4.9c0.6-0.7,0.8-0.9,1-1.2c0,0,0,0,0.2-0.2
	c0.4-0.4,0.6-0.6,0.8-0.9c0,0,0-0.4,0.2-0.8c0.5-0.6,0.7-0.9,1-1.2c1.5-2.1,3-4.2,4.8-6.5c0.6,0,0.8,0.2,1,0.4
	c-0.3,1.1-0.6,2.2-1.1,3.8c-0.4,1.1-0.7,1.6-0.9,2.2c-0.3,0.8-0.6,1.5-1.1,2.9c-0.5,1.1-0.7,1.6-0.9,2.2
	c-4.4,13.2-8.6,26.5-13.3,39.6c-7.2,20.2-14.2,40.5-22.5,60.2c-11.8,28.2-24.6,56-37.2,83.8c-4.9,10.9-10.4,21.5-16,32.9
	c0-2.1,0-3.5,0.2-5.5c0.4-1.5,0.6-2.3,0.8-3.1c0,0,0-0.4,0.3-0.9c0.7-1.7,1.2-2.9,1.7-4.1c0,0,0.1-0.4,0.3-0.9
	c0.4-1.4,0.5-2.2,0.7-3.1c0.6-2.7,1.3-5.5,2.1-8.9C291.5,342.3,291.8,341.2,292,340z"/>
<path d="M522.8,236c-0.2,0.1-0.4,0.3-1,0.8c-0.5,0.7-0.7,1.1-0.9,1.5c-11.3,19.9-25.2,37.9-41.4,54c-11.2,11.2-23.4,21.7-36.3,31
	c-13.1,9.5-27.4,17.5-41.5,25.5c-7,4-14.8,6.6-22.8,9.9c-1-0.2-1.4-0.5-1.8-0.8c3.3-2.2,6.7-4.4,10.5-6.9c0.7-0.7,1-1,1.2-1.3
	c15.3-14.3,31.3-27.9,45.6-43.1c18.2-19.3,37.3-37.5,58.3-53.6c8.9-6.9,19-12.2,29-18.2C522.5,235.2,522.7,235.6,522.8,236z"/>
<path d="M482.1,371c0,0,0.4,0,1,0c2-0.4,3.4-0.7,4.8-1c0.2,0,0.4,0,1.2,0c1.7-0.7,2.9-1.3,4-1.9c17.2-2.2,32.8-9,46.7-18.9
	c10.5-7.5,19.7-16.7,29.5-25.1c0.6-0.5,1.3-1,2-1.4c0.1-0.1,0.3,0.1,1.6,0.3c-1.9,5.1-3.2,10.3-5.7,15c-3.4,6.6-7.2,13.1-11.8,18.9
	c-3.3,4.2-7.8,7.7-12.3,10.6c-10.1,6.6-20.7,12.1-32.6,15.5c-18.4,5.3-36.9,8.7-55.9,8.8c-7.7,0-15.5-2.9-23.2-4.8
	c-12.3-3-24.5-6.2-36.7-9.3c-0.4-0.1-0.8-0.5-2.3-1.4c3.8,0,6.3,0,8.9,0c16.6-0.3,33.2-0.3,49.8-1c9.1-0.4,18.2-2,27.9-3.2
	C480.5,371.6,481.3,371.3,482.1,371z"/>
<path d="M358,398.9c-15.6,2.9-30.7,6.4-46,8.4c-6.7,0.9-13.9-0.4-20.6-1.9c-6-1.4-10.4-9.9-9.1-16.1c0.3-1.4,2.8-3,4.4-3.2
	c14.6-2.1,29.3-3.9,43.9-6c2.9-0.4,5.8-1.4,8.6-2.6c15.5-7,30.3-0.9,45.3,2.3c7.5,1.6,14.9,3.6,22.2,5.6c5.7,1.5,11.4,3.3,17.2,5
	C401.9,393.2,380.2,396,358,398.9z"/>
<path class="st2" d="M289,203c-2,10.4-4,20.8-6.1,31.6c-0.4-7.3-0.7-14.9-0.9-22.6c1.3-15.7,2.7-31.4,4.3-47.8
	c1.1-3.2,1.9-5.7,2.7-8.2c0.7-2,1.3-4.1,2.2-6.8c0.4-1.2,0.7-1.8,0.9-2.4c4-12.6,11.1-23.6,19-34.8c0.6-0.7,0.9-0.9,1.1-1.1
	c0.2-0.2,0.4-0.3,1-0.6c0.4-0.1,0.9-0.1,0.9-0.1s0,0.3,0,0.8c0,0.6,0,0.8,0,1c0,0,0,0-0.3,0.2c-1.2,2.5-2.1,4.7-3.2,7.2
	c-1,3.4-1.8,6.4-2.7,9.7c-0.4,0.8-0.6,1.4-0.8,2.2c0,0.8,0,1.2-0.1,1.9c-0.4,1.1-0.6,1.9-0.8,2.9c0,0.2,0,0.7-0.2,1
	c-0.4,1.1-0.6,2-0.9,2.8c0,0,0,0-0.2,0.2c-1.1,2.4-1.9,4.6-2.8,7.1c0,0.7,0,1.2-0.1,1.9c-0.4,1.1-0.6,1.9-0.8,3c0,0.4,0,0.6-0.2,1
	c-0.4,1.1-0.6,1.9-0.8,3c0,0.2,0,0.7-0.2,1c-0.4,1.1-0.6,2-0.8,3.1c0,0.8,0,1.2-0.2,1.9c-0.4,1.1-0.6,1.9-0.8,3c0,0.2,0,0.7-0.2,1
	c-0.4,0.8-0.6,1.4-0.8,2.2c0,0.7,0,1.2-0.1,1.9c-0.4,1.4-0.6,2.6-0.8,3.9c0,0.2,0,0.7-0.2,0.9c-0.4,0.8-0.6,1.4-0.8,2.3
	c0,0.7,0,1.1-0.2,1.8c-0.7,1.5-1.2,2.7-1.7,4.1c0,0.4,0,0.6-0.2,1.1c-0.7,3.1-1.2,5.9-1.8,8.6c0,0,0,0.5-0.2,1
	c-0.4,1.7-0.6,2.8-0.8,4c0,0.4,0,0.9-0.2,1.9C289.5,201.3,289.2,202.1,289,203z"/>
<path d="M210,266c-2.9-2.9-5.6-6.1-8.8-8.5c-9.1-6.9-10.1-13-1.9-20.8c6.6-6.2,14-11.6,21.5-17.7c0.7-0.5,1-0.8,1.2-1
	c0,0,0,0,0.2-0.2c0.5-0.4,0.7-0.6,1-0.9c0.2-0.2,0.4-0.3,1-0.7c1.8,0.1,3.2,0.4,4.5,0.7c-0.2,0.2-0.4,0.3-0.8,0.9
	c-0.6,0.6-0.8,0.9-1.1,1.1c-0.2,0.2-0.4,0.3-0.9,0.8c-0.5,0.6-0.8,0.9-1,1.2c-0.9,2-1.9,4.1-3.1,6.7c-0.5,1.5-0.7,2.3-0.9,3.2
	c-0.7,2.1-1.3,4.2-2.1,6.9c-0.4,1.5-0.6,2.3-0.8,3.1c0,0,0,0.5-0.3,1c-1.4,4-2.5,7.5-3.7,11c0,0,0,0.5-0.2,1
	c-0.4,1.4-0.6,2.2-0.8,3.1c0,0.4,0,0.8-0.2,1.8c-0.4,2.1-0.6,3.6-0.8,5.1c0,0.5,0,0.9-0.4,1.7C210.9,266,210.4,266,210,266z"/>
<path d="M506,459.2c0,0-0.1,0.3-0.4,0.5c-0.8,0.2-1.2,0.3-1.6,0.3c-19.1-7.6-37.6-16.7-58-21.1c2-0.4,4-0.7,6-0.9c6,0,12.1,0,19,0
	c3.4-0.2,5.8-0.5,8.7-0.8c1-0.1,1.7-0.2,2.7-0.3c3.5-1.3,6.6-2.6,10-3.9c1-0.3,1.8-0.5,2.6-0.5c0,0.2,0.1,0.6,0.1,0.6
	c0,0.8,0,1.5,0,3.1c0.6,2.2,1.3,3.7,1.9,5.1c2.5,5.1,5,10.3,7.8,15.9C505.4,458.1,505.7,458.6,506,459.2z"/>
<path d="M288,471.9c-0.2-0.2-0.4-0.4-0.9-0.9c-0.6-0.6-0.8-0.8-1.1-1.1c-2.3-4.4-4.5-8.8-7-13.7c-0.5-0.8-0.7-1.1-1-1.3
	c0,0,0-0.4,0-1.1c0-6.7,0-12.7,0-18.7c0.9-7.4,1.7-14.8,2.8-23.7c3.4,10.8,6.7,20.1,6.2,30.4c-0.6,13.4,3.4,25.5,10.8,37.4
	c-0.3,2.4-0.7,4.1-1.1,5.7c-0.1-0.2-0.3-0.3-0.6-0.9c-0.5-0.9-0.8-1.5-1.1-2c0,0,0,0-0.1-0.3c-0.3-0.8-0.6-1.4-0.9-1.9
	c-1.5-2.1-3.1-4.2-5-6.7C288.5,472.4,288.2,472.1,288,471.9z"/>
<path d="M252.8,139.7c1.9-3,3.6-5.7,5.3-8.5c0.4,0.1,0.8,0.3,1.2,0.4c0,1.4,0.1,2.7,0,4.1c-0.7,5.8-1.6,11.5-2.2,17.3
	c-0.4,3.2-1.5,4.6-4.9,3.3c-2.7-1.1-5.6-1.8-9.5-3.1C246.3,148.4,249.4,144.2,252.8,139.7z"/>
<path d="M211.1,276.9c0,3.8,0,7.5,0,12.1c-0.3,3.6-0.7,6.3-1,9c-1.2-0.8-2.4-1.7-3.9-3c-0.6-0.7-0.8-0.9-1.1-1.1c0,0,0,0-0.2-0.2
	c-0.4-0.4-0.6-0.7-0.9-0.9c-0.2-0.5-0.4-1-0.8-1.9c-0.6-1-0.9-1.5-1.2-2c0-0.2,0-0.3,0-1.1c0-1.3,0-2.1,0-2.8
	c2.6-4.5,5.2-9,8.1-13.5C210.5,273.3,210.8,275.1,211.1,276.9z"/>
<path d="M247,166.5c-3.8,0.5-7.2,0.9-10.9,1.4c0.1-4.2,1.4-7.1,5.2-8.4c3.7-1.3,9.9,0.6,11.7,3.5c1.4,2.1,1,3.5-1.7,3.7
	C250,166.8,248.7,166.6,247,166.5z"/>
<path d="M324.9,440.1c-6.6,5.4-13.1,10.8-19.5,16.1c-0.5-6.6,7-13.5,19-16.7C324.8,439.6,324.9,440.1,324.9,440.1z"/>
<path class="st1" d="M281.9,212.4c0.4,7.3,0.6,14.9,1,22.6c-0.2,3.9-0.5,7.8-0.8,11.7c-0.1,0-0.2,0-0.4,0
	C281.7,235.4,281.7,224.1,281.9,212.4z"/>
<path class="st1" d="M259.7,178.3c0.2,6.4,0.3,13,0.2,20.2C256.7,192.2,257.3,185.4,259.7,178.3z"/>
<path class="st1" d="M272.2,366.1c0.4-6.5,1.1-12.9,1.8-19.6c0.3,5.7,0.7,11.7,0.8,17.8C274.7,364.9,273.2,365.6,272.2,366.1z"/>
<path class="st1" d="M352.3,429c2.3-0.4,5.1-1,7.8-1c10.8,0.1,21.6,0.3,32.8,0.7C379.8,428.9,366.3,429,352.3,429z"/>
<path class="st3" d="M291.3,193c0.3-2.8,0.8-5.5,1.7-8.4c1.8-0.6,3.4-1,4.9-1.5c-1.2,4.2-2.4,8.3-3.7,12.8
	C293.2,195.1,292.4,194,291.3,193z"/>
<path class="st1" d="M495.3,432.8c-0.3,0.2-0.3-0.2-0.4-0.7c-0.4-1.7-0.7-2.9-1-4.1c0-1.7,0-3.4,0.2-5.4c1.7,1.3,3,1.8,3.9-0.7
	c0.3,1.1,0.7,2.2,1.1,3.7C498,428.1,496.8,430.3,495.3,432.8z"/>
<path class="st1" d="M450.6,396.9c-11,0.2-22.4,0.2-34.2,0.2C427.4,396.9,438.8,396.8,450.6,396.9z"/>
<path class="st1" d="M229,216.8c-1.7-0.1-3-0.4-4.7-0.7c1.3-3.7,3.7-5.7,9.8-1.6C232.5,215.2,230.9,215.9,229,216.8z"/>
<path class="st1" d="M390.3,371.1c10-0.2,20.4-0.2,31.3-0.2C411.6,371.1,401.2,371.2,390.3,371.1z"/>
<path class="st1" d="M330.7,80.8C325,81,318.9,81,312.4,81C318.1,77.7,324.2,78.3,330.7,80.8z"/>
<path class="st1" d="M451.7,437.7c-1.7,0.5-3.7,0.7-6.1,1.1c-2-0.2-3.7-0.4-5.4-0.7C444,435.6,447.7,435.4,451.7,437.7z"/>
<path class="st1" d="M277.7,435.3c0.2,5.8,0.2,11.8,0.2,18.2C274.7,447.9,275.3,441.8,277.7,435.3z"/>
<path class="st1" d="M255.2,209.6c-0.5-4.3-0.8-8.9-1.1-14.1C254.5,199.8,254.9,204.5,255.2,209.6z"/>
<path class="st1" d="M328.8,363.1c0.5,0.1,0.7,0.3,1,0.7c-1.5,2.8-3.2,5.4-5.4,8.8C323.6,367.7,325.2,365.1,328.8,363.1z"/>
<path class="st1" d="M281.9,292.4c0.4,2.1,0.6,4.6,1,7.4c0.2,2.6,0.2,4.9,0.2,7.3c-0.7,0-1.4,0-2.1,0
	C281.1,302.3,281.4,297.6,281.9,292.4z"/>
<path class="st0" d="M378.3,142.8c-0.5,0-0.7-0.2-1.1-0.5c1.2-2.4,2.5-4.7,3.8-6.9c0.6,0.4,1.2,0.7,1.8,1.1
	C381.4,138.5,380,140.6,378.3,142.8z"/>
<path class="st0" d="M336.9,213c-0.2,0.8-0.4,1.6-1,2.9c-0.5,0.7-0.7,0.9-1,1c0,0-0.4,0.1-0.6,0.2c-1,0-1.8,0-3-0.1
	c0.8-2.5,2-5.1,3.5-7.5C335.7,210.7,336.3,211.8,336.9,213z"/>
<path class="st4" d="M310.7,119.1c0.9-2.2,1.9-4.4,3-6.8c1.1,0.7,1.9,1.7,3.1,2.7c-0.6,1.6-1.4,3.2-2.8,4.8
	C312.5,119.6,311.6,119.3,310.7,119.1z"/>
<path class="st1" d="M479.3,437.2c-2.5,0.3-4.9,0.5-7.8,0.7c-0.4-0.7-0.4-1.4-0.4-2.5c1.1-0.4,2.3-0.5,4-0.3
	C476.9,436,478.1,436.6,479.3,437.2z"/>
<path class="st1" d="M236.4,363.1c6.6-0.2,13.7-0.2,21.2-0.2C251,363.1,243.9,363.2,236.4,363.1z"/>
<path class="st1" d="M274.3,338.7c0.3-3.6,0.8-7.4,1.5-11.6C275.5,330.7,275,334.6,274.3,338.7z"/>
<path class="st1" d="M406.7,397c-2.6,0.7-5.7,1.3-9.2,2C400.1,398.3,403.2,397.7,406.7,397z"/>
<path class="st1" d="M214.3,252.7c0.9-3.3,2-6.8,3.4-10.5C216.8,245.4,215.7,248.9,214.3,252.7z"/>
<path class="st1" d="M609,267.8c-0.7-2-1.3-4.5-1.9-7.3C607.7,262.5,608.3,264.9,609,267.8z"/>
<path class="st1" d="M211.2,276.5c-0.4-1.4-0.6-3.2-1.1-5.3c-0.1-1.7-0.1-3-0.1-4.8c0.4-0.4,0.9-0.4,1.7-0.4
	C211.8,269.4,211.5,272.8,211.2,276.5z"/>
<path class="st1" d="M210.1,298.3c0.2-2.9,0.6-5.6,0.9-8.8c0.4,2.5,0.8,5.5,1.1,8.4C212.1,298,210.9,298.3,210.1,298.3z"/>
<path class="st1" d="M339.2,434.6c-1.6,0.8-3.2,1.4-4.9,2c-0.1-0.4-0.3-0.9-0.4-1.3C335.7,435.1,337.4,434.8,339.2,434.6z"/>
<path class="st1" d="M288.7,156.3c-0.5,2.3-1.4,4.8-2.4,7.5C286.8,161.5,287.6,159,288.7,156.3z"/>
<path class="st1" d="M328,234.2c-0.9,2.4-2.2,4.9-3.7,7.6C325.2,239.5,326.5,237,328,234.2z"/>
<path class="st1" d="M254.3,179.7c-0.3-1.8-0.3-3.8-0.4-6.3C256,175,256.4,177.1,254.3,179.7z"/>
<path class="st1" d="M504.1,460.2c0.3-0.3,0.7-0.4,1.4-0.5c1,0.8,1.8,1.6,2.5,2.5c-0.3,0.3-0.7,0.6-1,1
	C506.1,462.3,505.1,461.4,504.1,460.2z"/>
<path class="st1" d="M424.2,371.1c3.7-0.1,7.8-0.1,12.4-0.1C432.9,371.1,428.8,371.2,424.2,371.1z"/>
<path class="st1" d="M430.9,435.6c1.3-0.2,2.6-0.3,3.9-0.4c0,0.4-0.1,0.9-0.1,1.3C433.5,436.3,432.2,436,430.9,435.6z"/>
<path class="st0" d="M365.9,158.1c-0.5,0.9-1.4,1.8-2.9,2.7c-1.4-0.3-2.3-0.6-3.1-0.8c0.5-0.5,1-1.1,1.8-1.8
	C363.1,158,364.3,158,365.9,158.1z"/>
<path class="st1" d="M283,352.3c0.8-1.9,1.7-3.4,2.8-5.1c-0.6,2-1.4,4.2-2.5,6.6c-0.3,0.2-0.3,0.2-0.3,0.2
	C283,353.5,283,353.1,283,352.3z"/>
<path class="st1" d="M476.6,395c-2.9,0.3-6.3,0.6-10.1,1C469.4,395.6,472.8,395.3,476.6,395z"/>
<path class="st1" d="M523.1,235.8c-0.4-0.3-0.6-0.7-0.9-1.2c0.6-0.7,1.3-1.3,2-1.8c0.3,0.2,0.5,0.4,0.8,0.6
	C524.4,234.2,523.8,234.9,523.1,235.8z"/>
<path class="st1" d="M292.3,323.8c0.5-1.7,1.4-3.6,2.5-5.7C294.2,319.8,293.4,321.7,292.3,323.8z"/>
<path class="st1" d="M317.7,261.2c-0.3,1.6-0.9,3.3-1.6,5.4C316.5,265.1,317,263.3,317.7,261.2z"/>
<path class="st1" d="M480.9,408.3c-0.2-0.2-0.5-0.5-0.9-0.9c-0.1-1.3-0.1-2.4,0-3.9c1.3,0.4,2.5,1.2,3.7,2.4
	C482.7,406.9,481.8,407.6,480.9,408.3z"/>
<path class="st1" d="M220.7,246.2c-0.5,1.7-1.4,3.5-2.4,5.6C218.8,250.2,219.6,248.3,220.7,246.2z"/>
<path class="st1" d="M331.2,371.3c0.9-0.2,2-0.2,3.4-0.2C333.7,371.2,332.5,371.4,331.2,371.3z"/>
<path class="st1" d="M561.1,378.9c0.6-1.1,1.4-2.4,2.5-3.8C563.1,376.1,562.2,377.4,561.1,378.9z"/>
<path class="st1" d="M559.9,176.8c-1.1-0.8-2.4-2-3.8-3.5C557.2,174.2,558.5,175.4,559.9,176.8z"/>
<path class="st1" d="M302.2,293.7c0.6-1.6,1.4-3.5,2.5-5.6C304.2,289.8,303.3,291.7,302.2,293.7z"/>
<path class="st1" d="M321.3,239.8c0.5-1.4,1.4-2.9,2.4-4.7C323.2,236.4,322.4,238,321.3,239.8z"/>
<path class="st1" d="M325.7,375.6c-0.4,0.4-0.9,0.6-1.3,0.9c-0.1-0.2-0.2-0.5-0.4-0.7C324.5,375.7,325.1,375.6,325.7,375.6z"/>
<path class="st1" d="M297,484.8c0.2-1.7,0.6-3.3,1-5.4C297.8,481,297.5,482.9,297,484.8z"/>
<path class="st1" d="M496.9,440.8c-0.6-1.1-1.2-2.6-1.9-4.4C495.7,437.5,496.3,439,496.9,440.8z"/>
<path class="st1" d="M329.1,437.6c0.2-0.2,0.4-0.4,0.6-0.5c0.1,0.2,0.1,0.5,0.2,0.7C329.6,437.8,329.4,437.7,329.1,437.6z"/>
<path class="st1" d="M385.7,138.2c-0.2,1.1-0.8,2.2-1.4,3.7C384.5,140.8,385,139.6,385.7,138.2z"/>
<path class="st1" d="M284.3,290.7c0.3-1.6,0.8-3.5,1.5-5.7C285.5,286.6,285,288.6,284.3,290.7z"/>
<path class="st1" d="M377.1,358.1c0.6,0.1,1.1,0.4,1.7,0.8c-0.8,0.5-1.8,0.9-2.7,1.3C376.3,359.6,376.6,358.9,377.1,358.1z"/>
<path class="st1" d="M394,399c-1.2,0.4-2.7,0.7-4.6,1C390.5,399.6,392.1,399.3,394,399z"/>
<path class="st1" d="M256.1,217.8c-0.4-0.8-0.7-1.9-1-3.4C255.4,215.2,255.8,216.4,256.1,217.8z"/>
<path class="st1" d="M569.9,188.8c-0.9-0.8-1.9-2-3-3.5C567.7,186.2,568.8,187.3,569.9,188.8z"/>
<path class="st1" d="M204.1,318.2c0.1,2.1,0.2,4.6,0.1,7.5C204,323.6,204,321.1,204.1,318.2z"/>
<path class="st1" d="M318.1,377.1c0.4-0.2,0.8-0.2,1.2-0.2c0,0.1,0,0.4,0,0.4C318.9,377.3,318.5,377.3,318.1,377.1z"/>
<path class="st1" d="M293.2,377.9c1.1-0.6,2.6-1.2,4.4-1.8C296.5,376.7,295,377.3,293.2,377.9z"/>
<path class="st1" d="M283.1,355c-0.2,1.2-0.4,2.4-0.9,3.8c-0.2,0.2-0.3,0.1-0.3,0.1c0-0.7,0-1.5,0.2-2.7
	C282.6,355.5,282.9,355.3,283.1,355z"/>
<path class="st1" d="M283.2,296.8c0.1-1.2,0.4-2.6,0.7-4.4C283.8,293.6,283.6,295.1,283.2,296.8z"/>
<path class="st1" d="M215,298.3c0.1,1.7,0.2,3.9,0.2,6.4C215,302.9,215,300.8,215,298.3z"/>
<path class="st1" d="M492.8,368.1c-0.8,0.6-1.9,1.2-3.4,1.8C490.2,369.3,491.3,368.7,492.8,368.1z"/>
<path class="st1" d="M571,367.9c0.6-0.7,1.4-1.3,2.6-2.1C573,366.4,572.2,367.2,571,367.9z"/>
<path class="st1" d="M374.7,319.2c-0.5,0.8-1.3,1.8-2.3,2.9C372.8,321.3,373.6,320.3,374.7,319.2z"/>
<path class="st1" d="M602.2,320.8c0.3-1,0.8-2.2,1.6-3.6C603.5,318.2,602.9,319.4,602.2,320.8z"/>
<path class="st1" d="M487.7,369.9c-1.1,0.4-2.5,0.7-4.3,1.1C484.5,370.6,485.9,370.2,487.7,369.9z"/>
<path class="st1" d="M308.2,291.2c-0.1,0.7-0.4,1.5-1,2.7C307.4,293.2,307.7,292.3,308.2,291.2z"/>
<path class="st1" d="M237.9,216c-0.6,0.3-1.4,0.6-2.6,1C235.9,216.7,236.8,216.3,237.9,216z"/>
<path class="st1" d="M287.7,357.3c-0.3,1-0.8,2.2-1.5,3.7C286.5,360,287,358.7,287.7,357.3z"/>
<path class="st1" d="M201.8,285.2c0.2,0.6,0.2,1.3,0.2,2.4C201.8,287.1,201.7,286.2,201.8,285.2z"/>
<path class="st1" d="M312.2,264.7c0.3-1,0.8-2.2,1.5-3.7C313.4,262,312.9,263.2,312.2,264.7z"/>
<path class="st1" d="M306.7,295.2c-0.3,0.7-0.7,1.6-1.5,2.7C305.5,297.2,306,296.3,306.7,295.2z"/>
<path class="st1" d="M454.8,398.8c-0.7-0.3-1.6-0.8-2.8-1.5C452.7,397.5,453.7,398,454.8,398.8z"/>
<path class="st1" d="M296.8,326.2c-0.3,0.7-0.8,1.6-1.5,2.7C295.5,328.2,296,327.3,296.8,326.2z"/>
<path class="st1" d="M288.8,353.2c0,0.7-0.2,1.6-0.5,2.7C288.3,355.3,288.5,354.4,288.8,353.2z"/>
<path class="st1" d="M215.8,264.4c-0.1,1.1-0.3,2.6-0.7,4.4C215.3,267.6,215.5,266.2,215.8,264.4z"/>
<path class="st1" d="M212.2,263.6c0.1-1.1,0.3-2.6,0.6-4.4C212.7,260.3,212.5,261.8,212.2,263.6z"/>
<path class="st1" d="M261.9,170.2c0.1,1.1,0.1,2.6,0.1,4.4C262,173.6,261.9,172.1,261.9,170.2z"/>
<path class="st1" d="M290.2,197.6c0.1-0.8,0.3-2,0.7-3.4C290.7,195,290.5,196.2,290.2,197.6z"/>
<path class="st1" d="M312.9,378.4c0,0,0.3,0.1,0.3,0.1S312.9,378.5,312.9,378.4z"/>
<path class="st1" d="M325.1,440c-0.1,0.1-0.2-0.4-0.3-0.6c0.2-0.2,0.5-0.2,0.8-0.2C325.4,439.4,325.3,439.7,325.1,440z"/>
<path class="st1" d="M393.7,291.2c-0.3,0.4-0.7,1-1.5,1.8C392.5,292.5,393,292,393.7,291.2z"/>
<path class="st1" d="M523.3,407.8c0.2-0.4,0.7-1,1.4-1.7C524.5,406.6,524,407.1,523.3,407.8z"/>
<path class="st1" d="M280.4,366.9c0,0,0.2,0.2,0.2,0.2S280.4,367,280.4,366.9z"/>
<path class="st1" d="M600.1,325.8c0.1-0.4,0.3-1.1,0.7-1.9C600.7,324.4,600.5,324.9,600.1,325.8z"/>
<path class="st1" d="M598,330.9c-0.1-0.4-0.2-1-0.1-1.8C597.9,329.4,598,330.1,598,330.9z"/>
<path class="st1" d="M365.8,330.1c-0.3,0.5-0.8,1.1-1.5,1.9C364.5,331.6,365.1,331,365.8,330.1z"/>
<path class="st1" d="M217.9,253.3c-0.1,0.8-0.3,2-0.7,3.5C217.3,256,217.5,254.8,217.9,253.3z"/>
<path class="st1" d="M458.9,399.8c-0.4-0.1-0.9-0.3-1.7-0.6C457.5,399.3,458.1,399.5,458.9,399.8z"/>
<path class="st1" d="M200.8,336.2c-0.3,0.4-0.8,1-1.5,1.7C199.5,337.4,200,336.9,200.8,336.2z"/>
<path class="st1" d="M291.8,340.3c-0.1,0.8-0.3,2-0.7,3.4C291.2,342.9,291.5,341.8,291.8,340.3z"/>
<path class="st1" d="M577.8,197.1c-0.4-0.3-1-0.9-1.7-1.8C576.5,195.6,577.1,196.2,577.8,197.1z"/>
<path class="st1" d="M293.9,197.4c-0.1,0.8-0.3,2-0.7,3.4C293.3,200,293.5,198.8,293.9,197.4z"/>
<path class="st1" d="M481.8,371.1c-0.5,0.2-1.3,0.5-2.5,0.8C479.8,371.7,480.7,371.4,481.8,371.1z"/>
<path class="st1" d="M465.7,401.9c-0.6-0.1-1.4-0.3-2.6-0.7C463.7,401.3,464.5,401.5,465.7,401.9z"/>
<path class="st1" d="M298.2,306.6c0.1-0.6,0.3-1.4,0.6-2.6C298.7,304.6,298.5,305.5,298.2,306.6z"/>
<path class="st1" d="M214.6,305c-0.5,0.1-1.4,0.2-2.6,0.1C212.6,305,213.4,305,214.6,305z"/>
<path class="st1" d="M575.8,194.8c-0.4-0.3-0.9-0.8-1.6-1.5C574.6,193.5,575.1,194.1,575.8,194.8z"/>
<path class="st1" d="M297.2,310.6c0.1-0.5,0.3-1.4,0.6-2.5C297.8,308.7,297.5,309.5,297.2,310.6z"/>
<path class="st1" d="M199.2,311.2c0.4,0.3,0.9,0.8,1.7,1.6C200.5,312.5,199.9,312,199.2,311.2z"/>
<path class="st1" d="M321.8,100.3c-0.1,0.6-0.3,1.4-0.7,2.6C321.3,102.3,321.5,101.5,321.8,100.3z"/>
<path class="st1" d="M285.9,362.3c-0.1,0.5-0.3,1.4-0.7,2.5C285.3,364.3,285.5,363.4,285.9,362.3z"/>
<path class="st1" d="M240.8,215c-0.3,0.2-0.8,0.5-1.5,0.8C239.6,215.6,240.1,215.3,240.8,215z"/>
<path class="st1" d="M289.1,202.7c0.1-0.5,0.3-1.4,0.7-2.5C289.7,200.7,289.5,201.6,289.1,202.7z"/>
<path class="st1" d="M259.3,363.1c0.6,0.1,1.5,0.3,2.6,0.6C261.3,363.7,260.5,363.5,259.3,363.1z"/>
<path class="st1" d="M289.1,334.7c0.1-0.5,0.3-1.3,0.7-2.4C289.8,332.7,289.5,333.6,289.1,334.7z"/>
<path class="st1" d="M213.1,256.7c0.1-0.6,0.3-1.4,0.7-2.6C213.7,254.7,213.5,255.6,213.1,256.7z"/>
<path class="st1" d="M316.2,254.6c0.1-0.6,0.3-1.4,0.6-2.6C316.7,252.6,316.5,253.5,316.2,254.6z"/>
<path class="st1" d="M546,163.8c-0.4-0.3-1.1-0.8-1.9-1.6C544.6,162.5,545.2,163,546,163.8z"/>
<path class="st1" d="M307.2,280.6c0.1-0.5,0.3-1.3,0.7-2.4C307.8,278.7,307.5,279.5,307.2,280.6z"/>
<path class="st1" d="M310.8,281.4c-0.1,0.5-0.3,1.3-0.7,2.4C310.2,283.3,310.5,282.5,310.8,281.4z"/>
<path class="st1" d="M323.9,243.3c-0.1,0.6-0.3,1.4-0.6,2.6C323.3,245.4,323.5,244.5,323.9,243.3z"/>
<path class="st1" d="M218.2,240.6c0.1-0.5,0.3-1.3,0.7-2.4C218.8,238.7,218.5,239.5,218.2,240.6z"/>
<path class="st1" d="M566.1,372.8c0.3-0.4,0.8-0.9,1.6-1.7C567.4,371.6,566.9,372.1,566.1,372.8z"/>
<path class="st1" d="M221.2,230.6c0.1-0.5,0.3-1.4,0.7-2.5C221.7,228.7,221.5,229.5,221.2,230.6z"/>
<path class="st1" d="M223.8,233.4c-0.1,0.5-0.3,1.3-0.7,2.4C223.2,235.2,223.5,234.4,223.8,233.4z"/>
<path class="st1" d="M205.8,301.2c-0.3,0.4-0.8,0.9-1.6,1.7C204.5,302.5,205.1,301.9,205.8,301.2z"/>
<path d="M283.1,354.8c-0.2,0.5-0.5,0.7-0.9,1.1c0.1-0.4,0.3-0.9,0.7-1.6c0.1-0.2,0.1-0.2,0.1-0.2C283,354.2,283.1,354.3,283.1,354.8
	z"/>
<path class="st1" d="M531.2,400.9c0.2-0.2,0.8-0.5,1.5-0.9C532.5,400.2,532,400.5,531.2,400.9z"/>
<path class="st1" d="M376.1,148.7c0.1-0.3,0.3-0.8,0.7-1.6C376.8,147.4,376.5,148,376.1,148.7z"/>
<path class="st1" d="M505.9,458.9c-0.2-0.3-0.4-0.8-0.8-1.6C505.2,457.5,505.5,458.1,505.9,458.9z"/>
<path class="st1" d="M461.7,400.9c-0.3-0.1-0.8-0.3-1.6-0.7C460.4,400.2,460.9,400.5,461.7,400.9z"/>
<path class="st1" d="M535.1,398.9c0.3-0.2,0.8-0.4,1.6-0.8C536.5,398.2,535.9,398.5,535.1,398.9z"/>
<path class="st1" d="M331.3,362.8c0.2-0.2,0.7-0.5,1.5-1C332.5,362.1,332,362.4,331.3,362.8z"/>
<path class="st1" d="M476.8,405.9c-0.3-0.1-0.8-0.3-1.6-0.7C475.4,405.2,476,405.5,476.8,405.9z"/>
<path class="st1" d="M463.2,397.1c0.3,0.1,0.8,0.3,1.6,0.7C464.6,397.8,464,397.5,463.2,397.1z"/>
<path class="st1" d="M525.3,405.8c0.2-0.2,0.7-0.5,1.4-0.9C526.5,405.1,526,405.4,525.3,405.8z"/>
<path class="st1" d="M568.3,370.8c0.2-0.2,0.7-0.5,1.5-0.9C569.5,370.1,569,370.4,568.3,370.8z"/>
<path class="st1" d="M295.1,482.3c0.2,0.3,0.4,0.8,0.8,1.6C295.8,483.6,295.5,483.1,295.1,482.3z"/>
<path class="st1" d="M315,107.5C315,107.5,315,107.5,315,107.5z"/>
<path class="st1" d="M462.1,396.1c0.1-0.1,0.1,0.4,0.1,0.6c-0.1,0.1-0.3-0.1-0.4-0.3C461.8,396.4,461.9,396.2,462.1,396.1z"/>
<path class="st1" d="M330.1,218.8c0.1-0.3,0.3-0.8,0.7-1.6C330.7,217.5,330.5,218,330.1,218.8z"/>
<path class="st1" d="M291.1,326.8c0.1-0.3,0.3-0.9,0.7-1.7C291.7,325.4,291.5,325.9,291.1,326.8z"/>
<path class="st1" d="M601.1,323c0.1-0.2,0.3-0.6,0.7-1.1C601.7,322.1,601.5,322.4,601.1,323z"/>
<path class="st1" d="M381.1,310.3c-0.1,0.3-0.5,0.8-1,1.6C380.3,311.6,380.6,311.1,381.1,310.3z"/>
<path class="st1" d="M203.8,303.1c-0.2,0.2-0.7,0.5-1.5,0.9C202.5,303.8,203,303.6,203.8,303.1z"/>
<path class="st1" d="M564.8,182.9c-0.2-0.3-0.5-0.8-1-1.6C564,181.6,564.4,182.1,564.8,182.9z"/>
<path class="st1" d="M573.8,192.7c-0.2-0.2-0.5-0.7-0.9-1.4C573.1,191.5,573.4,192,573.8,192.7z"/>
<path class="st1" d="M555.7,172.8c-0.3-0.1-0.8-0.3-1.5-0.8C554.5,172.2,555,172.4,555.7,172.8z"/>
<path class="st1" d="M327.1,225.8c0.1-0.3,0.3-0.9,0.7-1.7C327.7,224.4,327.5,224.9,327.1,225.8z"/>
<path class="st1" d="M202.1,289.2c0.2,0.2,0.5,0.7,0.9,1.5C202.9,290.5,202.6,290,202.1,289.2z"/>
<path class="st1" d="M225.9,228.3c-0.1,0.3-0.3,0.8-0.7,1.6C225.3,229.6,225.5,229.1,225.9,228.3z"/>
<path class="st1" d="M324.1,233.8c0.1-0.3,0.3-0.8,0.7-1.7C324.7,232.4,324.5,233,324.1,233.8z"/>
<path class="st1" d="M311.1,266.8c0.1-0.3,0.3-0.8,0.7-1.6C311.7,265.5,311.5,266,311.1,266.8z"/>
<path class="st1" d="M314.1,259.8c0.1-0.3,0.3-0.8,0.7-1.5C314.8,258.5,314.5,259,314.1,259.8z"/>
<path class="st1" d="M318.1,247.8c0.1-0.3,0.3-0.9,0.7-1.7C318.7,246.4,318.5,246.9,318.1,247.8z"/>
<path class="st1" d="M374.1,153.8c0.1-0.3,0.3-0.8,0.7-1.6C374.7,152.4,374.5,153,374.1,153.8z"/>
<path class="st1" d="M291.9,147.2c-0.1,0.3-0.3,0.9-0.7,1.7C291.3,148.6,291.5,148,291.9,147.2z"/>
<path class="st1" d="M370.8,151.1c0,0.1-0.2,0.3-0.6,0.7C370.2,151.8,370.5,151.5,370.8,151.1z"/>
<path class="st1" d="M227.1,218.8c0.1-0.1,0.3-0.3,0.7-0.8C227.8,218.1,227.5,218.4,227.1,218.8z"/>
<path class="st1" d="M313.9,110.2c0.1,0-0.4,0-0.6,0C313.3,110.1,313.5,110.1,313.9,110.2z"/>
<path class="st1" d="M232,219.2c-0.1,0.1-0.3,0.4-0.8,0.8C231.3,220,231.5,219.7,232,219.2z"/>
<path class="st1" d="M311.9,111.2c-0.1,0.1-0.3,0.3-0.7,0.7C311.2,111.8,311.5,111.6,311.9,111.2z"/>
<path class="st1" d="M225.1,220.9c0-0.1,0.2-0.4,0.7-0.9C225.8,220.1,225.5,220.4,225.1,220.9z"/>
<path class="st1" d="M230.1,221.2c-0.1,0.1-0.4,0.3-1,0.7C229.2,221.8,229.5,221.6,230.1,221.2z"/>
<path class="st1" d="M314,111.9c0,0,0-0.2,0-0.7C314,111.2,314,111.5,314,111.9z"/>
<path class="st1" d="M369.8,152.2c0,0.1-0.2,0.3-0.7,0.7C369.2,152.8,369.4,152.6,369.8,152.2z"/>
<path class="st1" d="M331.9,225c0,0.1-0.2,0.4-0.6,1C331.2,225.9,331.5,225.6,331.9,225z"/>
<path class="st1" d="M299.5,487.5C299.5,487.5,299.5,487.5,299.5,487.5z"/>
<path class="st1" d="M372,149.2c-0.1,0.1-0.3,0.3-0.8,0.8C371.3,149.9,371.5,149.6,372,149.2z"/>
<path class="st1" d="M317.9,113.1c0,0.1-0.2,0.4-0.6,1C317.3,114,317.5,113.6,317.9,113.1z"/>
<path class="st1" d="M378.1,132.9c0-0.1,0.2-0.5,0.6-1.1C378.7,132,378.5,132.3,378.1,132.9z"/>
<path class="st1" d="M521.2,238c0-0.1,0.2-0.5,0.6-1.1C521.7,237,521.6,237.4,521.2,238z"/>
<path class="st1" d="M368.1,147.8c0.1-0.1,0.3-0.3,0.7-0.8C368.8,147.1,368.5,147.4,368.1,147.8z"/>
<path class="st1" d="M383.9,143.2c0,0.1-0.2,0.4-0.6,0.9C383.2,144,383.5,143.7,383.9,143.2z"/>
<path class="st1" d="M286.2,470.1c0.1,0.1,0.3,0.3,0.7,0.7C286.8,470.8,286.6,470.5,286.2,470.1z"/>
<path class="st1" d="M369.2,145.8c0-0.1,0.3-0.3,0.7-0.8C369.8,145.1,369.6,145.4,369.2,145.8z"/>
<path d="M303.5,460.5C303.5,460.5,303.5,460.5,303.5,460.5z"/>
<path class="st1" d="M288.2,472.1c0.1,0,0.3,0.3,0.7,0.7C288.8,472.8,288.6,472.5,288.2,472.1z"/>
<path class="st1" d="M278.2,455c0.1,0.1,0.3,0.3,0.7,0.8C278.8,455.8,278.6,455.5,278.2,455z"/>
<path class="st1" d="M221.8,218.2c0,0.1-0.2,0.3-0.7,0.7C221.2,218.8,221.4,218.6,221.8,218.2z"/>
<path class="st1" d="M473.2,400.2c0.1,0,0.3,0.2,0.7,0.7C473.8,400.8,473.6,400.6,473.2,400.2z"/>
<path class="st1" d="M371,143.8c0.1-0.1,0.3-0.3,0.8-0.7C371.8,143.1,371.5,143.4,371,143.8z"/>
<path class="st1" d="M538.8,155.9c-0.1-0.1-0.3-0.3-0.7-0.7C538.2,155.3,538.5,155.5,538.8,155.9z"/>
<path class="st1" d="M379.9,152.1c0,0.1-0.3,0.4-0.7,0.8C379.2,152.8,379.4,152.6,379.9,152.1z"/>
<path class="st1" d="M223,217.2c-0.1,0.1-0.3,0.3-0.8,0.7C222.3,217.8,222.5,217.5,223,217.2z"/>
<path class="st1" d="M330.2,363.8c0-0.1,0.2-0.3,0.6-0.7C330.8,363.2,330.6,363.5,330.2,363.8z"/>
<path class="st1" d="M329.8,361.2c0,0.1-0.2,0.3-0.6,0.8C329.2,361.9,329.4,361.6,329.8,361.2z"/>
<path class="st1" d="M339,361.2c-0.1,0.1-0.3,0.3-0.8,0.7C338.3,361.8,338.5,361.6,339,361.2z"/>
<path class="st1" d="M372.5,361.5C372.5,361.5,372.5,361.5,372.5,361.5z"/>
<path class="st1" d="M387,345.8c0.1-0.1,0.3-0.3,0.8-0.7C387.7,345.2,387.5,345.4,387,345.8z"/>
<path class="st1" d="M362.1,335.2c-0.1,0.1-0.3,0.4-0.9,0.8C361.3,336,361.6,335.7,362.1,335.2z"/>
<path class="st1" d="M337.8,362.2c0,0.1-0.3,0.4-0.6,0.8C337.2,363,337.4,362.7,337.8,362.2z"/>
<path class="st1" d="M363.8,333c0,0.1-0.2,0.5-0.6,1.1C363.3,334,363.5,333.7,363.8,333z"/>
<path class="st1" d="M297.8,324.2c0,0.1-0.3,0.4-0.6,0.8C297.2,324.9,297.4,324.7,297.8,324.2z"/>
<path class="st1" d="M367.1,360.8c0-0.1,0.3-0.3,0.7-0.7C367.7,360.2,367.5,360.5,367.1,360.8z"/>
<path class="st1" d="M336,364.2c-0.1,0.1-0.4,0.3-0.9,0.7C335.2,364.8,335.5,364.6,336,364.2z"/>
<path class="st1" d="M271.1,365.2c0.1,0,0.3,0.2,0.7,0.6C271.8,365.8,271.5,365.6,271.1,365.2z"/>
<path class="st1" d="M377,316.2c-0.1,0.1-0.3,0.4-0.8,0.8C376.3,316.9,376.5,316.7,377,316.2z"/>
<path class="st1" d="M201.2,314c0.1,0.1,0.3,0.3,0.7,0.8C201.8,314.8,201.6,314.5,201.2,314z"/>
<path class="st1" d="M378.9,313.2c-0.1,0.1-0.3,0.3-0.8,0.7C378.2,313.8,378.5,313.6,378.9,313.2z"/>
<path class="st1" d="M330.8,369.1c0,0.1-0.2,0.3-0.6,0.7C330.2,369.8,330.4,369.5,330.8,369.1z"/>
<path class="st1" d="M321,371C321,371,321,371,321,371C321,371,321,371,321,371z"/>
<path class="st1" d="M330,370.1c0,0,0,0.2,0.1,0.6C330,370.8,330,370.5,330,370.1z"/>
<path class="st1" d="M330.9,360.1c0,0.1-0.2,0.4-0.6,0.7C330.2,360.8,330.5,360.5,330.9,360.1z"/>
<path class="st1" d="M368.2,359.8c0-0.1,0.3-0.3,0.7-0.7C368.9,359.2,368.6,359.4,368.2,359.8z"/>
<path class="st1" d="M340.9,359.1c0,0.1-0.2,0.4-0.6,0.9C340.3,360,340.5,359.7,340.9,359.1z"/>
<path class="st1" d="M282,359c0,0-0.1,0-0.1-0.1S282,359,282,359z"/>
<path class="st1" d="M382,128.8c0.1-0.1,0.3-0.4,0.8-0.8C382.7,128.1,382.5,128.3,382,128.8z"/>
<path class="st1" d="M372,357.8c0.1-0.1,0.3-0.3,0.8-0.8C372.7,357.1,372.5,357.4,372,357.8z"/>
<path class="st1" d="M345.2,348c0-0.1,0.3-0.4,0.8-0.9C345.9,347.3,345.7,347.5,345.2,348z"/>
<path class="st1" d="M337.1,356.9c0-0.1,0.2-0.4,0.6-0.9C337.8,356.1,337.5,356.4,337.1,356.9z"/>
<path class="st1" d="M374.1,355.8c0.1-0.1,0.3-0.3,0.7-0.7C374.7,355.2,374.5,355.5,374.1,355.8z"/>
<path class="st1" d="M385,347.8c0.1-0.1,0.3-0.4,0.8-0.8C385.7,347,385.4,347.3,385,347.8z"/>
<path class="st1" d="M345.8,354.2c0,0.1-0.2,0.4-0.7,0.7C345.1,354.8,345.3,354.6,345.8,354.2z"/>
<path class="st1" d="M343.2,350.8c0-0.1,0.2-0.4,0.6-0.9C343.8,350,343.5,350.3,343.2,350.8z"/>
<path class="st1" d="M346.9,353c0,0.1-0.2,0.4-0.6,0.8C346.3,353.7,346.5,353.5,346.9,353z"/>
<path class="st1" d="M388.8,350c0,0.1-0.3,0.4-0.8,0.9C388.1,350.7,388.3,350.5,388.8,350z"/>
<path class="st1" d="M378,352.8c0.1-0.1,0.3-0.3,0.8-0.7C378.8,352.2,378.5,352.4,378,352.8z"/>
<path class="st1" d="M317.1,249.9c0-0.1,0.3-0.4,0.7-0.8C317.8,249.1,317.5,249.4,317.1,249.9z"/>
<path class="st1" d="M478.2,402.2c0.1,0,0.3,0.3,0.8,0.7C478.9,402.8,478.6,402.6,478.2,402.2z"/>
<path class="st1" d="M217,259.1c0-0.1,0,0.3,0,0.5C216.9,259.7,216.9,259.4,217,259.1z"/>
<path class="st1" d="M342,351.8c0.1-0.1,0.3-0.3,0.7-0.7C342.7,351.2,342.5,351.5,342,351.8z"/>
<path class="st1" d="M470.1,399.2c0.1,0,0.4,0.3,0.8,0.7C470.9,399.8,470.6,399.6,470.1,399.2z"/>
<path class="st1" d="M315.8,268.2c0,0.1-0.2,0.3-0.6,0.7C315.2,268.8,315.4,268.5,315.8,268.2z"/>
<path class="st1" d="M314.8,269.2c0,0.1-0.2,0.3-0.6,0.7C314.2,269.8,314.4,269.6,314.8,269.2z"/>
<path class="st1" d="M380,130.8c0.1-0.1,0.3-0.4,0.8-0.8C380.7,130,380.5,130.3,380,130.8z"/>
<path class="st1" d="M204.2,293.1c0.1,0,0.3,0.2,0.7,0.7C204.8,293.7,204.5,293.5,204.2,293.1z"/>
<path class="st1" d="M205.2,294.2c0.1,0,0.3,0.2,0.7,0.7C205.8,294.8,205.6,294.6,205.2,294.2z"/>
<path class="st1" d="M301.1,295c0-0.1,0.2-0.4,0.6-0.8C301.7,294.3,301.5,294.5,301.1,295z"/>
<path class="st1" d="M390.9,296.1c0,0.1-0.2,0.4-0.6,0.8C390.2,296.7,390.5,296.5,390.9,296.1z"/>
<path class="st1" d="M322.9,248.1c0,0.1-0.2,0.4-0.7,0.9C322.2,248.9,322.5,248.6,322.9,248.1z"/>
<path class="st1" d="M389.8,297.2c0,0.1-0.2,0.3-0.6,0.7C389.2,297.8,389.4,297.6,389.8,297.2z"/>
<path class="st1" d="M207.8,301.8c-0.1,0-0.3-0.2-0.7-0.7C207.2,301.2,207.4,301.4,207.8,301.8z"/>
<path class="st1" d="M299.1,301.9c0-0.1,0.3-0.4,0.7-0.8C299.8,301.1,299.6,301.4,299.1,301.9z"/>
<path class="st1" d="M299,375.8c0.1-0.1,0.4-0.3,0.9-0.7C299.8,375.2,299.5,375.4,299,375.8z"/>
<path class="st1" d="M208.8,303c-0.1-0.1-0.3-0.3-0.7-0.8C208.2,302.3,208.4,302.6,208.8,303z"/>
<path class="st1" d="M210.9,304.9c-0.1,0-0.4-0.2-1-0.6C210,304.3,210.3,304.5,210.9,304.9z"/>
<path class="st1" d="M201.9,305.1c0,0.1-0.2,0.4-0.6,0.9C201.3,306,201.5,305.7,201.9,305.1z"/>
<path class="st1" d="M321,371C321,371,321,371,321,371C321,371,321,371,321,371z"/>
<path class="st1" d="M200,307.2c-0.1,0.1-0.3,0.3-0.8,0.7C199.3,307.8,199.5,307.6,200,307.2z"/>
<path class="st5" d="M481,408.4c0.8-0.8,1.7-1.5,2.9-2.3c1.7,0.7,3.1,1.6,5,2.9c0.8,0.6,1.1,0.8,1.4,1c0.8,0.9,1.5,1.7,2.6,3
	c0.7,1,1,1.5,1.4,2c1.2,2.1,2.3,4.2,3.6,6.5c-0.8,2.8-2.1,2.3-3.8,0.6c-0.8-1.2-1.3-2.3-2.2-3.8c-0.5-0.8-0.8-1.1-1-1.4
	c-2.4-2.2-4.9-4.4-7.8-6.9c-0.8-0.6-1.1-0.8-1.4-1C481.5,408.9,481.3,408.7,481,408.4z"/>
<path class="st0" d="M355.3,174.9c-0.8-0.4-1.4-1-2.2-1.8c1.7-4,3.6-7.7,5.9-11.9c0.6-0.7,0.8-0.9,1-1.2c0,0,0,0-0.1-0.1
	c0.8,0.2,1.6,0.5,2.8,0.9c-0.6,2.2-1.5,4.3-2.7,6.9c-0.5,0.7-0.7,1-1,1.2c0,0,0,0-0.2,0.2c-0.4,0.4-0.6,0.6-0.8,0.9
	c-0.3,0.8-0.5,1.6-1,2.8c-0.5,0.7-0.7,1-0.9,1.3C355.8,174.4,355.6,174.6,355.3,174.9z"/>
<path class="st0" d="M339.8,198.2c0.8,0.6,1.4,1.5,2.1,2.6c-1.5,4-3.1,7.8-4.8,11.8c-0.8-0.9-1.4-2-2.1-3.5c0.9-2.4,1.8-4.5,3-7.1
	c0.5-1.1,0.8-1.6,1-2.1C339.2,199.4,339.4,198.9,339.8,198.2z"/>
<path class="st1" d="M494.1,414.7c-0.2-0.2-0.6-0.7-1-1.5C493.3,413.5,493.7,414,494.1,414.7z"/>
<path class="st1" d="M338.9,200.2c-0.1,0.3-0.3,0.8-0.7,1.5C338.3,201.4,338.5,200.9,338.9,200.2z"/>
<path class="st1" d="M490.1,409.8c-0.1,0-0.4-0.3-0.9-0.6C489.2,409.2,489.5,409.4,490.1,409.8z"/>
<path class="st1" d="M359.8,160.1c0,0.1-0.2,0.3-0.6,0.7C359.2,160.8,359.4,160.5,359.8,160.1z"/>
<path class="st0" d="M298,182.7c-1.6,0.8-3.2,1.3-4.9,1.5c-0.1-0.3-0.1-0.5,0.1-1.2c0.7-1.7,1.2-2.9,1.7-4.2c0-0.4,0-0.8,0.1-1.8
	c0.4-1.1,0.6-1.7,0.9-2.2c0,0,0-0.4,0.2-1c0.4-1.7,0.6-2.8,0.8-3.9c0-0.4,0-0.8,0.1-1.8c0.4-1.1,0.6-1.7,0.9-2.2c0,0,0-0.5,0.2-1
	c0.4-1.3,0.6-2.1,0.8-3c0-0.4,0-0.9,0.1-1.9c0.4-1.4,0.6-2.3,0.8-3.1c0,0,0-0.5,0.2-1c0.4-1.3,0.6-2.1,0.8-3c0-0.2,0-0.3,0.2-1
	c0.4-1.4,0.6-2.2,0.8-3c0-0.4,0-0.8,0.3-1.6c1.1,0.4,2,1.2,2.9,2c0,0.4,0,0.8-0.2,1.7c-0.4,1.1-0.6,1.7-0.9,2.2
	c-0.3,1.7-0.6,3.4-1.1,5.8c-0.5,1.5-0.7,2.3-0.9,3.2c0,0.7,0,1.4-0.2,2.6c-0.4,0.8-0.6,1.1-0.9,1.4c0,0,0,0.5-0.2,1
	c-0.4,1.7-0.6,2.9-0.8,4c0,0,0,0.4-0.2,1c-0.4,1.3-0.6,2.1-0.9,2.9C298.7,177.4,298.4,179.8,298,182.7z"/>
<path class="st0" d="M310.5,119.4c1.1-0.1,2,0.2,3.2,0.6c0,1.5-0.3,2.9-0.8,4.9c-0.5,1.2-0.7,1.7-0.9,2.3c0,0,0,0.4-0.1,0.9
	c-0.4,1-0.6,1.5-0.9,2c0,0,0,0.5-0.1,1c-0.4,1-0.6,1.5-0.9,2c-0.3,1.7-0.5,3.5-1.1,5.7c-0.5,0.8-0.7,1.1-0.9,1.3c0,0,0,0.5-0.3,0.7
	c-1.1-0.1-1.9-0.5-2.8-0.8c0,0,0,0,0.2-0.3c0.4-1.1,0.6-2,0.9-2.8c0,0,0-0.5,0.2-1c0.4-1.3,0.6-2.1,0.9-2.9c0-0.4,0-0.9,0.1-1.9
	c0.4-1.1,0.6-1.7,0.9-2.2C308.8,125.8,309.6,122.8,310.5,119.4z"/>
<path class="st6" d="M304.7,140.2c1,0.1,1.9,0.4,3,0.8c-0.6,2.6-1.3,5.1-2.4,8c-1.1-0.5-2-1.2-3.1-2
	C302.8,144.8,303.7,142.7,304.7,140.2z"/>
<path class="st1" d="M300.2,170.8c0.1-0.8,0.3-2,0.6-3.5C300.8,168.2,300.6,169.4,300.2,170.8z"/>
<path class="st1" d="M299.2,174.8c0.1-0.5,0.3-1.3,0.7-2.4C299.7,172.9,299.5,173.7,299.2,174.8z"/>
<path class="st1" d="M302.2,161.8c0.1-0.5,0.3-1.4,0.7-2.5C302.8,159.8,302.6,160.7,302.2,161.8z"/>
<path class="st1" d="M311.2,129.8c0.1-0.3,0.3-0.8,0.7-1.6C311.8,128.5,311.5,129,311.2,129.8z"/>
<path class="st1" d="M312.2,126.9c0.1-0.3,0.3-0.9,0.7-1.7C312.8,125.5,312.6,126.1,312.2,126.9z"/>
<path class="st1" d="M310.2,132.8c0.1-0.3,0.3-0.8,0.7-1.6C310.8,131.5,310.5,132.1,310.2,132.8z"/>
<path class="st1" d="M304.2,152.9c0.1-0.3,0.3-0.9,0.7-1.7C304.8,151.5,304.6,152.1,304.2,152.9z"/>
<path class="st1" d="M301.2,166c0-0.1,0.3-0.4,0.7-0.9C301.8,165.2,301.6,165.5,301.2,166z"/>
<path class="st1" d="M308.2,139.9c0-0.1,0.3-0.3,0.7-0.8C308.8,139.2,308.6,139.5,308.2,139.9z"/>
<path class="st1" d="M492.1,433c-3.1,1.3-6.2,2.6-9.9,3.6c-1.8-1-3-1.9-4.3-2.7c3.8-0.9,7.5-1.9,11.9-2.7
	C490.9,431.9,491.5,432.5,492.1,433z"/>
<path class="st5" d="M492.4,433c-0.9-0.5-1.4-1-2.2-1.8c0-0.5,0.1-0.7,0.7-1.2c0.7-0.5,1.1-0.7,1.4-1c0.4-0.3,0.8-0.5,1.5-0.9
	c0.5,1.1,0.8,2.2,1.1,3.8C494.1,432.4,493.4,432.7,492.4,433z"/>
<path class="st5" d="M477.6,434c1.5,0.8,2.8,1.6,4.2,2.7c-0.5,0.3-1.1,0.4-2.2,0.5c-1.6-0.6-2.8-1.2-4.3-2
	C475.8,434.7,476.5,434.4,477.6,434z"/>
<path class="st1" d="M492,429.1c-0.1,0.1-0.4,0.3-1,0.7C491,429.7,491.3,429.5,492,429.1z"/>
<path class="st1" d="M491.1,417.2c0.1,0.1,0.3,0.3,0.7,0.9C491.7,418,491.5,417.7,491.1,417.2z"/>
<path class="st1" d="M481.9,409.2c0.1,0,0.4,0.2,0.9,0.6C482.7,409.8,482.4,409.6,481.9,409.2z"/>
<path class="st1" d="M359.2,168.8c0-0.1,0.2-0.3,0.6-0.8C359.9,168.2,359.7,168.5,359.2,168.8z"/>
<path class="st1" d="M356.2,174c0-0.1,0.3-0.3,0.6-0.8C356.8,173.3,356.6,173.5,356.2,174z"/>
<path class="st0" d="M335.2,216.8c0-0.1,0.3-0.3,0.6-0.6C335.8,216.2,335.6,216.5,335.2,216.8z"/>
<path class="st1" d="M294.8,179.1c-0.3,1-0.8,2.2-1.5,3.6C293.5,181.8,294,180.6,294.8,179.1z"/>
<path class="st1" d="M296.8,170.2c-0.1,0.8-0.3,1.9-0.7,3.4C296.2,172.8,296.5,171.7,296.8,170.2z"/>
<path class="st1" d="M300.8,153.2c-0.1,0.5-0.3,1.3-0.7,2.4C300.2,155.1,300.5,154.3,300.8,153.2z"/>
<path class="st0" d="M301.8,149.2c-0.1,0.5-0.3,1.3-0.7,2.4C301.3,151.1,301.5,150.3,301.8,149.2z"/>
<path class="st1" d="M305.8,137.2c-0.1,0.5-0.3,1.4-0.7,2.5C305.2,139.2,305.4,138.3,305.8,137.2z"/>
<path class="st1" d="M298.8,162.2c-0.1,0.5-0.3,1.3-0.7,2.4C298.3,164.1,298.5,163.3,298.8,162.2z"/>
<path class="st1" d="M306.9,133.3c-0.1,0.5-0.3,1.3-0.7,2.4C306.3,135.2,306.5,134.3,306.9,133.3z"/>
<path class="st0" d="M299.8,157.2c-0.1,0.5-0.3,1.4-0.7,2.5C299.2,159.1,299.5,158.3,299.8,157.2z"/>
<path class="st0" d="M297.8,166.1c-0.1,0.3-0.3,0.8-0.7,1.6C297.2,167.5,297.4,166.9,297.8,166.1z"/>
<path class="st1" d="M307.8,129.1c-0.1,0.3-0.3,0.8-0.7,1.6C307.2,130.5,307.4,129.9,307.8,129.1z"/>
<path class="st7" d="M295.8,175.1c-0.1,0.3-0.3,0.9-0.7,1.7C295.2,176.5,295.4,175.9,295.8,175.1z"/>
<path class="st0" d="M54.9,495.2c39.3-85.6,59.6-128.2,110.4-171.3c18.2-15.5,40.6-31.2,42.7-29.4c1.7,1.5-11.3,14.5-26,32.4
	c-19.1,23.3-30,41.7-42.9,63.4c-25.5,42.9-43.7,85.8-71.5,109.8c-3.3,2.8-13.2,11.5-16.1,9.7C49.3,508.4,51.9,501.5,54.9,495.2z"/>
<path d="M147.7,156.3c-7,6.2-24.5,64.1-24.5,64.1c-5.5,15.1-10,30.7-15.5,45.9c-8.7,24.2-16.5,48.7-27.1,72.1
	c-7.4,16.4-14.5,23.6-31.9,56.4c-3.4,6.4-6.1,11.7-8,15.3c0.4-1.7,4.2-17.6,4.6-19.4c4.1-17.2,14.9-63,16-67.4
	c15.5-64.5,79.7-159.8,78.1-160.7c-0.6-0.3-9.2,12.3-9.2,12.4c0,0,0.6-0.8,1-1.4c0.1-0.2,0.2-0.3,0.3-0.5c0.3-0.5,0.6-1,1.2-2
	c0.5-0.9,0.8-1.3,1-1.7c0,0,0,0,0.3-0.2c0.5-0.6,0.8-0.9,1.1-1.2c1.3-1.5,2.6-3.1,4.4-5.3c0.7-1,0.9-1.5,1.1-1.9
	c1.3-1.9,2.7-3.8,4.5-6.3c1.1-1,1.7-1.5,2.2-1.9c0,0,0.1,0,0.3-0.2c0.5-0.5,0.7-0.8,0.9-1.2c0,0,0,0.1,0.3,0.2
	c0.5,0.4,0.8,0.7,1.1,0.9c0,0.1,0,0.2,0,0.3C149.9,154.5,147.9,156.1,147.7,156.3z"/>
<path class="st0" d="M55.9,363.4c4.4-12.8,8.9-25.5,13.1-38.3c3-9,5.3-18.3,8.2-27.4c4.6-14.4,8.8-29.1,14.5-43
	c4.8-11.7,11.5-22.5,17.4-33.7c0.3-0.6,1-0.9,2.3-1.9c-0.1,2-0.1,3.2-0.3,4.3c-2.7,13.4-5.7,26.8-8.3,40.2
	c-4.7,24.5-11.8,48-25,69.1c-4,6.4-8,12.8-12.2,19.5c-0.4,0.6-0.6,0.9-0.7,1.1c-0.2,0.3-0.3,0.6-0.6,1.2c-0.3,0.6-0.4,0.8-0.5,1
	c0,0,0,0-0.1,0.1c-0.3,0.3-0.4,0.5-0.6,0.7c-0.7,0.9-1.5,1.9-2.4,3.1c-0.4,0.6-0.5,0.9-0.6,1.1c-0.7,1.1-1.5,2.3-2.5,3.8
	c-0.6,0.6-0.9,0.9-1.2,1.2c0,0,0,0-0.2,0.1c-0.3,0.3-0.4,0.5-0.5,0.7c0,0,0,0-0.1-0.1c-0.3-0.2-0.5-0.4-0.6-0.6c0,0-0.1-0.3,0-0.6
	c0.2-0.5,0.4-0.7,0.5-0.9c0,0,0,0,0.1-0.1C55.7,363.8,55.8,363.6,55.9,363.4z"/>
<path class="st0" d="M120.5,266.2"/>
</svg>
