<svg xmlns="http://www.w3.org/2000/svg" x="0px" y="0px"
width="64" height="64"
viewBox="0 0 172 172"
style=" fill:#undefined;"><g fill="currentColor" fill-rule="nonzero" stroke="none" stroke-width="1" stroke-linecap="butt" stroke-linejoin="miter" stroke-miterlimit="10" stroke-dasharray="" stroke-dashoffset="0" font-family="none" font-weight="none" font-size="none" text-anchor="none" style="mix-blend-mode: normal"><path d="M0,172v-172h172v172z" fill="none"></path><g fill="blank"><path d="M129,21.5h-86c-11.87337,0 -21.5,9.62663 -21.5,21.5v86c0,11.87338 9.62663,21.5 21.5,21.5h86c11.87338,0 21.5,-9.62662 21.5,-21.5v-86c0,-11.87337 -9.62662,-21.5 -21.5,-21.5zM64.5,126.3125h-13.4375v-53.75h13.4375zM64.57794,61.83669c-1.73881,1.77375 -4.00706,2.66331 -6.79669,2.66331c-2.75737,0 -5.01219,-0.91644 -6.76981,-2.74931c-1.75763,-1.83287 -2.63644,-4.08231 -2.63644,-6.74294c0,-2.74125 0.87881,-4.97725 2.63644,-6.71338c1.75762,-1.73881 4.01244,-2.60687 6.76981,-2.60687c2.78963,0 5.05788,0.86806 6.79669,2.60419c1.73881,1.73612 2.60956,3.97481 2.60956,6.71606c0,2.77887 -0.87075,5.05519 -2.60956,6.82894zM126.3125,126.3125h-13.4375v-29.86619c0,-8.32856 -4.79987,-13.13381 -10.75,-13.13381c-2.86756,0 -6.11138,1.7415 -7.96844,3.94794c-1.85706,2.20644 -2.78156,5.00413 -2.78156,8.39844v30.65362h-13.4375v-53.75h13.4375v8.50325h0.20963c3.956,-6.54406 9.70994,-9.79325 17.26988,-9.81475c10.73925,-0.03225 17.458,8.03025 17.458,22.15037z"></path></g></g></svg>