<svg xmlns="http://www.w3.org/2000/svg" width="64" height="64" viewBox="0 0 172 172" fill="#undefined"><g fill="currentColor" stroke-miterlimit="10" font-family="none" font-weight="none" font-size="none" text-anchor="none" style="mix-blend-mode:normal"><path d="M0 172V0h172v172z" fill="none"/><path d="M129 21.5H43c-11.873 0-21.5 9.627-21.5 21.5v86c0 11.873 9.627 21.5 21.5 21.5h86c11.873 0 21.5-9.627 21.5-21.5V43c0-11.873-9.627-21.5-21.5-21.5zM64.5 126.313H51.062v-53.75H64.5zm.078-64.476C62.839 63.61 60.57 64.5 57.78 64.5c-2.757 0-5.012-.916-6.77-2.75-1.757-1.832-2.636-4.082-2.636-6.742 0-2.742.879-4.978 2.636-6.714 1.758-1.738 4.013-2.606 6.77-2.606 2.79 0 5.058.868 6.797 2.604 1.739 1.736 2.61 3.975 2.61 6.716 0 2.779-.871 5.055-2.61 6.829zm61.734 64.475h-13.437V96.447c0-8.328-4.8-13.134-10.75-13.134-2.868 0-6.111 1.742-7.968 3.948-1.857 2.207-2.782 5.005-2.782 8.399v30.654H77.937v-53.75h13.438v8.503h.21c3.956-6.544 9.71-9.793 17.27-9.815 10.739-.032 17.458 8.03 17.458 22.15z" fill="blank"/></g></svg>