<svg xmlns="http://www.w3.org/2000/svg" width="64" height="64" viewBox="0 0 172 172" fill="#undefined"><g fill="currentColor" stroke-miterlimit="10" font-family="none" font-weight="none" font-size="none" text-anchor="none" style="mix-blend-mode:normal"><path d="M0 172V0h172v172z" fill="none"/><path d="M86 16.125C47.41 16.125 16.125 47.41 16.125 86c0 32.994 22.876 60.63 53.63 67.956a70.887 70.887 0 01-4.717-1.287v-16.01s-2.62.874-6.115.874c-9.774 0-13.835-8.721-14.848-13.102-.615-2.668-2.223-5.197-3.948-6.743-2.061-1.838-3.026-1.843-3.04-2.472-.026-1.32 1.769-1.266 2.62-1.266 4.368 0 7.679 4.647 9.216 7.05 3.808 5.93 7.896 6.925 10 6.925 2.62 0 4.884-.392 6.442-1.145.72-5.074 2.978-9.594 6.66-12.83-16.386-3.276-27.95-12.674-27.95-27.95 0-7.869 3.158-15.101 8.42-20.941-.538-1.524-1.432-4.606-1.432-9.63 0-3.318.23-7.393 1.746-11.354 0 0 9.966.07 19.364 8.97A49.402 49.402 0 0186 51.064c4.848 0 9.49.72 13.827 1.983 9.398-8.901 19.364-8.971 19.364-8.971 1.523 3.961 1.747 8.036 1.747 11.355 0 5.415-.72 8.573-1.161 9.935 5.1 5.787 8.148 12.906 8.148 20.635 0 15.276-11.564 24.674-27.95 27.95 4.375 3.843 6.988 9.441 6.988 15.722v22.997a68.859 68.859 0 01-4.717 1.287c30.753-7.326 53.629-34.962 53.629-67.956 0-38.59-31.285-69.875-69.875-69.875zm4.872 139.562a71.326 71.326 0 000 0zm10.678-1.57zM86 155.875a71.326 71.326 0 000 0zm-5.945-.269z" fill="blank"/></g></svg>