<svg xmlns="http://www.w3.org/2000/svg" x="0px" y="0px"
width="24" height="24"
viewBox="0 0 172 172"
style=" fill:#undefined;"><g fill="currentColor" fill-rule="nonzero" stroke="none" stroke-width="1" stroke-linecap="butt" stroke-linejoin="miter" stroke-miterlimit="10" stroke-dasharray="" stroke-dashoffset="0" font-family="none" font-weight="none" font-size="none" text-anchor="none" style="mix-blend-mode: normal"><path d="M0,172v-172h172v172z" fill="none"></path><g fill="blank"><path d="M78.83333,14.33333v14.33333h-10.42806c-4.93067,0 -7.40944,5.95808 -3.91927,9.44824l17.59473,17.59473c2.15717,2.15717 5.68138,2.15717 7.83854,0l17.59473,-17.59473c3.49017,-3.49017 1.0114,-9.44824 -3.91927,-9.44824h-10.42806v-14.33333zM28.66667,28.66667c-7.91917,0 -14.33333,6.41417 -14.33333,14.33333v86c0,7.91917 6.41417,14.33333 14.33333,14.33333h114.66667c7.91917,0 14.33333,-6.41417 14.33333,-14.33333v-86c0,-7.91917 -6.41417,-14.33333 -14.33333,-14.33333h-14.33333c-1.89917,0 -3.72689,0.75228 -5.06706,2.09961c-4.515,4.515 -1.31844,12.23372 5.06706,12.23372h14.33333v14.34733l-53.59603,33.48177c-2.28617,1.42617 -5.18127,1.42617 -7.4746,0l-53.59603,-33.48177v-14.34733h14.33333c6.3855,0 9.58206,-7.71872 5.06706,-12.23372c-1.34017,-1.34733 -3.16789,-2.09961 -5.06706,-2.09961z"></path></g></g></svg>