<svg xmlns="http://www.w3.org/2000/svg" width="24" height="24" viewBox="0 0 172 172" fill="#undefined"><g fill="currentColor" stroke-miterlimit="10" font-family="none" font-weight="none" font-size="none" text-anchor="none" style="mix-blend-mode:normal"><path d="M0 172V0h172v172z" fill="none"/><path d="M78.833 14.333v14.334H68.405c-4.93 0-7.41 5.958-3.919 9.448L82.081 55.71c2.157 2.157 5.681 2.157 7.838 0l17.595-17.595c3.49-3.49 1.011-9.448-3.92-9.448H93.168V14.333zM28.667 28.667c-7.92 0-14.334 6.414-14.334 14.333v86c0 7.92 6.415 14.333 14.334 14.333h114.666c7.92 0 14.334-6.414 14.334-14.333V43c0-7.92-6.415-14.333-14.334-14.333H129c-1.9 0-3.727.752-5.067 2.1C119.418 35.28 122.615 43 129 43h14.333v14.347L89.737 90.83a7.064 7.064 0 01-7.474 0L28.667 57.347V43H43c6.386 0 9.582-7.719 5.067-12.234a7.148 7.148 0 00-5.067-2.1z" fill="blank"/></g></svg>