<svg xmlns="http://www.w3.org/2000/svg" x="0px" y="0px"
width="64" height="64"
viewBox="0 0 172 172"
style=" fill:#undefined;"><g fill="currentColor" fill-rule="nonzero" stroke="none" stroke-width="1" stroke-linecap="butt" stroke-linejoin="miter" stroke-miterlimit="10" stroke-dasharray="" stroke-dashoffset="0" font-family="none" font-weight="none" font-size="none" text-anchor="none" style="mix-blend-mode: normal"><path d="M0,172v-172h172v172z" fill="none"></path><g fill="blank"><path d="M86,16.125c-38.58981,0 -69.875,31.28519 -69.875,69.875c0,32.99444 22.876,60.63 53.62906,67.95613c-1.591,-0.37894 -3.16856,-0.80356 -4.71656,-1.28731v-16.00944c0,0 -2.62031,0.87344 -6.11406,0.87344c-9.77444,0 -13.83525,-8.72094 -14.84844,-13.10156c-0.61544,-2.66869 -2.22256,-5.19762 -3.94794,-6.74294c-2.06131,-1.83825 -3.02613,-1.84363 -3.03956,-2.4725c-0.02688,-1.31956 1.76837,-1.26581 2.62031,-1.26581c4.36719,0 7.67819,4.64669 9.21544,7.04931c3.80819,5.93131 7.89587,6.92569 10.00019,6.92569c2.62031,0 4.88319,-0.39238 6.44194,-1.14487c0.72025,-5.074 2.97775,-9.59437 6.65963,-12.83012c-16.38569,-3.27606 -27.95,-12.67425 -27.95,-27.95c0,-7.869 3.15781,-15.10106 8.41994,-20.941c-0.5375,-1.52381 -1.43244,-4.60637 -1.43244,-9.62931c0,-3.31906 0.23112,-7.39331 1.74687,-11.35469c0,0 9.96525,0.06988 19.36344,8.97088c4.33763,-1.26312 8.97894,-1.98337 13.82719,-1.98337c4.84825,0 9.48956,0.72025 13.82719,1.98337c9.39819,-8.901 19.36344,-8.97087 19.36344,-8.97087c1.52381,3.96138 1.74688,8.03563 1.74688,11.35469c0,5.41531 -0.72025,8.57313 -1.161,9.93569c5.10088,5.78619 8.1485,12.90537 8.1485,20.63463c0,15.27575 -11.56431,24.67394 -27.95,27.95c4.37525,3.84312 6.9875,9.44119 6.9875,15.72187v22.99694c-1.548,0.48644 -3.12287,0.90838 -4.71656,1.28731c30.75306,-7.32613 53.62906,-34.96169 53.62906,-67.95613c0,-38.58981 -31.28519,-69.875 -69.875,-69.875zM90.87244,155.68687c-1.60981,0.11288 -3.23306,0.18813 -4.87244,0.18813c1.63938,0 3.25994,-0.07794 4.87244,-0.18813zM101.54988,154.11737c-3.12825,0.71219 -6.33444,1.21206 -9.60781,1.48888c3.27338,-0.27681 6.47956,-0.77937 9.60781,-1.48888zM86,155.875c-1.63938,0 -3.26262,-0.07525 -4.87244,-0.18813c1.6125,0.11019 3.23306,0.18813 4.87244,0.18813zM80.05525,155.60625c-3.27069,-0.27681 -6.47956,-0.77669 -9.60513,-1.48888c3.12825,0.7095 6.33444,1.21206 9.60513,1.48888z"></path></g></g></svg>