<svg version="1.1" id="Layer_1" xmlns="http://www.w3.org/2000/svg" xmlns:xlink="http://www.w3.org/1999/xlink" x="0px" y="0px"
	 width="100%" viewBox="0 0 910 644" enable-background="new 0 0 105 244" xml:space="preserve">
<path fill="currentColor" opacity="1.000000" stroke="currentColor" 
	d="
M675.882446,134.063812 
	C723.636108,167.223160 760.003601,210.010376 787.859253,260.325897 
	C814.839722,309.060577 831.579651,361.264496 840.041382,416.173126 
	C843.361511,437.717712 844.826355,459.437897 845.506042,481.270386 
	C847.317993,539.476685 838.858582,596.087280 820.362061,651.199097 
	C798.129395,717.443176 763.128601,775.780701 711.327576,823.233643 
	C671.473511,859.742432 625.493896,885.079895 572.087952,895.512512 
	C509.926758,907.655518 450.798889,898.187988 395.069702,868.384583 
	C336.211456,836.907776 292.544739,789.924133 259.254059,732.793396 
	C229.468231,681.677368 211.292282,626.490723 202.553497,568.074158 
	C198.010101,537.702820 195.893158,507.150482 197.004349,476.501068 
	C199.911362,396.318146 219.374390,320.579041 260.075714,250.984497 
	C288.306458,202.713226 324.732300,161.790894 371.698273,130.843765 
	C407.284821,107.394844 446.151794,92.285782 488.489441,86.944359 
	C542.207275,80.167175 593.211914,89.751175 641.581726,113.866913 
	C653.378357,119.748352 664.682739,126.462349 675.882446,134.063812 
M694.331299,808.827637 
	C728.530884,777.967163 755.297607,741.479309 775.941223,700.441956 
	C803.079590,646.493591 817.764343,589.084290 822.564026,529.065430 
	C824.786011,501.280060 824.206299,473.436768 821.484314,445.725098 
	C817.613586,406.319000 809.383850,367.808380 795.596130,330.594055 
	C771.328064,265.092072 734.968811,207.886185 679.487854,164.323105 
	C627.017517,123.123940 567.771118,102.573311 500.450012,108.202530 
	C473.471039,110.458443 447.663208,117.237572 422.966949,128.190323 
	C371.789368,150.887482 331.463318,186.774277 299.083405,231.824524 
	C251.350815,298.235046 227.252563,373.229828 220.471588,454.140900 
	C218.188568,481.381683 218.754425,508.685974 221.092911,535.981079 
	C224.074905,570.787354 230.669861,604.834167 241.408936,638.026489 
	C262.996582,704.749695 297.199158,763.735657 350.335510,810.414490 
	C403.153107,856.813293 464.138550,881.709961 535.454346,877.830688 
	C551.970764,876.932312 568.182129,874.293701 584.127197,869.963928 
	C625.633118,858.693237 661.661011,837.507385 694.331299,808.827637 
z"/>
<path fill="currentColor" opacity="1.000000" stroke="currentColor" 
	d="
M437.025879,410.979889 
	C438.380524,416.019409 435.485840,415.484497 432.382874,414.445129 
	C416.775665,409.217316 402.425781,401.561432 389.119781,391.910278 
	C375.502228,382.033142 364.659363,369.920990 358.468445,354.033295 
	C365.464630,390.676575 380.541351,421.854828 415.785126,439.699036 
	C434.117706,448.980988 453.401062,455.946869 472.450287,463.477386 
	C486.950256,469.209442 500.695587,476.175354 513.002625,485.835022 
	C516.347778,488.460571 519.556885,491.415985 520.565857,495.522400 
	C521.757812,500.373322 524.770874,502.210449 529.074097,504.006653 
	C540.319275,508.700409 548.845215,516.899963 555.250000,527.161865 
	C567.597107,546.944641 579.510864,566.989502 592.532043,586.358826 
	C609.480713,611.570312 628.649231,635.068787 647.369812,658.925232 
	C655.187866,668.888123 662.565186,679.188477 669.346252,689.900024 
	C684.195068,713.355225 694.149658,737.855652 685.725159,766.439697 
	C690.606628,761.543213 693.002930,755.412170 694.727539,749.052612 
	C700.093811,729.264954 699.624390,709.152405 697.344849,689.039368 
	C695.583557,673.499634 692.798401,658.113098 688.770020,642.980042 
	C688.043274,640.249817 687.169128,637.548340 686.184326,634.900085 
	C684.967712,631.628418 682.825073,630.624451 679.498413,632.301514 
	C677.280212,633.419739 674.942139,634.455017 672.538452,635.019043 
	C666.925964,636.335938 662.973206,632.621094 663.772461,626.884766 
	C664.534180,621.417847 668.195312,618.027527 672.716431,615.554688 
	C675.883301,613.822449 679.296326,612.540222 682.943848,610.902466 
	C680.211914,608.331665 677.870483,609.657043 675.676819,611.046570 
	C671.602905,613.627075 667.887573,616.804871 663.412781,618.708618 
	C660.880981,619.785767 657.995544,621.619263 655.587158,618.888550 
	C653.495056,616.516602 654.899780,613.764465 656.094482,611.401184 
	C658.968384,605.716309 662.680054,600.578247 667.109070,596.009155 
	C668.544250,594.528564 668.766663,593.426086 668.288391,591.279907 
	C667.174561,586.281494 667.220154,581.054810 665.509338,576.121826 
	C664.540527,573.328369 663.275757,571.213318 660.181458,570.083008 
	C655.876038,568.510010 654.854797,565.663574 657.505859,561.864746 
	C659.517212,558.982483 659.210815,556.435547 658.593079,553.441956 
	C657.048828,545.959473 655.898743,538.390381 654.181702,530.950378 
	C652.650146,524.314209 651.122986,523.524597 644.251648,524.584534 
	C632.063721,526.464478 620.091675,529.397217 608.083374,532.137024 
	C596.928772,534.682007 597.072388,534.766479 596.004456,545.898315 
	C595.290161,553.344360 594.154114,560.750000 593.198425,568.172668 
	C593.087769,569.031616 592.772705,569.778015 591.765930,570.129333 
	C589.437988,570.066162 589.548157,567.947205 589.195801,566.528931 
	C587.096252,558.079163 586.178101,549.490112 586.605774,540.775452 
	C586.733093,538.182251 587.205017,535.529053 589.713806,534.353210 
	C592.878967,532.869690 592.897949,530.388672 592.575439,527.666565 
	C591.145508,515.596191 589.773743,503.513031 585.719727,491.942627 
	C580.953003,478.338257 580.046387,463.912140 576.879822,449.963593 
	C576.186218,446.908234 576.433594,443.640869 577.691284,440.611511 
	C580.992981,432.659119 582.300354,424.301544 582.623779,415.768219 
	C582.779175,411.667725 584.932007,408.823853 588.168823,406.815186 
	C592.750916,403.971680 596.777100,400.598755 600.170044,396.389465 
	C601.718384,394.468597 603.553345,392.356689 606.407166,392.929840 
	C609.630188,393.577148 609.854492,396.601715 610.795898,399.881897 
	C612.932739,395.207275 614.820374,391.077850 616.807190,386.731384 
	C614.859924,385.657379 610.856812,386.537231 613.463074,382.206879 
	C602.001404,386.976746 596.191528,386.616577 593.583557,380.339630 
	C589.546387,370.623016 588.172729,361.947113 598.871277,356.020325 
	C599.731750,346.365051 603.205444,337.700653 605.815796,327.921234 
	C620.255249,335.460846 621.050476,349.533569 624.746582,362.232971 
	C634.880737,349.843964 635.644287,349.732422 642.224243,359.430206 
	C647.424988,357.441406 652.678284,355.403168 657.957764,353.435272 
	C659.198486,352.972839 660.526367,352.742676 661.816528,352.414917 
	C664.173035,351.816132 666.702881,351.438202 668.077637,353.903564 
	C669.505188,356.463684 667.703308,358.554443 665.808777,359.874237 
	C658.534851,364.941559 652.603271,371.538208 645.763794,377.081818 
	C642.890991,379.410309 642.443848,384.832947 645.771118,386.255920 
	C653.704651,389.648926 657.863647,395.828644 660.023682,403.554016 
	C671.021423,404.137146 680.640320,416.709900 677.587952,427.999237 
	C672.088013,448.341614 667.872681,469.276306 656.049500,487.348969 
	C650.295166,496.144867 646.646240,505.332520 649.232605,516.093811 
	C649.508057,517.239807 649.905762,518.731934 648.600830,519.789795 
	C646.878479,519.835571 646.963745,518.472473 646.724060,517.395203 
	C644.602417,507.860565 645.543579,498.678864 651.113342,490.550079 
	C661.101013,475.973602 665.918213,459.375732 670.723633,442.716156 
	C672.426392,436.813019 674.869202,431.146759 675.286072,424.875305 
	C675.754883,417.822937 669.644958,408.190948 662.752319,406.578247 
	C661.983521,412.269409 665.713562,417.507294 664.308472,423.072510 
	C662.942932,428.481049 661.305603,433.751648 658.818542,438.560608 
	C656.147705,438.020203 656.369751,436.546692 656.473572,435.263916 
	C657.023987,428.462616 657.750732,421.673523 658.184570,414.865387 
	C658.662903,407.359070 657.222046,400.280945 652.462463,394.208191 
	C651.360718,392.802490 650.021362,391.518555 647.399963,390.850372 
	C647.939880,397.579620 649.174744,403.927429 648.312378,410.273376 
	C647.475891,416.428528 647.657654,422.952789 642.878540,428.642242 
	C640.781128,425.210510 641.746460,422.472931 642.168213,419.767853 
	C643.598633,410.592682 646.135803,401.466827 643.605896,392.098907 
	C643.061951,390.084564 643.148071,387.784119 641.231873,386.064697 
	C637.901855,388.101990 636.940002,391.309631 636.268982,394.826752 
	C634.139038,405.990295 631.009583,416.850525 625.924805,427.072540 
	C625.353943,428.220154 625.052856,429.660339 622.280640,429.927612 
	C624.506775,417.815704 632.999695,407.647858 632.001526,394.738586 
	C629.223328,395.557556 626.606262,396.482086 623.916748,397.081116 
	C620.905457,397.751801 618.837646,396.184692 617.224243,392.830444 
	C608.558044,410.871521 602.197449,429.266083 591.807495,445.647980 
	C589.146545,444.404449 589.787415,442.644409 590.106018,441.074860 
	C591.376526,434.815613 593.519043,428.934753 597.277954,423.660370 
	C601.246155,418.092285 605.020630,412.376190 606.789490,405.635193 
	C607.167114,404.196198 607.533813,402.719849 607.610657,401.245331 
	C607.703186,399.470612 608.219177,397.229950 606.201172,396.298126 
	C604.075378,395.316620 602.855713,397.313843 601.776611,398.677704 
	C598.739441,402.516296 595.191895,405.703217 590.987610,408.224487 
	C587.123535,410.541779 585.388428,413.955017 585.197021,418.586456 
	C584.901001,425.747925 583.832581,432.864380 580.995850,439.537811 
	C578.554321,445.281433 579.973633,450.937958 580.771301,456.713837 
	C583.213806,474.400146 589.026855,491.296295 592.665771,508.691803 
	C593.990295,515.023621 594.673462,521.511780 595.274780,527.963501 
	C595.572632,531.159790 596.582458,531.882996 599.684387,531.192688 
	C613.813354,528.047852 627.966797,525.003479 642.157043,522.149536 
	C646.843811,521.206909 651.851990,520.036987 655.428711,524.865845 
	C660.716919,522.020325 662.635498,522.904785 663.757446,528.738342 
	C664.618103,533.213135 663.760376,537.312012 660.901611,540.968384 
	C659.184875,543.164062 660.401611,554.885620 662.484802,556.442993 
	C662.952393,556.792542 663.714355,556.794800 664.350891,556.865051 
	C675.785767,558.126831 680.986816,567.497192 676.104248,578.004456 
	C674.430969,581.605408 672.849426,585.248901 671.165833,589.007141 
	C673.779236,590.513428 676.963684,588.771667 679.805542,591.181641 
	C667.578796,595.830444 661.885681,605.580200 657.074280,616.235840 
	C659.890381,618.207886 661.486084,616.790955 662.935608,615.938538 
	C666.662292,613.747192 670.217285,611.266479 673.894470,608.987915 
	C680.517639,604.883911 685.490723,606.467163 689.594666,614.679138 
	C683.135010,613.150757 677.953186,615.367615 673.018433,618.441345 
	C670.253784,620.163452 668.090637,622.413147 666.932739,625.505127 
	C666.139465,627.623718 665.803955,629.792908 667.620605,631.558716 
	C669.278625,633.170288 671.294006,632.868591 673.234680,632.092163 
	C674.779785,631.473938 676.270996,630.722046 677.794617,630.048462 
	C683.954163,627.325378 686.591797,628.230774 688.974365,634.617188 
	C692.418823,643.849792 694.076599,653.573853 696.011841,663.192444 
	C700.164001,683.829407 702.494446,704.675171 701.228149,725.740601 
	C700.343201,740.460754 698.007568,754.933533 689.165466,767.398682 
	C687.614746,769.584778 686.162292,773.545288 683.112244,772.248474 
	C679.872253,770.871094 681.944336,767.200378 682.758545,764.711975 
	C690.717590,740.388855 683.078796,718.741821 671.097229,698.028137 
	C658.031982,675.440979 641.290222,655.471497 625.067810,635.166687 
	C600.260803,604.117004 578.140930,571.252258 558.181519,536.913818 
	C551.658997,525.692383 544.089417,515.533569 532.620728,508.756592 
	C520.767517,501.752411 509.480255,502.635925 498.516144,510.529266 
	C485.558685,519.857727 477.418854,533.033447 469.981293,546.710571 
	C457.978790,568.782166 451.786652,592.738770 447.427917,617.261414 
	C443.235321,640.849731 440.398956,664.632263 437.297821,688.378052 
	C433.896881,714.419189 431.677094,740.631836 426.283447,766.387207 
	C424.883942,773.069946 423.191681,779.742554 419.174713,785.445618 
	C414.298950,792.368042 408.855774,791.876160 405.429474,784.107544 
	C401.685730,775.619202 400.672852,766.436218 399.756927,757.352600 
	C394.548523,705.697205 395.357422,653.866638 395.918213,602.070557 
	C396.130768,582.439697 397.704773,562.824158 404.791931,544.120911 
	C410.997223,527.744995 420.452454,513.687927 433.694946,502.187286 
	C437.593933,498.801147 441.481476,495.386230 445.161713,491.768250 
	C448.635040,488.353760 448.068970,486.092865 443.304474,485.554291 
	C423.857910,483.355988 406.268616,486.953247 393.778625,503.637115 
	C380.416687,521.485657 373.171722,541.925171 369.455261,563.729065 
	C366.990143,578.191528 365.830719,592.773926 365.233154,607.429626 
	C363.664032,645.911133 364.997314,684.419617 364.014740,722.899414 
	C363.585846,739.693604 362.450195,756.500488 358.231049,772.891541 
	C357.572479,775.449951 356.547852,777.934265 355.481476,780.360168 
	C354.801819,781.906250 353.654297,783.244873 351.697845,783.147949 
	C349.739685,783.050964 348.792969,781.547180 348.167755,780.004272 
	C346.017242,774.697327 345.399017,769.035400 344.760468,763.420288 
	C342.820282,746.358948 342.329956,729.195557 341.924194,712.058472 
	C341.075958,676.234192 341.484528,640.395935 343.906799,604.643433 
	C345.771729,577.117554 348.494080,549.682739 353.415009,522.436157 
	C357.225616,501.337128 369.018219,488.371277 388.236664,480.476776 
	C398.071350,476.436951 407.385803,471.123566 416.899323,466.314575 
	C418.963898,465.270966 420.937958,464.005188 422.782501,461.767151 
	C418.324371,460.459137 414.465851,461.969299 410.703949,463.177124 
	C400.882599,466.330444 393.875275,473.757050 386.069336,479.928619 
	C383.274445,482.138275 380.239441,483.766113 376.999908,485.102264 
	C374.567871,486.105377 372.019501,486.482666 369.966522,484.506287 
	C367.809082,482.429352 368.626038,479.907471 369.618622,477.532532 
	C372.346619,471.005066 376.595642,465.431458 380.775970,459.816376 
	C382.665741,457.278015 384.551819,454.736847 386.446472,452.202118 
	C393.719177,442.472504 394.231934,431.904297 384.216949,419.304077 
	C369.191376,400.399841 359.831451,379.242950 355.841370,355.689209 
	C353.117157,339.608002 352.275421,323.314117 353.683380,307.006165 
	C354.599915,296.389709 357.835510,286.439178 363.753937,277.540222 
	C365.448761,274.991882 366.730927,271.209839 371.215698,272.119171 
	C371.527740,272.182434 372.191589,271.343964 372.431427,270.808258 
	C378.815765,256.549652 389.651611,246.051575 401.449097,236.358429 
	C401.565552,236.262726 401.606781,236.075424 401.694946,235.908615 
	C401.635559,235.616440 401.666260,235.234360 401.493744,235.005356 
	C400.385132,233.533524 397.265930,233.105118 398.359985,230.576523 
	C399.360413,228.264252 402.155121,228.158676 404.120880,228.800491 
	C412.330109,231.480759 417.883331,225.393600 424.526031,222.970245 
	C426.895111,222.105972 426.606659,219.863800 426.711761,217.860306 
	C426.975586,212.830597 427.756378,207.913818 430.448792,203.518951 
	C431.814850,201.289139 433.587860,199.496796 436.453766,199.769730 
	C439.260590,200.037018 440.060791,202.370407 440.924072,204.574249 
	C441.528076,206.116241 442.219299,207.623840 442.850800,209.155334 
	C445.894012,216.535889 452.333099,216.451752 458.521545,215.676636 
	C464.650299,214.909012 468.284912,217.702652 471.340973,222.329529 
	C473.256012,225.228882 475.351807,228.008850 477.921906,230.696548 
	C470.279663,221.646240 474.022583,211.135010 473.828003,201.217926 
	C473.720428,195.734131 477.583160,193.543457 482.734741,195.756653 
	C489.407074,198.623184 495.506989,202.376144 499.097015,209.050598 
	C500.243958,211.182968 501.543243,211.954498 503.909119,211.033279 
	C505.282654,210.498459 506.827972,210.373215 508.309174,210.151810 
	C517.357788,208.799316 519.063171,209.702637 521.710938,218.398941 
	C522.870239,222.206451 524.729431,224.894531 528.543823,226.255814 
	C530.412170,226.922577 532.105469,228.064850 533.917358,228.907150 
	C540.071899,231.768234 545.104736,238.527740 551.518799,238.458527 
	C558.346375,238.384842 565.048401,239.731689 571.826782,239.279175 
	C575.910828,239.006546 576.436584,241.120422 574.929321,244.293030 
	C572.275635,249.878754 569.247192,255.181335 562.952759,257.792603 
	C565.590027,260.889984 569.049255,260.465973 571.932617,261.474854 
	C575.981262,262.891418 576.731201,264.873230 573.871521,267.968994 
	C571.767944,270.246277 569.214111,272.107605 566.860840,274.154297 
	C567.125305,274.804474 567.248962,275.606598 567.497314,275.647217 
	C576.397705,277.104034 579.719482,286.194611 587.096130,289.933777 
	C591.106812,291.966797 591.099304,296.986328 590.813721,301.193115 
	C590.621155,304.030457 590.017761,306.809021 591.382690,309.512390 
	C592.344543,311.417450 591.296387,312.662598 589.935852,313.797974 
	C586.364563,316.778107 583.094299,320.162781 578.620483,321.905640 
	C577.419983,322.373352 576.055725,322.781616 575.587341,324.212433 
	C575.691528,327.623016 581.502686,329.317871 579.543091,332.131378 
	C576.594055,336.365540 572.314514,339.990479 567.907288,342.778351 
	C565.033875,344.595947 564.050415,346.083405 564.155640,349.328430 
	C564.733521,367.154968 561.035950,384.383698 556.130188,401.362457 
	C554.492554,407.030212 553.582458,412.705200 553.339783,418.543335 
	C552.904236,429.018829 547.198242,434.882019 536.705444,435.312347 
	C531.398376,435.529968 526.074951,435.350372 519.948730,435.350372 
	C520.911438,447.152039 513.328735,457.290222 514.640442,468.997101 
	C512.418457,469.567535 511.761902,468.339294 511.578033,466.969879 
	C510.756775,460.853088 506.516937,457.394165 501.800690,454.403412 
	C488.860291,446.197388 475.293396,439.017975 462.657013,430.299133 
	C454.013550,424.335358 445.690338,417.979279 437.123657,410.875977 
	C431.818573,405.369843 427.274200,400.061005 423.666077,394.022034 
	C406.611542,365.477417 396.504822,334.404877 390.814850,301.854004 
	C387.261200,281.524872 388.421326,261.668518 399.894653,243.546036 
	C400.121613,243.187546 400.059814,242.646225 400.293457,241.185287 
	C394.528961,245.589172 390.238037,250.319382 385.880249,254.975586 
	C375.414276,266.158203 370.657928,279.472961 371.503174,294.686371 
	C372.422546,311.233612 375.616821,327.346863 381.486481,342.897308 
	C392.397217,371.803040 411.273834,394.191010 437.025879,410.979889 
M399.207397,702.493652 
	C399.680847,721.466187 400.374786,740.440186 402.524414,759.297852 
	C403.479187,767.673767 404.354431,776.237122 408.260742,783.964539 
	C410.601379,788.594727 413.380920,788.749634 416.501160,784.597656 
	C420.399933,779.409668 422.194336,773.319153 423.487976,767.108643 
	C429.429077,738.586853 431.723633,709.546326 435.571106,680.728210 
	C439.112854,654.199890 442.179474,627.600037 447.792816,601.401672 
	C453.604309,574.278381 463.118683,548.637146 479.610992,526.035461 
	C488.743866,513.519409 499.497833,503.058289 515.873596,500.813141 
	C516.325256,500.751251 516.741150,500.428192 517.104248,500.259216 
	C510.328644,491.694427 501.151428,488.507568 487.463654,487.209747 
	C465.804657,485.156128 444.942444,480.418030 429.408813,463.190735 
	C428.890533,462.615997 428.121246,462.267578 427.186005,461.616760 
	C424.479645,464.863892 421.228027,467.154877 417.659271,468.966980 
	C406.969391,474.395081 396.537170,480.461029 385.482819,485.010864 
	C367.962616,492.222076 359.381012,505.231110 356.042297,523.376831 
	C349.274078,560.161316 346.822235,597.303711 345.277069,634.562805 
	C343.515594,677.036926 344.029999,719.478088 347.394562,761.860107 
	C347.880798,767.984924 348.007050,774.381348 351.381897,780.040344 
	C354.038269,778.941467 354.163696,776.748413 354.762543,774.948425 
	C358.957367,762.338928 359.888367,749.183044 360.580475,736.083740 
	C362.216095,705.126831 361.639771,674.127502 361.697327,643.142395 
	C361.746796,616.493652 362.227997,589.864746 366.726593,563.504456 
	C370.616791,540.709412 378.457031,519.563660 392.371216,500.772491 
	C404.777435,484.017761 429.991364,479.789459 444.611694,482.901123 
	C450.985626,484.257690 452.200165,488.116730 447.833923,492.861298 
	C445.024780,495.913849 441.900879,498.709167 438.715088,501.377441 
	C418.776337,518.077454 406.362457,539.075745 402.005859,564.804443 
	C399.103790,581.943237 398.437408,599.239441 398.376099,616.551880 
	C398.275818,644.870056 397.750488,673.197266 399.207397,702.493652 
M459.487854,365.088043 
	C460.123047,367.497528 460.799896,369.896942 461.385712,372.318359 
	C463.297180,380.219818 463.731659,388.817871 467.837036,395.776337 
	C483.267303,421.929932 506.450470,434.374420 536.946655,432.626007 
	C544.366333,432.200623 548.749084,428.671600 550.112427,421.945557 
	C551.196533,416.596893 550.497009,411.066528 552.066467,404.989838 
	C539.899170,406.460602 529.026062,405.644684 521.097290,395.230865 
	C526.098267,388.900604 532.275208,383.662567 539.007935,379.047729 
	C540.533142,378.002350 542.390503,377.428955 544.252991,378.055054 
	C548.776062,379.575562 553.438354,377.970642 558.189026,379.227600 
	C559.216370,373.209656 561.055969,367.712646 560.585388,361.161316 
	C556.794739,365.368256 552.643066,367.404724 547.517761,367.410278 
	C544.700745,367.413330 542.584900,367.022888 543.592529,363.225800 
	C539.025940,363.735535 535.512146,365.742462 531.767334,367.045135 
	C529.735107,367.752106 527.419373,368.438568 525.801697,366.261536 
	C523.806458,363.576385 524.210266,360.538269 525.354126,357.693054 
	C526.262207,355.434387 527.592834,353.311249 530.804565,353.963409 
	C530.706848,356.301819 528.459595,356.960144 527.930359,358.741760 
	C527.400757,360.524628 526.621338,362.402039 527.987915,363.942352 
	C529.361389,365.490479 531.081360,364.375824 532.607544,363.806854 
	C534.946167,362.934967 537.216919,361.840790 539.606567,361.154663 
	C543.713318,359.975494 547.927429,358.904999 549.964417,364.234558 
	C559.108643,362.084961 561.460327,354.987946 555.491943,348.297211 
	C553.501160,346.065552 551.020386,344.205383 549.712585,341.460846 
	C548.524841,338.968323 546.768799,338.503204 544.430237,339.379120 
	C537.079834,342.132019 529.523682,343.799774 521.962524,343.447296 
	C520.725952,347.863617 521.820068,351.495911 524.486084,355.195312 
	C509.551025,361.690369 496.046356,360.481842 483.207672,350.781342 
	C487.358368,355.265747 491.530212,359.259155 493.658325,364.894989 
	C496.668976,372.868225 490.815033,387.471252 483.151886,390.747803 
	C480.891449,391.714325 479.698883,390.289276 478.616577,388.772461 
	C476.200043,385.385620 473.918915,381.901703 471.484802,378.527924 
	C464.745697,369.187317 457.227692,360.112427 462.581787,346.603455 
	C457.261230,350.404877 455.521912,354.224823 458.165436,359.455200 
	C458.893188,360.895172 458.964417,362.666931 459.487854,365.088043 
M414.591339,370.932648 
	C422.302094,389.399078 433.388336,405.196930 449.479736,417.533936 
	C469.192261,432.647217 491.454285,443.732208 511.926117,458.037598 
	C514.726807,454.074127 515.245239,449.399628 516.173889,444.900330 
	C517.467102,438.634644 516.916809,438.080933 510.427795,438.297272 
	C490.353241,438.966522 476.072632,430.250153 469.427246,411.480316 
	C463.179443,393.833496 455.275909,376.607147 453.159637,357.680573 
	C452.972931,356.010437 452.741211,353.980743 450.751587,353.736176 
	C446.188049,353.175171 442.413452,350.164703 437.966187,349.641724 
	C430.523682,348.766449 424.503571,345.096436 418.641937,340.892059 
	C415.993286,338.992249 415.405151,337.298981 417.835327,334.437988 
	C422.954803,328.410889 428.707886,323.751587 437.400757,323.477600 
	C435.234894,318.619507 433.369019,314.434326 431.476715,310.189880 
	C414.784088,316.402283 404.825623,304.551880 392.671661,295.128387 
	C396.138885,322.417389 404.259552,346.597351 414.591339,370.932648 
M358.609314,342.889648 
	C361.393372,356.470764 367.672791,368.193298 377.297760,378.155426 
	C386.188538,387.357635 396.626526,394.451416 407.781189,400.559174 
	C414.948730,404.483795 422.202484,408.234406 430.268951,410.256683 
	C385.555664,376.845490 366.674561,331.919342 369.150818,278.655548 
	C358.502777,297.272003 352.734070,318.644165 358.609314,342.889648 
M400.187195,248.671906 
	C392.311584,262.204102 391.180542,276.888916 392.448975,291.410614 
	C404.054657,293.415344 413.839417,287.014587 425.257446,286.583679 
	C422.596222,280.489227 420.574402,275.049835 419.681610,269.283051 
	C418.779816,263.458282 416.861969,257.763855 417.495728,251.235092 
	C423.774506,259.504425 434.208862,258.722656 442.055450,263.475525 
	C452.331787,269.700195 455.672424,279.056793 454.367767,290.294098 
	C453.843048,294.813751 455.134827,296.713684 459.806519,297.152283 
	C461.109192,293.247345 464.853455,291.752441 468.184570,289.223541 
	C460.278595,283.831970 456.717377,276.008270 454.868927,267.439728 
	C452.849213,258.077423 456.069092,250.445251 464.848114,245.331650 
	C462.393890,243.064240 460.603699,241.410324 458.657623,239.612381 
	C456.269592,241.377823 454.481354,244.122986 451.508148,244.089569 
	C447.406097,244.043472 445.174652,246.068604 443.830902,249.488586 
	C444.449402,252.006424 447.496338,254.251846 445.155243,256.873047 
	C442.727844,259.590820 439.566742,258.036255 436.734741,257.192566 
	C434.000580,256.378021 431.219421,255.275314 429.380920,253.127365 
	C425.845703,248.997086 421.269623,246.591095 416.710144,243.871582 
	C406.590393,237.835526 406.733215,237.596069 400.187195,248.671906 
M485.755859,484.643524 
	C496.778046,484.539612 506.964752,487.274414 516.123352,493.728760 
	C514.200867,490.399811 511.473114,488.018799 508.540955,485.871948 
	C497.191467,477.561890 484.724976,471.387634 471.686707,466.175659 
	C451.622009,458.154816 431.115417,451.123474 412.088440,440.700348 
	C406.262970,437.509094 400.765472,433.719208 394.285339,429.685272 
	C397.579681,435.562988 401.833038,438.990204 406.500031,441.922211 
	C416.671906,448.312683 426.405182,455.181854 434.386658,464.337921 
	C438.351379,468.886047 443.278381,472.441284 448.904175,474.704590 
	C460.496002,479.368011 472.359344,483.149902 485.755859,484.643524 
M420.436432,454.788391 
	C412.159973,448.007202 402.034241,443.790527 394.249664,434.944122 
	C394.610931,440.461823 393.715973,444.673004 391.778778,448.615784 
	C389.189453,453.885742 385.358978,458.320496 381.845886,462.965576 
	C378.329132,467.615540 374.822510,472.288239 372.430878,477.643616 
	C371.802795,479.050049 370.573853,480.796356 372.232117,482.232361 
	C373.647491,483.458008 375.462524,482.932617 376.981323,482.287689 
	C380.850006,480.645020 384.170319,478.135956 387.287323,475.343475 
	C397.237915,466.428864 407.946808,459.005463 421.823608,457.807648 
	C422.031586,457.789703 422.203857,457.358124 422.533600,456.941864 
	C422.011566,456.377777 421.465912,455.788147 420.436432,454.788391 
M453.378479,297.950836 
	C448.619141,296.327698 443.683624,295.497864 438.697235,295.516266 
	C433.784363,295.534363 431.761688,298.303162 432.739655,303.005280 
	C433.757904,307.901215 435.177124,312.701385 437.488770,317.133942 
	C439.481842,320.955719 441.657349,324.818909 446.384583,325.935211 
	C451.547455,327.154327 456.823853,327.989899 461.408722,330.959229 
	C462.593597,331.726562 463.895752,332.030457 464.943237,330.638977 
	C465.650208,329.699890 466.547546,328.593811 465.660370,327.492889 
	C461.935486,322.870300 462.945068,317.385101 462.797546,312.156830 
	C462.616028,305.724091 459.968781,301.015503 453.378479,297.950836 
M463.581482,275.999939 
	C465.382263,278.167511 468.568237,277.577148 470.527679,279.643677 
	C473.541504,282.822235 477.259705,282.422333 480.522827,280.310883 
	C484.004272,278.058105 486.356964,274.888428 485.151642,270.239899 
	C483.652374,264.457672 482.318909,258.633484 479.973755,253.102814 
	C477.780334,247.930115 467.696564,245.929886 463.699066,249.922638 
	C456.378418,257.234619 456.177551,265.702454 463.581482,275.999939 
M497.749329,213.076660 
	C495.143188,204.729080 488.210724,201.079773 480.931427,198.109100 
	C477.694275,196.788010 476.502563,199.365356 476.386505,202.209946 
	C476.224182,206.188843 476.237976,210.174576 476.117706,214.155594 
	C475.781830,225.270493 482.256226,232.836639 488.941895,240.346375 
	C491.140717,239.418518 491.878143,238.205353 491.747375,236.565567 
	C491.327240,231.297775 493.878815,226.885101 496.023834,222.453125 
	C497.380096,219.650955 498.261230,216.965591 497.749329,213.076660 
M530.527832,252.388702 
	C531.472778,252.120972 532.573669,251.397766 533.337524,251.659210 
	C538.411255,253.395813 541.408630,249.875046 544.803406,247.359573 
	C546.094238,246.403107 546.970581,245.276825 545.787415,243.579865 
	C540.551880,236.070496 525.760071,229.358322 517.350159,237.018066 
	C513.711304,240.332321 510.034088,243.804855 505.180939,245.599167 
	C503.677124,246.155136 502.625519,247.698669 503.223907,249.825378 
	C511.693756,254.405396 520.717651,254.341400 530.527832,252.388702 
M502.871399,285.888458 
	C499.902191,285.293060 497.538910,282.249817 493.997314,283.894928 
	C486.695648,287.286591 482.763947,301.319977 487.381042,308.390961 
	C491.730011,307.038910 496.099274,305.311310 500.858765,305.706268 
	C504.001312,305.967072 507.147980,306.184692 510.286499,306.486969 
	C516.213501,307.057739 517.774902,305.118744 515.489868,299.712708 
	C513.958435,296.089508 512.010620,292.621216 512.639465,288.530121 
	C509.398376,287.668335 506.510132,286.900391 502.871399,285.888458 
M480.872253,353.642303 
	C475.459656,350.250488 473.101135,344.891632 471.553741,338.791901 
	C469.762848,342.002350 468.783600,345.320679 467.112885,348.243835 
	C464.283661,353.194061 465.699768,357.134460 469.262817,360.822540 
	C471.109100,362.733612 473.556610,364.367828 474.000427,367.109467 
	C475.200043,374.519928 480.353119,379.683838 483.930237,385.793793 
	C491.769135,378.763733 493.784668,371.671478 490.261475,364.062195 
	C488.309967,359.847534 485.211487,356.673370 480.872253,353.642303 
M496.158234,332.607910 
	C507.523590,330.704742 514.077881,322.560089 512.663391,311.024933 
	C508.349884,311.024933 503.902344,311.024811 499.454834,311.024963 
	C495.258789,311.025085 491.178192,311.294312 487.580353,313.952362 
	C485.665680,315.366943 484.180084,316.480621 485.759003,319.150391 
	C486.991333,321.234131 486.084717,323.046234 484.022369,324.130859 
	C480.742920,325.855560 479.921753,328.601746 480.434021,332.392700 
	C485.477997,331.305450 490.385925,332.177948 496.158234,332.607910 
M498.602264,261.282013 
	C501.558014,266.834412 508.061981,267.545807 513.285095,271.521393 
	C505.811401,275.354736 499.323486,279.448853 491.131927,275.306427 
	C500.145447,283.188904 510.184479,287.044495 522.229919,285.185516 
	C530.856934,283.854156 532.016052,282.597229 529.412659,272.560089 
	C529.047363,271.151764 528.214355,269.825470 527.416931,268.576752 
	C525.752747,265.970886 523.836975,264.602875 520.366943,266.006958 
	C516.499023,267.572052 512.489197,266.401093 508.708679,265.007050 
	C504.682129,263.522278 501.118683,261.199982 498.055481,258.049164 
	C497.216431,259.432037 497.989227,260.035431 498.602264,261.282013 
M490.444397,350.415833 
	C499.834717,351.839966 507.975372,347.209198 517.124268,345.683167 
	C508.152771,333.806732 506.910858,333.410309 493.689728,336.925354 
	C488.192963,338.386780 482.705048,340.854950 476.592834,337.807404 
	C481.668640,341.485199 484.029449,347.538544 490.444397,350.415833 
M457.237091,347.799561 
	C459.386108,343.613098 461.875122,339.695770 466.290558,337.127960 
	C461.315704,337.450989 458.189301,335.088684 454.686523,332.529816 
	C448.282013,327.851135 444.359283,328.221069 441.202667,334.448822 
	C440.024963,336.772369 438.186676,338.761108 436.449921,341.180695 
	C438.446686,343.327179 440.201141,345.540100 442.282562,347.383881 
	C446.869049,351.446564 452.064911,351.707031 457.237091,347.799561 
M464.877350,306.872345 
	C465.921051,309.977753 464.801117,313.496460 466.710388,316.724396 
	C470.246185,314.113647 474.058380,313.944916 478.166687,314.517639 
	C482.726318,315.153320 484.354095,312.863190 482.724243,308.593445 
	C480.294678,302.228668 476.363251,296.720123 472.945038,291.016113 
	C462.717010,293.773041 460.829041,297.309113 464.877350,306.872345 
M442.401093,267.054901 
	C437.376770,263.901520 432.111298,261.457336 425.147156,261.056641 
	C427.895966,264.571869 430.237640,267.329681 432.316559,270.273010 
	C437.005859,276.912018 441.550934,283.652802 446.190552,290.327271 
	C447.046143,291.558136 448.088593,292.889374 449.791840,292.513031 
	C451.915161,292.043915 451.771210,290.076050 451.852570,288.464874 
	C452.277405,280.053833 450.215485,272.662628 442.401093,267.054901 
M575.161194,332.850922 
	C575.552185,332.335388 576.324707,331.776642 576.272095,331.311310 
	C575.934326,328.326447 571.073975,324.178772 567.991333,324.355682 
	C565.375183,324.505859 562.821594,324.085785 560.181335,323.569946 
	C558.387817,335.194885 551.847046,332.280304 544.573059,328.755524 
	C548.778320,331.813721 550.357971,336.662109 555.297607,338.303589 
	C562.550537,340.713867 569.105103,341.458954 573.851440,333.884613 
	C574.017395,333.619843 574.358093,333.464569 575.161194,332.850922 
M572.072510,243.337082 
	C566.026123,240.690979 559.688599,240.773926 553.312439,241.409531 
	C552.151794,241.525238 550.736389,242.119339 550.559448,243.257370 
	C550.009827,246.791367 546.858948,248.524353 544.815918,251.428131 
	C548.083984,252.450333 550.946533,253.173767 553.677246,254.236237 
	C559.080322,256.338440 564.129944,255.288895 567.823853,250.723541 
	C569.472412,248.686081 570.621826,246.244751 572.072510,243.337082 
M486.343567,421.210663 
	C480.595764,416.656097 475.541626,411.374115 470.132965,405.128784 
	C478.924103,428.931335 495.510071,439.514893 515.567078,434.124023 
	C504.740295,431.722870 495.057343,428.365265 486.343567,421.210663 
M536.698669,287.725647 
	C536.234009,285.535461 535.839050,283.155121 538.407227,282.132233 
	C541.751099,280.800415 541.837524,285.051483 544.783508,286.216614 
	C545.459045,275.478363 554.514404,276.229340 561.804688,274.139038 
	C553.513733,268.180298 540.704895,270.131653 535.286194,277.855194 
	C532.002991,282.534882 532.594177,295.213837 536.160950,297.686218 
	C539.675354,294.879822 538.992371,291.712097 536.698669,287.725647 
M509.761230,215.217316 
	C507.559723,216.674088 505.431091,218.259247 503.140717,219.559525 
	C499.015381,221.901581 497.210083,225.076492 498.801697,229.838028 
	C501.922760,230.562546 504.996521,230.904388 507.193634,233.703339 
	C509.450928,236.578949 513.964478,235.435379 514.451538,231.699265 
	C515.226868,225.751740 513.985352,219.683914 515.751709,214.112122 
	C513.055786,212.747879 511.760101,214.027512 509.761230,215.217316 
M422.155945,267.702972 
	C423.036102,272.953522 424.193848,278.142029 426.607239,282.923431 
	C430.013275,289.671387 437.547668,293.631927 443.701630,291.879059 
	C436.713806,281.536652 430.455658,270.765289 420.937439,260.717133 
	C421.422333,263.706879 421.684814,265.325256 422.155945,267.702972 
M456.648651,225.022766 
	C467.843964,240.843292 475.308990,246.947617 488.940796,245.373627 
	C479.296875,243.435730 475.465179,235.190689 469.979553,228.714310 
	C466.912445,225.093246 462.830078,222.837311 458.526306,221.002655 
	C456.738861,220.240692 454.898193,220.188065 453.173828,220.859131 
	C454.334351,222.201370 455.301819,223.320282 456.648651,225.022766 
M518.090576,289.388947 
	C515.377319,290.619110 514.954407,292.501129 516.325500,295.061676 
	C519.117920,300.276581 520.342834,305.938538 521.029968,311.768036 
	C521.861877,318.825958 523.026917,319.315399 529.427673,315.542572 
	C523.645752,308.438904 522.921875,303.548676 528.206909,297.977051 
	C531.558655,294.443573 528.966980,291.596558 528.216980,288.895508 
	C527.398987,285.949402 524.277222,287.778259 522.131287,288.102112 
	C520.994629,288.273682 519.906555,288.766602 518.090576,289.388947 
M527.443787,305.775452 
	C527.213684,308.574524 528.381592,310.663696 530.859070,311.872101 
	C533.453430,313.137543 535.009766,315.010498 535.489746,317.907288 
	C536.230042,322.375122 539.324158,324.355072 543.510681,324.749329 
	C546.358459,325.017517 549.113037,325.030762 551.030640,327.747101 
	C552.047974,329.188232 553.688110,328.872345 555.120911,328.163910 
	C556.516113,327.473969 556.719482,326.169678 556.732544,324.776459 
	C556.770935,320.693298 553.690613,321.198883 551.433899,321.655701 
	C547.736938,322.404114 544.172668,321.767151 542.626831,318.690155 
	C540.272888,314.004578 536.597168,309.977875 535.515930,304.604950 
	C535.078125,302.429382 534.649841,299.312866 531.950439,299.168579 
	C528.823181,299.001465 528.733215,302.404755 527.747742,304.576965 
	C527.679443,304.727509 527.643127,304.892517 527.443787,305.775452 
M426.452271,329.844238 
	C423.621735,332.070343 420.682312,334.208252 419.529327,338.067688 
	C424.803009,341.852112 429.725677,345.795746 437.380463,346.254150 
	C435.078003,344.166840 433.540222,342.772766 431.790741,341.186737 
	C436.103943,337.299103 439.409607,333.100311 441.816071,327.641815 
	C436.151306,325.776855 431.514526,326.769043 426.452271,329.844238 
M429.253845,290.887939 
	C419.366333,287.045288 411.046783,293.285370 400.856415,294.513062 
	C410.420685,299.601257 419.654175,300.291229 429.062378,301.417297 
	C429.760925,298.414032 430.979095,295.808655 432.974609,293.472748 
	C431.722626,292.557404 430.799469,291.882477 429.253845,290.887939 
M548.111877,255.323257 
	C545.657898,255.290024 543.122437,254.817352 541.351135,256.290680 
	C541.608093,267.519440 532.012085,260.986023 527.336243,264.295258 
	C540.145447,271.791229 551.085693,264.571350 563.424133,262.015259 
	C558.101746,259.082916 553.787659,256.651886 548.111877,255.323257 
M540.557495,394.263062 
	C535.989380,394.250977 531.342102,393.736023 527.014771,396.111420 
	C531.359985,402.458160 545.458679,405.400360 551.430603,401.361389 
	C552.360779,400.732208 553.234375,399.837219 553.787109,398.867401 
	C555.249207,396.302032 555.044739,394.289429 551.478882,394.204285 
	C548.166016,394.125183 544.848755,394.230621 540.557495,394.263062 
M543.602783,336.261597 
	C543.299072,335.182800 542.314209,335.280853 541.570190,335.254791 
	C533.590759,334.975372 525.760681,333.528778 517.872375,332.493042 
	C514.651733,332.070190 511.388367,330.265930 507.844421,331.512421 
	C513.789062,338.040375 520.436462,342.195770 529.395081,340.535431 
	C534.118835,339.659973 538.883667,338.877167 543.602783,336.261597 
M519.611694,329.823120 
	C526.527466,331.228851 533.468933,332.322632 540.988831,331.815125 
	C534.897156,327.478760 529.351501,323.080444 521.985168,322.658051 
	C517.775330,322.416656 513.665222,322.739624 511.970581,327.818237 
	C514.164734,329.383087 516.524475,329.377686 519.611694,329.823120 
M574.584534,316.049591 
	C572.640930,317.494690 570.697266,318.939758 568.407227,320.642426 
	C575.682556,321.420837 580.614807,317.864532 585.744690,313.997772 
	C589.808960,310.934204 587.312012,307.416412 587.684509,304.095764 
	C587.850830,302.613403 587.984680,301.118073 587.985046,299.628601 
	C587.985596,297.347168 588.050964,295.011383 585.985474,292.811798 
	C585.786072,294.581909 585.890503,296.079132 585.425842,297.371826 
	C583.034546,304.025604 583.121033,312.104034 574.584534,316.049591 
M673.650696,564.973328 
	C673.152466,564.312378 672.714783,563.593201 672.145203,563.000854 
	C670.040588,560.812134 667.484497,558.189026 664.516479,560.094482 
	C661.852478,561.804810 664.280823,564.753052 665.133057,566.807434 
	C667.310242,572.055847 671.311279,576.640991 670.052185,583.723816 
	C676.260803,573.364563 676.583862,571.756958 673.650696,564.973328 
M579.681702,289.023773 
	C574.393982,278.853790 565.442261,275.846588 552.235168,279.817841 
	C555.035828,280.996063 557.858826,281.269836 560.946533,280.925995 
	C567.950439,280.145966 573.440308,283.879730 573.746582,290.362610 
	C573.968140,295.052917 576.729797,295.867249 580.163391,297.306702 
	C580.949036,294.497986 580.857910,292.116913 579.681702,289.023773 
M518.049377,263.819763 
	C523.279602,262.944427 527.368958,257.597839 534.133301,261.046997 
	C529.855225,254.881226 524.154358,257.587036 519.564453,256.214203 
	C514.164001,254.598907 509.039032,258.051575 503.306702,258.665558 
	C507.495239,262.390350 512.088257,263.849731 518.049377,263.819763 
M620.369019,360.838959 
	C617.817566,350.789642 614.832947,340.955170 606.959839,332.705292 
	C605.940857,336.931000 604.777649,340.256317 604.419678,343.666138 
	C604.070618,346.990417 600.639587,349.614166 602.342529,353.960144 
	C603.840515,351.605438 606.448547,351.324493 607.062256,348.261353 
	C607.392456,346.613464 610.237427,344.819336 612.679138,345.025726 
	C614.813110,345.206116 615.291138,347.456299 615.852783,349.124268 
	C617.282471,353.369690 618.495728,357.688019 619.825867,361.967743 
	C619.835083,361.997314 620.284241,361.927551 620.495850,361.832581 
	C620.555054,361.805969 620.499146,361.522980 620.369019,360.838959 
M494.718719,258.472107 
	C494.711121,256.617004 494.324707,254.843643 493.375214,253.247192 
	C492.753052,252.201065 491.841736,251.445663 490.510345,251.773727 
	C489.238739,252.087082 488.676239,253.037766 488.469940,254.294067 
	C487.334717,261.206970 495.145782,271.651123 502.270325,272.591919 
	C503.665009,272.776093 505.286438,272.817108 505.812927,270.730743 
	C501.187744,267.798889 496.178009,265.245117 494.718719,258.472107 
M492.602692,244.964630 
	C494.661499,249.379028 497.865021,249.886719 500.665405,246.155823 
	C502.385925,243.863586 503.196686,241.129944 503.988892,238.406387 
	C504.460815,236.783997 505.152435,235.114944 503.302032,233.935806 
	C501.366821,232.702621 499.151917,232.916321 497.792114,234.492111 
	C495.358124,237.312668 492.604614,240.108780 492.602692,244.964630 
M477.761444,293.726501 
	C478.974182,295.386200 479.540619,297.609039 482.176758,298.651001 
	C483.903809,291.737915 486.310699,285.293182 492.704559,281.468079 
	C490.957642,279.383301 489.827667,277.977417 487.698303,277.766479 
	C484.789795,281.584412 482.000824,285.524078 477.927704,288.251129 
	C475.824036,289.659546 476.781738,291.410980 477.761444,293.726501 
M414.936859,307.679535 
	C418.740692,308.691986 422.458923,310.476715 426.540100,308.836212 
	C427.634094,308.396515 428.866150,308.081757 428.986664,306.698120 
	C429.106476,305.321991 428.074921,304.457489 426.939667,304.239929 
	C419.770538,302.866058 412.578125,301.613739 404.383270,300.139557 
	C407.386169,304.286499 410.905548,305.712524 414.936859,307.679535 
M516.070679,349.183563 
	C509.443787,349.804749 503.332306,352.339203 496.490295,354.021515 
	C501.942871,356.683105 508.139832,357.127899 515.400818,355.455475 
	C516.908997,355.108093 519.089355,355.265015 519.378052,353.158630 
	C519.616394,351.419800 518.598145,349.989075 516.070679,349.183563 
M578.685730,309.208221 
	C581.182861,303.115753 580.411255,300.913116 574.449585,298.640228 
	C573.785583,306.226013 573.113708,313.907623 564.697693,317.446411 
	C570.546814,316.947296 574.167725,312.917419 578.685730,309.208221 
M556.709167,385.383514 
	C556.351440,381.971985 554.319641,380.907135 551.154053,381.400208 
	C549.364380,381.679016 547.537964,382.328857 545.773865,381.468414 
	C541.289062,379.281006 538.830872,382.053467 535.864624,385.292969 
	C542.759766,385.732178 549.258362,384.646454 555.191833,387.940521 
	C556.460693,388.644958 556.551758,387.011963 556.709167,385.383514 
M656.431885,363.651001 
	C659.410156,361.021210 663.739990,359.822601 665.414612,355.536346 
	C660.755432,354.601654 651.797241,357.619934 646.277100,361.811462 
	C652.489563,361.129089 652.659119,361.219971 653.447571,365.771606 
	C654.290588,365.156281 655.087158,364.574829 656.431885,363.651001 
M543.240906,305.040161 
	C542.280334,302.821838 541.319763,300.603546 540.284912,298.213806 
	C537.411377,302.553650 538.172241,307.732361 542.070312,312.278656 
	C544.061829,314.601349 546.211975,315.468658 548.959290,313.215698 
	C548.371460,309.839630 545.064453,308.391205 543.240906,305.040161 
M627.121643,367.560242 
	C630.996826,367.593262 633.008057,364.088074 636.185791,362.762695 
	C637.790710,362.093292 638.897278,360.823578 638.248474,358.834930 
	C637.772766,357.376831 636.999817,356.110382 635.422180,355.652283 
	C633.496887,355.093231 632.288574,356.283997 631.272339,357.620758 
	C629.146606,360.416901 627.964294,363.648987 627.121643,367.560242 
M424.893402,225.985184 
	C421.965698,227.297165 418.660828,228.028732 416.163879,231.655823 
	C420.433411,232.582672 424.034241,236.468033 427.596008,233.738724 
	C429.421783,232.339722 428.694061,227.902344 424.893402,225.985184 
M553.330444,267.905396 
	C555.846863,268.553345 558.428223,269.018829 560.866272,269.886871 
	C566.087463,271.745819 568.698364,270.805756 571.592957,265.518036 
	C565.322510,264.431519 559.372559,265.159882 553.330444,267.905396 
M589.498657,539.580994 
	C588.751160,546.091797 589.500549,552.482422 590.919983,559.830383 
	C592.830078,551.601196 593.458130,544.352539 592.452759,536.997864 
	C590.575806,537.026855 590.172180,537.957031 589.498657,539.580994 
M475.449951,333.933044 
	C477.761322,330.671600 478.814301,327.503510 475.001648,324.566742 
	C472.237152,325.591431 470.648712,327.381866 469.765533,329.859772 
	C469.193298,331.465363 468.677521,333.154938 470.060059,334.534454 
	C471.622772,336.093658 473.343811,335.839294 475.449951,333.933044 
M623.560181,377.818726 
	C625.347656,381.787781 623.298157,385.853027 623.565979,390.083282 
	C627.156677,389.897827 630.279968,389.569855 632.379395,385.883057 
	C627.763000,384.555878 625.337219,381.598602 624.685120,377.107056 
	C624.565979,376.286041 623.992004,376.927765 623.560181,377.818726 
M560.505188,313.774567 
	C561.751770,312.690796 563.063904,311.646210 562.924866,309.245056 
	C559.073608,307.987518 555.081055,306.683807 550.378601,305.148315 
	C552.596680,308.255402 554.357605,310.638550 556.023743,313.086273 
	C557.081543,314.640381 558.167358,315.665924 560.505188,313.774567 
M433.426270,207.317993 
	C433.644165,205.903061 433.475800,204.192581 435.966858,204.272552 
	C437.343170,206.817291 436.426849,211.118515 441.090820,211.617477 
	C440.506348,210.549377 439.896851,209.616623 439.470367,208.606598 
	C439.019958,207.539902 438.827820,206.364044 438.376251,205.297958 
	C436.979706,202.000885 435.008728,201.644653 432.958313,204.531189 
	C429.801453,208.975327 429.767700,214.124878 430.012482,219.290863 
	C430.324829,215.267456 432.992737,211.965759 433.426270,207.317993 
M551.649414,389.295013 
	C545.249084,388.783264 538.665100,386.413086 532.752563,391.158203 
	C539.674133,392.448151 546.466309,390.482666 554.449219,391.378235 
	C552.939514,390.223755 552.544617,389.921783 551.649414,389.295013 
M559.596985,284.388611 
	C557.861816,284.782196 556.126648,285.175751 554.391541,285.569305 
	C561.383606,285.940643 564.951111,289.947784 566.270508,296.630737 
	C568.091797,289.786407 566.171509,286.219788 559.596985,284.388611 
M608.769287,358.058807 
	C612.993530,362.115723 616.922913,366.434814 620.168884,371.377289 
	C619.472900,364.058472 614.058289,360.124084 609.245850,355.955200 
	C607.814636,354.715393 607.556274,356.370575 608.769287,358.058807 
M464.861115,362.860352 
	C466.833130,366.786560 468.670807,370.806396 472.307861,374.068512 
	C473.445648,366.253632 466.730408,363.672516 463.393524,359.022919 
	C463.793213,360.096130 464.192902,361.169312 464.861115,362.860352 
M487.303619,266.974426 
	C487.741333,268.917633 488.869507,270.011810 492.439453,270.456757 
	C485.617126,264.676361 487.155945,256.729340 484.481171,250.429718 
	C483.858429,250.627747 483.235718,250.825775 482.613007,251.023804 
	C484.121613,256.100189 485.630219,261.176544 487.303619,266.974426 
M475.324005,286.213562 
	C471.695099,283.601379 468.204346,280.695740 462.754517,279.773102 
	C466.122101,284.668793 469.346008,287.789612 475.324005,286.213562 
M606.309448,382.183807 
	C607.911987,381.395111 609.514465,380.606384 611.412659,379.672150 
	C606.678101,378.645325 602.452209,385.076935 598.253601,380.163574 
	C595.263550,376.664459 594.911316,371.892059 594.061707,367.457977 
	C593.494812,379.214417 596.791138,383.412567 606.309448,382.183807 
M520.621460,226.953064 
	C520.573792,223.814758 519.914612,220.824524 518.398682,217.571945 
	C517.383240,222.181076 516.154602,226.339661 518.520569,230.538239 
	C520.023865,229.874496 520.356567,228.799789 520.621460,226.953064 
M557.951172,341.955872 
	C556.587585,341.915588 555.293945,340.679077 553.470947,341.838623 
	C555.786499,344.450165 557.985352,346.930115 560.184143,349.410065 
	C560.310913,346.618408 562.208801,343.590240 557.951172,341.955872 
M612.134949,370.603027 
	C612.453613,370.525757 612.783386,370.476105 613.084656,370.355377 
	C613.181580,370.316528 613.286316,369.997559 613.247742,369.963043 
	C609.833008,366.909912 604.887451,368.086975 602.775879,372.501648 
	C605.735657,371.983917 608.438965,370.453552 612.134949,370.603027 
M660.071045,537.060303 
	C661.224792,533.475159 661.804688,529.912964 659.314636,525.057983 
	C658.107178,530.040588 657.075073,533.626038 660.071045,537.060303 
M515.552063,317.289917 
	C515.463989,318.536865 514.811584,320.135254 517.134949,319.913849 
	C518.572021,319.776825 519.089966,319.024231 518.821777,317.566162 
	C518.393188,315.236633 518.085938,312.884827 517.727356,310.542419 
	C517.409790,310.548859 517.092224,310.555328 516.774658,310.561768 
	C516.417908,312.575958 516.061157,314.590179 515.552063,317.289917 
M434.789764,230.130463 
	C434.628845,231.260361 434.725281,232.478897 436.088348,231.127075 
	C438.411102,228.823532 440.360687,226.187164 441.507416,223.052933 
	C439.410400,225.367935 434.884552,225.217896 434.789764,230.130463 
M560.620178,304.162842 
	C562.354370,300.294708 560.048340,298.977753 556.875244,297.935791 
	C555.383301,301.709381 557.806396,303.108490 560.620178,304.162842 
M601.056702,377.559845 
	C605.358582,380.694855 608.019836,375.314117 611.797119,375.725983 
	C608.109314,374.810577 604.630859,375.263489 601.056702,377.559845 
M537.563843,271.435730 
	C535.914490,269.838074 533.978271,269.720215 531.348267,270.093811 
	C532.523010,271.770752 531.844543,273.684875 533.778931,274.944824 
	C534.963196,273.969940 536.198303,272.953156 537.563843,271.435730 
M533.897522,322.709320 
	C532.498718,317.876221 532.498718,317.876221 528.641052,320.820740 
	C530.354370,321.588776 531.965759,322.311127 533.897522,322.709320 
M529.063110,230.525391 
	C527.911865,228.207306 525.995239,227.761856 523.426270,227.995651 
	C523.872986,232.078720 526.717041,230.407883 529.063110,230.525391 
M549.864197,283.544495 
	C547.007690,285.594299 546.825745,288.138458 548.395752,291.017456 
	C548.135681,288.302612 550.717224,286.330353 549.864197,283.544495 
z"/>
<path fill="#000" opacity="1.000000" stroke="#fff" 
	d="
M626.069519,270.721039 
	C624.139465,272.587067 623.521667,274.141113 624.835327,276.607208 
	C626.617188,279.952332 624.962830,281.664795 621.304260,281.331512 
	C617.941467,281.025146 614.556885,280.141815 611.910522,278.212463 
	C604.459290,272.780029 596.082214,269.237885 587.794678,265.453857 
	C585.697510,264.496307 583.044067,263.277466 583.797791,260.480896 
	C584.593445,257.529358 587.500305,258.520691 589.761902,258.470245 
	C596.682068,258.315979 603.060059,260.801239 609.827332,263.205200 
	C610.388794,258.734222 608.541199,255.400757 608.164368,251.858063 
	C607.602356,246.574661 608.133545,241.502808 610.289978,236.736572 
	C612.420532,232.027481 616.528931,231.712372 618.788574,236.276978 
	C620.948853,240.640732 624.969910,243.714539 626.501221,248.404129 
	C626.983093,249.879807 628.521362,250.008453 629.625793,250.679764 
	C634.052551,253.370346 636.393799,260.272858 634.609802,265.132446 
	C633.183716,269.016937 630.015015,270.107147 626.069519,270.721039 
z"/>
</svg>