<svg width="112" height="112" viewBox="0 0 712 712" fill="none" xmlns="http://www.w3.org/2000/svg">
<circle cx="256" cy="256" r="256" fill="#E2E2E2"/>
<circle cx="256" cy="256" r="190" fill="black"/>
<path d="M200.251 348.2C190.251 348.2 181.917 346.4 175.251 342.8C168.584 339.067 163.517 333.533 160.051 326.2C156.717 318.733 154.784 309.267 154.251 297.8L182.651 293C182.917 299.667 183.584 305.267 184.651 309.8C185.851 314.2 187.584 317.533 189.851 319.8C192.251 321.933 195.184 323 198.651 323C202.917 323 205.784 321.667 207.251 319C208.851 316.333 209.651 313.267 209.651 309.8C209.651 303 207.984 297.333 204.651 292.8C201.451 288.133 197.184 283.467 191.851 278.8L175.051 264.2C169.051 259.133 164.117 253.4 160.251 247C156.517 240.6 154.651 232.733 154.651 223.4C154.651 210.067 158.517 199.867 166.251 192.8C174.117 185.6 184.851 182 198.451 182C206.584 182 213.251 183.333 218.451 186C223.651 188.667 227.651 192.267 230.451 196.8C233.384 201.2 235.384 206.067 236.451 211.4C237.651 216.6 238.384 221.8 238.651 227L210.451 231.2C210.184 226.267 209.717 221.933 209.051 218.2C208.517 214.467 207.317 211.533 205.451 209.4C203.717 207.267 201.051 206.2 197.451 206.2C193.584 206.2 190.717 207.667 188.851 210.6C186.984 213.4 186.051 216.533 186.051 220C186.051 225.733 187.317 230.467 189.851 234.2C192.517 237.8 196.117 241.6 200.651 245.6L217.051 260C223.851 265.867 229.651 272.6 234.451 280.2C239.384 287.667 241.851 296.933 241.851 308C241.851 315.6 240.117 322.467 236.651 328.6C233.184 334.733 228.317 339.533 222.051 343C215.917 346.467 208.651 348.2 200.251 348.2ZM259.627 346V184H292.627V250.6H321.227V184H354.227V346H321.227V274.2H292.627V346H259.627Z" fill="#E2E2E2"/>
</svg>
