<svg width="200" height="200" viewBox="0 0 300 300" fill="none" xmlns="http://www.w3.org/2000/svg"><circle cx="100" cy="100" r="100" fill="#E2E2E2"/><circle cx="100" cy="100" r="75" fill="#000"/><path d="M73.224 123.896c-3.67 0-7.21-.448-10.624-1.344-3.37-.939-6.123-2.133-8.256-3.584l4.16-9.344c2.005 1.28 4.31 2.347 6.912 3.2 2.645.811 5.27 1.216 7.872 1.216 1.75 0 3.157-.149 4.224-.448 1.067-.341 1.835-.768 2.304-1.28.512-.555.768-1.195.768-1.92 0-1.024-.47-1.835-1.408-2.432-.939-.597-2.155-1.088-3.648-1.472a113.713 113.713 0 00-4.992-1.152 54.471 54.471 0 01-5.44-1.472 22.684 22.684 0 01-4.928-2.304 11.86 11.86 0 01-3.648-3.776c-.939-1.579-1.408-3.563-1.408-5.952 0-2.688.725-5.12 2.176-7.296 1.493-2.176 3.712-3.925 6.656-5.248 2.944-1.323 6.613-1.984 11.008-1.984 2.944 0 5.824.341 8.64 1.024 2.859.64 5.397 1.6 7.616 2.88l-3.904 9.408c-2.133-1.152-4.245-2.005-6.336-2.56-2.09-.597-4.117-.896-6.08-.896-1.75 0-3.157.192-4.224.576-1.067.341-1.835.81-2.304 1.408a3.225 3.225 0 00-.704 2.048c0 .981.448 1.77 1.344 2.368.939.555 2.155 1.024 3.648 1.408 1.536.341 3.2.704 4.992 1.088 1.835.384 3.648.875 5.44 1.472 1.835.555 3.499 1.323 4.992 2.304 1.493.939 2.688 2.197 3.584 3.776.939 1.536 1.408 3.477 1.408 5.824 0 2.603-.747 5.013-2.24 7.232-1.45 2.176-3.648 3.925-6.592 5.248-2.901 1.323-6.57 1.984-11.008 1.984zM128.87 78.2h12.672V123H128.87V78.2zM111.59 123H98.918V78.2h12.672V123zm18.176-17.472h-19.072V95.032h19.072v10.496z" fill="#E2E2E2"/></svg>