<svg width="262" height="300" viewBox="0 0 262 350" fill="none" xmlns="http://www.w3.org/2000/svg">
<path d="M101.631 102.696C101.291 106.906 100.953 111.115 101.115 115.098C101.278 119.082 101.941 122.84 102.698 126.771C103.454 130.701 104.302 134.805 104.904 137.762C105.507 140.719 105.864 142.53 106.654 143.846C107.444 145.163 108.665 145.987 109.926 146.442C111.189 146.897 112.492 146.984 114.33 147.021C116.166 147.059 118.541 147.05 120.615 146.643C122.69 146.237 124.464 145.433 125.727 144.5C126.988 143.568 127.734 142.505 128.656 141.898C129.577 141.292 130.673 141.141 130.709 140.989C130.745 140.838 129.721 140.687 128.236 140.281C126.749 139.875 124.8 139.216 122.842 139.005C120.882 138.793 118.915 139.032 117.163 139.032C115.412 139.032 113.875 138.792 112.207 138.773C110.539 138.756 108.739 138.961 107.387 139.066C106.034 139.173 105.13 139.181 105.047 138.87C104.964 138.56 105.701 137.934 106.436 137.293C107.173 136.653 107.909 135.998 108.652 135.548C109.398 135.097 110.151 134.85 111.002 134.939C111.851 135.029 112.803 135.455 113.562 135.399C114.324 135.342 114.894 134.804 115.902 134.575C116.91 134.347 118.354 134.427 120.278 135.196C122.204 135.966 124.61 137.424 126.462 138.469C128.314 139.514 129.612 140.144 129.63 139.898C129.648 139.653 128.385 138.531 126.832 137.176C125.278 135.821 123.432 134.231 121.56 132.683C119.687 131.135 117.786 129.63 116.21 129.391C114.631 129.152 113.373 130.18 112.181 130.362C110.987 130.544 109.859 129.88 108.539 129.754C107.22 129.627 105.712 130.039 104.96 131.701C104.211 133.364 104.217 136.276 104.775 138.798C105.331 141.321 106.438 143.456 107.274 145.928C108.111 148.4 108.68 151.208 108.862 154.25C109.043 157.29 108.842 160.565 110.474 163.169C112.109 165.772 115.58 167.708 121.809 168.013C128.039 168.319 137.025 166.993 143.786 164.731C150.548 162.468 155.083 159.267 159.836 155.017C164.591 150.766 169.565 145.463 173.101 138.145C176.638 130.826 178.739 121.494 179.533 116.194C180.328 110.894 179.819 109.629 178.338 114.802C176.857 119.975 174.404 131.587 171.649 141.426C168.893 151.265 165.837 159.329 159.759 164.025C153.681 168.722 144.581 170.052 139.578 169.912C134.577 169.771 133.673 168.161 133.449 169.584C133.224 171.007 133.681 175.466 134.707 179.189C135.731 182.911 137.325 185.898 137.594 188.338C137.865 190.776 136.812 192.668 136.722 191.855C136.633 191.041 137.504 187.526 140.765 184.407C144.026 181.288 149.678 178.567 157.849 173.898C166.02 169.229 176.71 162.615 185.422 156.02C194.136 149.425 200.871 142.854 208.522 126.991C216.173 111.13 224.738 85.9815 226.246 67.7979C227.752 49.6142 222.203 38.3972 215.914 31.1821C209.624 23.967 202.596 20.7537 196.939 19.2181C191.282 17.6825 186.996 17.826 187.969 18.1146C188.941 18.4032 195.173 18.8384 201.419 20.9497C207.666 23.061 213.927 26.8484 220.005 31.7315C226.084 36.6146 231.983 42.5936 235.843 48.432C239.702 54.272 241.521 59.9716 241.291 69.4508C241.062 78.93 238.785 92.1904 233.872 104.571C228.959 116.952 221.412 128.454 212.452 137.29C203.493 146.126 193.124 152.293 192.894 153.554C192.664 154.815 202.572 151.168 211.489 146.743C220.404 142.318 228.328 137.116 234.374 131.657C240.421 126.199 244.592 120.488 247.232 114.617C249.873 108.746 250.978 102.716 251.816 97.0226C252.654 91.3292 253.225 85.9738 252.579 79.9563C251.935 73.9388 250.076 67.2608 247.437 62.2465C244.799 57.2306 241.383 53.8785 241.37 54.9681C241.359 56.0577 244.753 61.5875 247.307 67.3133C249.861 73.0391 251.576 78.9609 252.259 85.9013C252.941 92.8417 252.593 100.802 251.457 108.848C250.321 116.893 248.398 125.022 244.267 134.489C240.138 143.956 233.803 154.757 223.802 162.98C213.802 171.202 200.131 176.844 187.949 181.558C175.768 186.271 165.074 190.057 157.748 193.278C150.422 196.499 146.462 199.155 142.887 201.524C139.312 203.893 136.12 205.975 134.138 208.609C132.156 211.244 131.385 214.431 131.848 214.739C132.311 215.048 134.014 212.478 136.804 210.248C139.594 208.018 143.472 206.128 147.617 205.26C151.765 204.393 156.179 204.55 160.62 203.999C165.06 203.448 169.531 202.187 174.555 200.687C179.58 199.189 185.16 197.449 189.56 194.559C193.962 191.668 197.184 187.625 200.724 184.387C204.264 181.149 208.119 178.713 211.758 176.506C215.398 174.298 218.819 172.316 221.745 169.265C224.669 166.214 227.099 162.091 227.416 161.536C227.732 160.98 225.935 163.988 225.166 167.283C224.399 170.578 224.66 174.16 226.269 177.528C227.877 180.896 230.834 184.047 234.297 188.541C237.761 193.035 241.732 198.869 241.562 201.544C241.389 204.217 237.074 203.731 232.432 200.806C227.789 197.882 222.82 192.522 216.869 189.375C210.917 186.229 203.983 185.297 201.692 185.876C199.399 186.455 201.746 188.541 206.951 191.443C212.157 194.346 220.224 198.064 226.676 201.027C233.129 203.99 237.966 206.2 242 209.42C246.033 212.639 249.259 216.869 252.063 228.628C254.867 240.387 257.249 259.672 258.811 279.642C260.373 299.612 261.115 320.267 260.985 345.533C260.854 370.799 259.851 400.674 256.832 409.395C253.811 418.115 248.776 405.682 247.176 378.196C245.575 350.711 247.41 308.176 245.373 279.674C243.336 251.172 237.423 236.703 231.441 225.992C225.459 215.281 219.407 208.328 209.545 204.952C199.686 201.575 186.018 201.774 183.932 204.629C181.846 207.486 191.343 212.999 199.242 220.86C207.14 228.722 213.441 238.93 217.04 250.767C220.639 262.603 221.535 276.069 221.798 298.541C222.059 321.016 221.689 352.5 220.465 374.542C219.24 396.584 217.162 409.182 214.263 414.246C211.364 419.311 207.645 416.84 204.815 411.289C201.987 405.737 200.046 397.102 197.17 375.653C194.293 354.205 190.481 319.941 186.046 296.322C181.61 272.701 176.551 259.723 170.786 248.787C165.02 237.851 158.548 228.955 151.755 223.228C144.962 217.502 137.849 214.945 130.782 216.25C123.715 217.556 116.695 222.725 111.829 228.028C106.962 233.331 104.249 238.769 97.3809 249.661C90.5144 260.552 79.4944 276.896 69.125 290.589C58.7572 304.281 49.0416 315.324 40.6576 325.769C32.2736 336.216 25.2229 346.066 20.5726 353.864C15.9223 361.663 13.6741 367.41 12.1197 373.566C10.5654 379.723 9.70805 386.287 10.7544 392.452C11.8008 398.618 14.7526 404.382 13.751 404.748C12.7495 405.114 7.79314 400.078 4.71485 391.27C1.63816 382.462 0.437919 369.881 1.24395 356.568C2.04837 343.257 4.85745 329.214 6.86852 320.428C8.87798 311.641 10.0878 308.112 11.3185 306.405C12.5476 304.698 13.7959 304.812 15.6371 305.613C17.4783 306.414 19.914 307.899 22.0437 308.17C24.1733 308.442 26.0017 307.502 26.577 305.736C27.1538 303.972 26.4808 301.386 24.9008 299.378C23.3208 297.37 20.8306 295.942 18.3837 294.839C15.9367 293.735 13.5299 292.958 11.8682 293.075C10.2064 293.194 9.28661 294.208 9.55902 293.925C9.82984 293.643 11.2897 292.062 12.6309 291.004C13.9722 289.945 15.1932 289.408 16.8534 289.916C18.5135 290.423 20.6111 291.976 22.9378 293.547C25.263 295.118 27.8156 296.706 29.9613 297.333C32.107 297.958 33.844 297.62 33.2928 295.219C32.7416 292.817 29.9004 288.355 27.1058 285.006C24.3111 281.657 21.5629 279.422 19.5214 278.575C17.4799 277.728 16.1451 278.27 16.5697 278.253C16.9928 278.237 19.1737 277.663 20.7665 277.929C22.3609 278.194 23.3673 279.299 23.6685 277.708C23.9698 276.118 23.566 271.834 23.9538 268.88C24.3416 265.926 25.5161 264.302 27.2035 263.447C28.8925 262.594 31.0926 262.509 31.8682 261.444C32.6438 260.379 31.9948 258.337 30.636 256.919C29.2771 255.502 27.2099 254.711 25.3255 254.919C23.441 255.127 21.7392 256.336 20.3451 258.131C18.9494 259.925 17.8597 262.308 17.7603 263.944C17.6578 265.582 18.5423 266.472 19.6881 268.878C20.8338 271.284 22.2391 275.203 23.0147 275.527C23.7919 275.851 23.9394 272.579 24.4858 270.108C25.0338 267.638 25.9825 265.969 27.3445 262.024C28.7066 258.081 30.4837 251.861 31.559 246.486C32.6374 241.111 33.014 236.578 32.5637 233.902C32.115 231.224 30.8363 230.403 29.854 231.202C28.8701 232.002 28.1778 234.423 28.4342 237.217C28.6922 240.01 29.8972 243.176 31.0237 242.396C32.1503 241.618 33.1967 236.897 34.0379 233.98C34.8776 231.063 35.5106 229.951 39.1609 230.11C42.8129 230.269 49.4839 231.699 56.7542 233.244C64.0245 234.789 71.8908 236.445 76.6261 237.488C81.3597 238.532 82.9605 238.959 82.9541 244.294C82.9493 249.628 81.3388 259.87 80.536 262.35C79.7348 264.83 79.7428 259.55 79.2621 255.431C78.7813 251.314 77.8103 248.357 77.9321 241.739C78.0538 235.121 79.2669 224.841 80.7796 217.68C82.2907 210.518 84.1015 206.475 85.0966 203.226C86.0917 199.977 86.2728 197.52 86.9859 193.546C87.6973 189.572 88.9392 184.083 89.5594 180.629C90.1795 177.176 90.1779 175.761 89.6507 173.984C89.1251 172.208 88.0755 170.072 87.3127 167.325C86.55 164.578 86.0708 161.223 85.9106 158.698C85.7488 156.173 85.9042 154.48 85.3081 153.032C84.712 151.586 83.3627 150.385 81.7363 149.333C80.1098 148.28 78.2077 147.373 76.5043 145.805C74.7993 144.237 73.2946 142.009 71.8892 140.81C70.4839 139.613 69.1763 139.444 68.3671 140.401C67.5594 141.358 67.2502 143.439 67.5466 145.822C67.8415 148.206 68.7452 150.891 70.064 153.399C71.3829 155.907 73.1183 158.235 74.74 160.54C76.3617 162.846 77.8679 165.129 78.924 168.081C79.9784 171.034 80.5809 174.659 80.4078 175.236C80.2332 175.815 79.2829 173.347 77.8087 170.492C76.3344 167.637 74.3346 164.393 72.4821 160.599C70.6297 156.806 68.9247 152.463 66.5643 147.356C64.2055 142.249 61.1929 136.376 59.0248 131.072C56.8567 125.767 55.5299 121.028 54.2335 117.757C52.9404 114.487 51.6776 112.684 50.1505 111.954C48.6218 111.224 46.8286 111.566 45.8415 112.99C44.8544 114.415 44.6766 116.927 45.3239 120.957C45.9713 124.986 47.4456 130.536 48.3478 135.237C49.2483 139.938 49.5768 143.791 50.1922 147.032C50.8075 150.274 51.7065 152.907 53.2064 156.359C54.7062 159.813 56.8038 164.087 57.1035 164.51C57.4048 164.934 55.9049 161.508 54.2159 157.545C52.5269 153.581 50.6441 149.083 49.4278 144.284C48.2115 139.486 47.6619 134.392 46.9071 131.862C46.1508 129.332 45.1925 129.37 44.2775 130.493C43.3626 131.617 42.494 133.827 41.7729 136.196C41.0518 138.563 40.4782 141.09 40.4942 144.192C40.5102 147.294 41.1143 150.972 41.7425 154.54C42.3706 158.108 43.0228 161.567 42.9267 162.686C42.8321 163.805 41.9893 162.585 41.1544 159.46C40.3179 156.335 39.4878 151.305 39.4638 147.278C39.4398 143.252 40.217 140.228 40.7858 138.247C41.3531 136.265 41.7104 135.327 40.8948 135.412C40.0791 135.497 38.0905 136.608 36.5057 137.893C34.9209 139.179 33.7367 140.639 32.7512 142.746C31.7641 144.852 30.9741 147.604 30.7241 150.444C30.4757 153.284 30.7658 156.211 31.0606 159.249C31.3555 162.286 31.6551 165.431 31.8298 167.601C32.0044 169.771 32.0541 170.967 31.6551 170.248C31.2593 169.529 30.4148 166.894 29.5575 164.587C28.6986 162.28 27.8253 160.3 27.8221 158.176C27.8189 156.054 28.6858 153.788 29.2034 151.946C29.721 150.103 29.8876 148.68 29.1793 147.973C28.4726 147.266 26.8894 147.272 25.4569 148.116C24.0211 148.961 22.7359 150.643 21.4524 152.407C20.1688 154.171 18.89 156.017 18.3933 158.375C17.8965 160.733 18.185 163.609 19.1801 167.135C20.1736 170.662 21.8722 174.843 23.175 179.011C24.4794 183.18 25.3847 187.336 26.9375 191.413C28.4919 195.491 30.692 199.488 33.1133 203.368C35.5346 207.248 38.1754 211.012 39.1641 215.056C40.1513 219.101 39.4814 223.425 38.8148 227.751M158.282 89.8954C157.649 89.5729 157.42 88.8892 157.687 88.0897C157.955 87.2903 158.716 86.3766 159.913 85.7577C161.108 85.1389 162.741 84.8163 164.317 84.7361C165.893 84.6558 167.411 84.8194 168.566 85.2701C169.72 85.7223 170.51 86.4615 170.422 87.2347C170.335 88.0079 169.369 88.8151 168.965 89.6392C168.563 90.4634 168.725 91.303 168.887 92.1441L170.366 87.815C170.106 87.3242 169.845 86.8335 169.539 86.6529C169.231 86.4723 168.877 86.6004 168.382 86.7162C167.887 86.8319 167.251 86.9338 166.728 86.8381C166.206 86.7424 165.794 86.4507 165.409 86.3303C165.025 86.2099 164.666 86.2624 164.272 86.3735C163.877 86.4847 163.443 86.656 163.137 86.9754C162.831 87.2949 162.65 87.7641 162.704 88.4231C162.757 89.0806 163.046 89.9294 162.799 90.2473C162.554 90.5653 161.772 90.3507 160.862 90.2643C159.951 90.1779 158.915 90.218 158.282 89.8954ZM158.282 89.8954C159.142 90.0189 160.003 90.1424 160.639 90.7613C161.277 91.3817 161.689 92.4975 162.104 93.6134L158.282 89.8954ZM111.558 61.4871C110.837 60.8729 109.936 60.5812 108.785 60.7263C107.635 60.8714 106.233 61.4578 105.382 61.7387C104.531 62.0196 104.231 61.9965 103.526 61.9718C102.821 61.9471 101.711 61.9208 100.616 62.4024C99.5218 62.8823 98.4417 63.8701 97.7495 65.1325C97.0572 66.395 96.7511 67.9306 96.671 69.2054C96.5909 70.4802 96.7383 71.4942 97.1838 72.5869C97.6325 73.6796 98.3792 74.8509 99.3231 75.9575C100.267 77.0626 101.409 78.1028 101.51 78.5673C101.615 79.0303 100.679 78.9192 99.6419 78.1089C98.6052 77.2971 97.4642 75.7862 96.5316 74.4111C95.599 73.036 94.8763 71.7967 94.4292 70.5929C93.9821 69.3891 93.8139 68.2192 93.8619 67.3055C93.9132 66.3919 94.1792 65.736 94.4837 65.0631C94.7865 64.3902 95.1247 63.7018 95.873 63.0521C96.6213 62.4023 97.7799 61.7943 99.0939 61.5149C100.408 61.2356 101.877 61.285 102.824 61.4439C103.773 61.6029 104.199 61.8714 104.869 62.052C105.541 62.2326 106.452 62.3236 107.215 62.5721C107.978 62.8191 108.588 63.2234 109.096 63.7312C109.603 64.2405 110.007 64.8547 110.284 66.3471C110.563 67.8411 110.715 70.2132 110.276 71.9942C109.833 73.7752 108.8 74.9636 108 75.8341C107.199 76.7045 106.632 77.257 105.856 77.5719C105.081 77.8867 104.094 77.9623 104.268 77.6135C104.443 77.2647 105.774 76.4884 106.778 75.7739C107.781 75.0593 108.455 74.4049 109.202 73.6441C109.952 72.8832 110.776 72.0174 111.351 71.2565C111.926 70.4956 112.252 69.8397 112.492 69.2116C112.732 68.5834 112.885 67.9815 113.072 67.3086C113.259 66.6357 113.482 65.8903 113.705 65.1449L104.577 85.8334C103.594 85.3611 102.611 84.8904 101.756 84.1465C100.901 83.4026 100.177 82.3871 99.4641 81.3932C98.751 80.3993 98.0491 79.427 97.3809 78.913C96.7127 78.3991 96.0765 78.3404 95.5189 78.0241C94.9612 77.7077 94.4821 77.1335 94.3218 76.6536C94.1616 76.1736 94.3202 75.7893 94.6359 75.9159C94.9516 76.0424 95.4227 76.6783 96.0172 77.1876C96.6101 77.6969 97.3248 78.0781 98.1805 78.3929C99.0346 78.7078 100.028 78.9562 101.365 78.8883C102.701 78.8204 104.377 78.4361 106.063 77.8126C107.749 77.1891 109.439 76.3264 110.648 75.78C111.854 75.2337 112.577 75.0037 112.931 74.4034C113.285 73.803 113.272 72.8323 113.397 71.5899C113.521 70.3475 113.78 68.8335 113.796 67.5201C113.812 66.2067 113.585 65.0924 113.202 64.0661C112.819 63.0397 112.277 62.1029 111.558 61.4871ZM111.558 61.4871C111.817 60.9238 112.075 60.3605 111.881 59.8157C111.688 59.2709 111.042 58.7462 110.205 58.5193C109.369 58.2924 108.338 58.3681 107.443 58.1983C106.547 58.0285 105.786 57.6134 104.832 57.3031C103.879 56.9929 102.735 56.7892 101.658 56.8463C100.583 56.9034 99.5714 57.2214 98.8872 57.5038C98.203 57.7862 97.844 58.0331 97.4867 58.2816L111.558 61.4871ZM112.133 34.1299C110.615 32.8365 109.098 31.5432 106.239 31.3596C103.38 31.1744 99.1804 32.0988 96.4451 32.23C93.7097 32.3627 92.439 31.7037 92.4149 32.4939C92.3909 33.2841 93.6136 35.5235 94.7962 37.465C95.9788 39.4066 97.1197 41.0502 98.8279 42.075C100.536 43.0998 102.812 43.5072 105.085 43.9147M130.801 20.9142C123.175 24.4624 115.548 28.0121 110.207 32.639L130.801 20.9142ZM102.683 43.4594C102.424 44.1199 102.182 44.7897 101.956 45.4657L102.683 43.4594ZM99.6227 54.7643C99.5073 55.3261 99.3952 55.8894 99.2814 56.4528L99.6227 54.7643ZM124.808 112.025C125.672 112.428 126.536 112.83 127.165 114.004C127.794 115.177 128.185 117.122 127.973 118.49C127.762 119.859 126.946 120.653 125.483 120.464C124.02 120.276 121.908 119.105 119.812 118.301C117.716 117.497 115.636 117.06 114.165 117.047C112.695 117.037 111.837 117.45 111.888 118.02C111.939 118.589 112.902 119.315 113.695 119.693C114.487 120.071 115.11 120.102 114.392 120.184C113.675 120.265 111.619 120.4 109.622 119.972C107.625 119.545 105.693 118.558 104.52 117.188C103.347 115.817 102.935 114.064 102.983 112.498C103.031 110.931 103.539 109.55 104.477 108.331C105.414 107.111 106.784 106.051 107.802 105.033C108.819 104.014 109.486 103.035 109.992 102.082C110.5 101.126 110.848 100.196 111.199 99.2651L124.808 112.025ZM175.639 105.57C174.128 105.154 172.617 104.741 171.662 103.863C170.709 102.985 170.314 101.643 170.156 101.452C169.999 101.261 170.077 102.221 170.691 103.525C171.306 104.829 172.452 106.479 173.237 108.047C174.023 109.615 174.442 111.099 174.516 112.867C174.59 114.635 174.314 116.685 172.946 119.336C171.576 121.988 169.113 125.238 167.275 127.658C165.437 130.076 164.224 131.663 163.209 133.242C162.196 134.821 161.381 136.392 160.578 136.77C159.774 137.148 158.98 136.332 157.982 135.348C156.982 134.367 155.776 133.22 154.675 131.742C153.574 130.263 152.58 128.454 152.013 126.82C151.446 125.186 151.306 123.729 151.563 122.218C151.819 120.707 152.474 119.142 153.216 117.765C153.96 116.388 154.79 115.203 155.883 114.101C156.977 113.001 158.333 111.985 159.671 111.011C161.009 110.038 162.33 109.099 163.265 108.064C164.201 107.027 164.754 105.889 165.134 104.894C165.512 103.897 165.715 103.043 165.709 102.369C165.701 101.696 165.482 101.204 165.587 100.872C165.693 100.54 166.126 100.37 165.999 100.702C165.872 101.034 165.188 101.869 164.137 102.525C163.084 103.181 161.666 103.659 160.682 104.525C159.7 105.391 159.152 106.644 158.452 107.574C157.75 108.507 156.897 109.116 155.758 109.602C154.619 110.089 153.196 110.451 151.6 110.513C150.002 110.575 148.234 110.334 146.135 109.837C144.036 109.34 141.607 108.587 139.527 108.07C137.447 107.553 135.716 107.273 134.508 107.031C133.298 106.789 132.611 106.585 132.087 106.489C131.563 106.394 131.204 106.408 131.609 106.047C132.014 105.684 133.183 104.946 134.167 104.119C135.152 103.292 135.953 102.376 136.79 101.342C137.626 100.31 138.498 99.1601 139.528 98.4656C140.559 97.7711 141.748 97.5334 143.083 97.4439C144.419 97.3544 145.9 97.4131 147.289 97.6677C148.678 97.9224 149.976 98.373 151.21 98.7295C152.444 99.086 153.614 99.35 154.663 99.617C155.713 99.884 156.644 100.157 157.727 100.25C158.811 100.342 160.044 100.257 160.874 100.014C161.705 99.7697 162.128 99.3685 162.533 99.0259C162.938 98.6832 163.326 98.3993 163.833 98.5521C164.339 98.7064 164.962 99.2975 164.908 99.4163C164.852 99.5336 164.118 99.1771 163.714 98.5767C163.309 97.9764 163.235 97.1322 162.889 96.5102C162.543 95.8882 161.927 95.4885 161.86 94.8172C161.791 94.1458 162.272 93.2028 162.581 92.4605C162.89 91.7166 163.027 91.1733 163.331 90.7767C163.634 90.3801 164.103 90.1316 164.599 90.0343C165.094 89.9387 165.616 89.9958 166.002 90.1532C166.388 90.3121 166.64 90.5714 166.892 90.8508C167.142 91.1301 167.395 91.428 167.763 91.6255C168.132 91.8231 168.614 91.9203 168.883 92.141C169.153 92.3617 169.207 92.7059 169.265 93.1272C169.323 93.5485 169.382 94.047 169.739 94.456C170.097 94.865 170.749 95.1876 171.087 95.5981C171.423 96.0086 171.444 96.5087 171.34 96.8775C171.234 97.2479 171.005 97.4871 170.771 97.1106C170.536 96.734 170.294 95.7432 170.178 94.882C170.063 94.0208 170.072 93.2877 170.43 92.7352C170.787 92.1827 171.491 91.8092 171.949 91.3107C172.409 90.8122 172.622 90.1871 172.678 88.1839C172.734 86.1806 172.635 82.7961 172.976 80.4147C173.316 78.0349 174.099 76.6567 174.989 75.4683C175.878 74.2799 176.876 73.2783 178.125 72.519C179.373 71.7596 180.87 71.2395 182.671 70.8244C184.472 70.4092 186.578 70.0975 188.789 69.9354C191 69.7734 193.319 69.761 194.782 70.3783C196.247 70.9957 196.857 72.2427 196.891 73.9929C196.923 75.743 196.378 77.9978 195.617 80.3545C194.854 82.7127 193.877 85.1759 192.874 87.0048C191.871 88.8336 190.84 90.0282 189.959 90.9279C189.076 91.8277 188.342 92.4342 187.103 92.9235C185.865 93.4143 184.121 93.7893 182.475 94.0825C180.83 94.3773 179.279 94.5903 178.291 94.8588C177.303 95.1274 176.876 95.4515 176.139 95.9808C175.402 96.5102 174.353 97.2433 173.309 97.6106C172.265 97.9779 171.226 97.9795 171.332 98.1492C171.439 98.319 172.692 98.6555 173.793 98.6894C174.894 98.7249 175.843 98.4564 176.66 97.9255C177.477 97.393 178.163 96.5966 178.896 95.9145C179.626 95.2323 180.403 94.6628 181.264 94.2261C182.124 93.7893 183.072 93.4822 183.943 93.314C184.815 93.1457 185.615 93.1149 186.361 93.3371C187.111 93.5578 187.81 94.0316 188.377 94.6844C188.944 95.3357 189.377 96.166 190.356 97.5921C191.335 99.0181 192.858 101.038 193.995 101.995C195.133 102.952 195.889 102.846 195.909 102.826C195.928 102.806 195.21 102.872 194.369 103.309C193.527 103.745 192.563 104.553 191.683 105.529C190.805 106.506 190.012 107.653 188.632 108.573C187.251 109.493 185.281 110.184 183.471 110.388C181.66 110.592 180.009 110.309 178.844 109.681C177.679 109.051 176.998 108.078 176.417 107.04C175.835 106.005 175.349 104.906 174.837 104.117C174.324 103.329 173.785 102.849 172.742 102.273C171.697 101.697 170.153 101.026 169.627 101.373C169.101 101.721 169.598 103.088 170.3 104.619C171.004 106.151 171.912 107.848 172.431 109.272C172.949 110.695 173.077 111.846 172.633 113.172C172.188 114.498 171.172 116 170.175 117.04C169.18 118.078 168.204 118.656 167.555 119.373C166.904 120.091 166.581 120.951 166.199 122.37C165.818 123.79 165.381 125.77 164.623 127.243C163.865 128.715 162.786 129.681 161.91 130.734C161.035 131.788 160.362 132.93 160.024 133.944C159.685 134.958 159.684 135.844 159.703 136.342C159.724 136.842 159.769 136.955 159.814 137.069L175.639 105.57ZM189.476 107.926C190.736 107.858 191.994 107.789 193.632 107.466C195.268 107.144 197.282 106.565 199.027 105.749C200.772 104.932 202.246 103.873 203.725 102.892C205.204 101.912 206.685 101.008 207.083 100.453C207.478 99.8994 206.791 99.6941 206.063 99.0104C205.334 98.3267 204.568 97.1631 203.358 95.9778C202.15 94.7925 200.501 93.5856 198.931 92.7985C197.359 92.0114 195.865 91.6456 194.268 91.516C192.67 91.3863 190.968 91.4913 189.268 91.5962L189.476 107.926ZM165.714 102.37C164.682 103.699 163.652 105.028 161.894 106.273C160.136 107.519 157.647 108.679 155.756 109.829C153.865 110.981 152.571 112.12 150.356 112.962C148.141 113.805 145.007 114.348 142.232 114.436C139.458 114.524 137.043 114.154 135.328 113.759C133.614 113.364 132.596 112.941 131.668 112.725C130.739 112.51 129.899 112.504 129.89 112.254C129.88 112.004 130.699 111.51 131.287 110.757C131.875 110.004 132.232 108.988 132.529 108.28C132.825 107.571 133.061 107.17 133.298 106.769L165.714 102.37ZM163.126 98.6153C161.913 98.157 160.698 97.6986 159.27 97.4424C157.843 97.1862 156.202 97.1337 154.5 97.2865C152.797 97.4378 151.031 97.7943 149.127 97.6554C147.223 97.5165 145.179 96.8837 143.515 96.0534C141.853 95.2231 140.57 94.1937 139.543 92.9821C138.512 91.7706 137.737 90.3754 137.173 88.8383C136.61 87.3011 136.259 85.6204 136.107 83.8548C135.955 82.0892 135.998 80.2403 135.723 79.3853C135.447 78.5303 134.852 78.6676 134.792 79.0936C134.729 79.5196 135.199 80.2326 135.953 80.6076C136.708 80.9826 137.748 81.0197 138.985 80.9533C140.221 80.887 141.653 80.7156 143.089 80.623C144.523 80.5289 145.962 80.5119 147.422 80.5335C148.883 80.5551 150.364 80.6138 151.692 80.8314C153.019 81.0506 154.194 81.4287 155.258 82.0229C156.322 82.617 157.275 83.4273 158.032 84.0863C158.79 84.7453 159.351 85.25 159.155 84.8533C158.958 84.4567 158.005 83.1572 156.953 82.1448C155.902 81.1324 154.752 80.407 153.391 79.8807C152.031 79.356 150.459 79.0303 148.712 78.8868C146.967 78.7417 145.052 78.7772 143.297 78.9022C141.543 79.0272 139.953 79.2418 138.778 79.3266C137.604 79.4115 136.841 79.3621 136.218 79.2711C135.594 79.18 135.109 79.0442 134.623 78.9084L163.126 98.6153ZM174.99 75.4714C175.463 74.9312 175.937 74.3895 175.635 73.2721C175.332 72.1547 174.253 70.4601 172.659 69.2301C171.064 68.0001 168.954 67.2346 167.651 66.6681C166.348 66.1017 165.855 65.736 165.494 66.1928C165.132 66.6496 164.906 67.9291 164.28 69.2039C163.653 70.4787 162.626 71.7504 161.802 73.0715C160.977 74.3926 160.354 75.7646 159.708 77.0209C159.061 78.2772 158.387 79.4192 158.043 80.3761C157.698 81.333 157.678 82.1047 157.658 82.8763L174.99 75.4714ZM170.536 97.6801C170.375 98.1292 170.214 98.5783 169.68 98.9734C169.146 99.37 168.241 99.7126 167.469 99.8377C166.695 99.9642 166.05 99.8731 165.408 99.7821L170.536 97.6801ZM161.309 37.6456C161.259 37.9404 161.197 38.2429 161.123 38.5485C160.677 40.3495 159.718 42.2494 159.032 44.1616C158.344 46.0738 157.932 47.9968 157.455 49.7778C156.977 51.5604 156.436 53.2025 156.261 54.5205C156.086 55.8385 156.279 56.8355 156.74 57.777C157.202 58.7184 157.934 59.6058 158.86 60.6414C159.786 61.677 160.91 62.8607 161.999 63.8191C163.089 64.7776 164.147 65.5076 165.704 65.6742C167.262 65.8409 169.319 65.4427 171.095 64.2806C172.87 63.1185 174.364 61.1924 175.728 58.6736C177.093 56.1534 178.328 53.0404 178.822 50.6035C179.317 48.1666 179.07 46.4041 178.811 44.9734C178.551 43.5427 178.277 42.4423 177.211 40.9453C176.144 39.4482 174.282 37.5545 171.89 36.3924C171.229 36.0714 170.529 35.8075 169.823 35.5821L161.309 37.6456ZM117.222 45.299C117.381 45.2867 117.54 45.2728 118.036 45.3083C118.532 45.3438 119.365 45.4271 120.163 45.2713C120.959 45.1154 121.72 44.7218 122.501 44.2449C123.281 43.768 124.079 43.2093 124.807 42.8374C125.533 42.4655 126.188 42.2787 127.127 42.3621C128.068 42.4454 129.295 42.7957 130.308 42.6923C131.321 42.5889 132.12 42.0287 132.949 41.8404C133.777 41.6521 134.636 41.8327 135.843 42.1105C137.051 42.3883 138.61 42.7633 140.365 43.1167C142.119 43.4702 144.071 43.8004 145.529 43.5365C146.988 43.2726 147.951 42.413 148.762 41.4901C149.572 40.5687 150.233 39.584 150.313 39.5254C150.391 39.4667 149.89 40.3341 149.355 41.1768C148.819 42.0179 148.25 42.8343 147.265 43.8684C146.281 44.9024 144.881 46.1556 143.446 47.026C142.012 47.8965 140.547 48.3842 139.109 48.7746C137.67 49.1651 136.261 49.4568 135.101 49.5695C133.941 49.6821 133.032 49.6188 132.12 49.2809C131.207 48.9444 130.289 48.3348 129.433 47.8533C128.577 47.3717 127.782 47.0199 127.081 46.8254C126.382 46.6309 125.779 46.597 125.124 46.6772C124.47 46.759 123.765 46.9566 122.765 47.1094C121.765 47.2622 120.469 47.3702 119.445 47.1248C118.421 46.8794 117.669 46.2821 117.28 45.8824C116.891 45.4827 116.865 45.2805 117.309 45.12C117.753 44.9595 118.668 44.8407 119.203 44.2542C119.737 43.6677 119.894 42.6152 120.434 41.845C120.975 41.0749 121.901 40.5888 122.775 40.6227C123.648 40.6567 124.47 41.2107 124.451 41.4499C124.433 41.6892 123.576 41.612 122.623 41.5842C121.669 41.5564 120.621 41.578 119.552 41.3172C118.483 41.0564 117.395 40.5162 116.243 39.7291C115.091 38.9435 113.873 37.9126 112.893 37.1625C111.912 36.4125 111.167 35.9433 111.234 35.38C111.303 34.8167 112.184 34.1592 113.28 33.0325C114.376 31.9059 115.687 30.3116 118.017 29.0013C120.349 27.691 123.701 26.6647 126.34 26.373C128.979 26.0813 130.907 26.5212 133.13 27.8793C135.352 29.2375 137.868 31.5124 139.82 32.9415C141.77 34.3706 143.155 34.9525 143.581 34.5497C144.009 34.1453 143.48 32.7563 142.999 31.8287C142.518 30.9012 142.086 30.4336 141.269 30.1249C140.453 29.8162 139.251 29.6665 138.179 29.2915C137.105 28.9149 136.165 28.3115 135.582 27.5305C134.998 26.7496 134.772 25.7881 134.843 24.7695C134.912 23.7509 135.277 22.6721 135.407 21.4174C135.537 20.1626 135.429 18.7304 135.115 17.3244C134.798 15.9169 134.274 14.5356 134.146 13.4861C134.018 12.4366 134.29 11.7205 135.051 11.5338C135.814 11.3486 137.067 11.6928 138.242 12.3564C139.416 13.02 140.512 14.0016 141.932 14.9307C143.352 15.8598 145.097 16.7364 146.339 17.5004C147.579 18.2643 148.319 18.9171 148.789 19.519C149.258 20.1209 149.455 20.6704 149.463 21.2152C149.471 21.76 149.289 22.2986 149.157 22.9823C149.026 23.6645 148.946 24.4917 149.106 25.0504C149.266 25.6091 149.667 25.9023 150.04 26.3452C150.414 26.7882 150.758 27.3808 151.021 28.151C151.282 28.9211 151.462 29.8702 151.585 29.6187C151.709 29.3671 151.776 27.9164 151.668 26.8082C151.561 25.7001 151.279 24.9362 150.851 24.0781C150.423 23.22 149.846 22.2662 149.34 21.3618C148.832 20.4574 148.39 19.6024 148.052 18.877C147.712 18.1532 147.475 17.559 147.299 16.6793C147.121 15.798 147.002 14.6297 147.204 13.3966C147.406 12.1635 147.93 10.864 148.847 9.52127C149.763 8.17857 151.074 6.7911 152.542 5.63977C154.008 4.48843 155.633 3.57169 157.088 2.78613C158.545 2.00211 159.833 1.34928 160.918 1.11006C162.004 0.87084 162.889 1.04678 163.535 1.39558C164.182 1.74592 164.591 2.27065 164.789 3.23678C164.99 4.20292 164.982 5.61044 164.972 7.22632C164.966 8.8422 164.958 10.6664 165.1 12.2839C165.241 13.9028 165.533 15.315 165.472 16.5265C165.413 17.738 165.002 18.7505 163.938 20.8185C162.874 22.8882 161.155 26.0134 159.719 28.1077C158.283 30.2021 157.13 31.2639 156.272 32.1112C155.413 32.9585 154.851 33.5897 154.961 33.6545C155.072 33.7178 155.86 33.2147 156.716 32.6668C157.572 32.1189 158.498 31.5293 159.423 30.7314C160.349 29.9335 161.273 28.9257 162.329 27.8099C163.389 26.6925 164.579 25.4655 165.606 24.0812C166.635 22.6983 167.501 21.1596 168.5 19.7706C169.5 18.3816 170.633 17.1423 171.693 16.3891C172.752 15.636 173.736 15.3705 174.569 15.4539C175.402 15.5372 176.083 15.9694 176.801 15.9771C177.519 15.9848 178.275 15.5665 179.056 15.4014C179.838 15.2363 180.644 15.3258 181.713 15.5866C182.781 15.8459 184.11 16.2765 184.337 16.6253C184.563 16.9741 183.688 17.2395 182.783 17.2905C181.879 17.3414 180.943 17.1793 179.825 17.1408C178.706 17.1006 177.405 17.1855 176.167 17.6161C174.93 18.0482 173.757 18.8292 172.436 19.6718C171.117 20.5145 169.651 21.4189 168.414 22.6181C167.175 23.8188 166.163 25.3143 165.166 26.6632C164.169 28.0121 163.188 29.2159 162.299 30.2005C161.41 31.1852 160.612 31.9537 159.495 32.5371C158.378 33.1221 156.944 33.5233 155.825 33.9184C154.708 34.312 153.909 34.6978 153.571 35.4C153.232 36.1023 153.356 37.1162 153.894 37.4496C154.433 37.783 155.385 37.4326 156.41 37.1888C157.437 36.9449 158.537 36.8076 159.841 36.6316C161.145 36.4572 162.656 36.2442 164.062 35.772C165.464 35.2997 166.757 34.5682 167.959 33.7409C169.161 32.9137 170.27 31.9923 171.327 30.9274C172.385 29.8625 173.391 28.6541 174.833 27.2481C176.274 25.8421 178.15 24.2386 179.905 22.7956C181.66 21.3525 183.296 20.0685 184.192 18.9002C185.086 17.7319 185.241 16.6793 185.291 17.0698C185.339 17.4618 185.283 19.2983 184.496 20.5701C183.708 21.8418 182.192 22.5502 180.822 24.1213C179.452 25.6924 178.226 28.1263 176.505 30.2082C174.784 32.2902 172.568 34.0234 170.561 35.1763C168.555 36.3291 166.755 36.9048 164.773 37.2428C162.791 37.5823 160.626 37.6842 158.835 37.8123C157.041 37.9404 155.623 38.0932 154.684 38.0129C153.747 37.9342 153.289 37.6224 153.09 37.0699C152.891 36.5174 152.952 35.721 153.109 35.0836C153.266 34.4462 153.518 33.9678 153.359 33.3165C153.202 32.6652 152.633 31.8411 152.178 31.3395C151.721 30.8395 151.377 30.662 151.16 30.2468C150.943 29.8317 150.851 29.1773 150.584 28.617C150.316 28.0584 149.869 27.5938 149.38 27.2311C148.893 26.8684 148.366 26.6076 147.869 26.3638C147.372 26.1199 146.908 25.8946 146.432 25.8298C145.954 25.7634 145.465 25.8576 144.778 26.1168C144.089 26.3761 143.201 26.8005 142.728 27.2157C142.256 27.6293 142.2 28.0337 142.188 28.401C142.177 28.7683 142.209 29.0986 142.35 29.4813C142.493 29.8625 142.741 30.2977 142.853 30.7253C142.966 31.1528 142.942 31.5756 143.03 32.0109C143.116 32.4445 143.315 32.8921 143.563 33.2208C143.812 33.5511 144.113 33.7641 144.211 34.0388C144.31 34.3135 144.211 34.6515 144.283 34.9833C144.357 35.3167 144.606 35.647 144.897 36.0313C145.187 36.4156 145.518 36.8554 145.807 37.2798C146.094 37.7042 146.336 38.1132 146.712 38.3602C147.089 38.6071 147.597 38.6904 148.191 38.7414C148.786 38.7908 149.465 38.8077 150.056 38.7414C150.648 38.675 151.149 38.5268 151.72 38.3879C152.292 38.249 152.933 38.1179 153.476 38.1287C154.019 38.1395 154.465 38.2907 154.851 38.5747C155.235 38.8587 155.561 39.2738 155.782 39.7538C156.003 40.2338 156.118 40.777 156.067 41.7663C156.016 42.7556 155.8 44.1878 155.532 45.4889C155.264 46.7899 154.952 47.9598 154.343 49.1373C153.734 50.3149 152.829 51.4986 151.837 52.2472C150.845 52.9957 149.765 53.3121 148.947 53.6732C148.129 54.0328 147.571 54.4387 147.234 54.8585C146.898 55.2783 146.786 55.7135 146.271 55.8864C145.757 56.0592 144.842 55.9697 143.51 55.4758C142.177 54.9804 138.543 53.8569 138.182 53.7689C137.822 53.6809 140.735 54.6285 141.919 55.2243C143.103 55.82 144.441 56.2892 145.821 56.5268C147.201 56.7645 148.621 56.7722 149.939 56.3864C151.257 56.0006 152.471 55.2196 153.957 54.3168C154.824 53.789 155.784 53.2195 156.681 52.5605L117.222 45.299ZM160.749 39.7939C160.743 39.7739 160.738 39.7553 160.733 39.7353C160.503 38.9065 160.184 38.2274 159.564 37.9342C158.945 37.641 158.024 37.7367 157.428 38.1935C156.832 38.6503 156.561 39.4714 156.021 39.5779C155.481 39.6828 154.673 39.0732 153.668 38.9019C152.664 38.7306 151.463 38.9976 150.818 39.78C150.172 40.5625 150.08 41.8605 149.935 43.2093C149.79 44.5598 149.59 45.9611 148.972 47.1017C148.353 48.2422 147.313 49.1203 146.162 49.9352C145.012 50.7501 143.751 51.5002 142.402 52.1283C141.054 52.7565 139.62 53.2627 138.184 53.7689L160.749 39.7939ZM147.111 14.2393C146.558 13.7053 146.004 13.1713 144.951 12.7283C143.898 12.2854 142.347 11.9351 140.89 11.7761C139.434 11.6171 138.07 11.6495 136.793 11.6758C135.516 11.702 134.324 11.719 133.578 12.4413C132.832 13.1636 132.532 14.5912 132.16 15.8011C131.789 17.0111 131.348 18.0035 131.082 19.1486C130.814 20.2938 130.725 21.5918 130.781 22.6844C130.838 23.7771 131.045 24.663 131.553 25.5535C132.063 26.444 132.875 27.3361 133.687 28.2297L147.111 14.2393ZM147.534 39.388C147.629 39.6905 147.061 40.6397 146.007 41.2632C144.953 41.8867 143.409 42.1846 142.011 42.3574C140.612 42.5303 139.358 42.5766 138.73 42.5997C138.313 42.6152 138.222 42.5632 138.46 42.4438C138.815 42.2648 139.528 41.9083 140.097 41.5611C140.666 41.2138 141.091 40.8758 141.701 40.6227C142.31 40.3696 143.105 40.2029 143.841 40.0748C144.578 39.9467 145.257 39.8603 145.973 39.6442C146.688 39.4282 147.44 39.084 147.533 39.3865L147.534 39.388ZM129.438 47.8455C127.904 49.1358 126.369 50.4245 125.356 52.1978C124.345 53.9695 123.856 56.2228 123.696 58.1829C123.534 60.1429 123.701 61.8097 123.651 62.7527C123.6 63.6972 123.334 63.9179 124.028 63.9827C124.72 64.0475 126.372 63.958 128.345 64.1587C130.318 64.3593 132.612 64.8532 135.251 64.813C137.891 64.7729 140.874 64.2019 143.592 63.3314C146.31 62.461 148.758 61.2896 150.819 60.0472C152.88 58.8048 154.551 57.4899 156.16 55.2027C156.178 55.1795 156.194 55.1548 156.21 55.1317L129.438 47.8455ZM156.253 56.178C157.125 57.6643 157.996 59.149 159.237 60.183C160.48 61.2171 162.096 61.7989 163.74 61.9903C165.385 62.1801 167.062 61.9795 167.981 61.3652C168.901 60.751 169.063 59.7216 169.736 59.4021C170.409 59.0811 171.592 59.47 172.672 58.9468C173.75 58.4236 174.724 56.9883 175.732 55.445C176.74 53.9016 177.783 52.2502 178.213 50.1343C178.642 48.0184 178.456 45.4379 177.521 43.1924C176.583 40.9468 174.896 39.0377 173.707 37.9018C172.518 36.7659 171.827 36.4078 171.14 36.0498L156.253 56.178ZM186.993 18.6949C186.893 17.9711 186.796 17.2457 186.948 16.6299C187.102 16.0141 187.505 15.5079 188.09 14.9276C188.675 14.3458 189.44 13.6914 190.391 13.0324C191.345 12.3749 192.487 11.7144 193.236 10.9427C193.984 10.171 194.338 9.28823 194.404 8.50575C194.471 7.72174 194.252 7.03804 193.994 7.11983C193.736 7.20163 193.441 8.05047 193.899 9.44565C194.358 10.8408 195.571 12.7854 195.963 14.2748C196.356 15.7641 195.93 16.8012 195.907 17.3445C195.886 17.8893 196.274 17.9417 196.567 18.4094C196.862 18.877 197.067 19.7567 197.351 20.8957C197.635 22.0331 198 23.4283 197.868 24.8019C197.737 26.1755 197.111 27.5274 196.351 28.0584C195.591 28.5893 194.699 28.2976 193.917 27.7157C193.135 27.1339 192.462 26.2619 191.834 25.4254C191.206 24.5905 190.624 23.7926 189.924 22.9468C189.225 22.1011 188.408 21.2059 187.812 20.3077C187.215 19.4079 186.839 18.5035 186.994 17.9032C187.15 17.3028 187.836 17.0065 188.619 17.184C189.401 17.363 190.281 18.0158 191.252 18.8971C192.226 19.7768 193.293 20.8834 193.31 21.1303C193.329 21.3788 192.297 20.7676 191.472 20.0345C190.645 19.303 190.023 18.4495 189.699 17.5837C189.376 16.7179 189.351 15.8397 189.728 15.4693C190.105 15.0989 190.882 15.2332 191.763 15.9153C192.648 16.5975 193.636 17.8291 193.652 17.9448C193.668 18.0606 192.71 17.062 192.225 16.1669C191.739 15.2718 191.726 14.4816 192.108 14.2562C192.487 14.0309 193.261 14.372 193.88 14.9754C194.5 15.5789 194.966 16.4462 195.064 17.5235C195.164 18.5992 194.896 19.8848 194.891 21.3525C194.885 22.8203 195.141 24.4685 195.409 25.8591C195.678 27.2496 195.958 28.384 196.236 28.9165C196.513 29.4489 196.788 29.3795 197.369 27.9565C197.949 26.5335 198.835 23.754 199.078 20.212C199.322 16.67 198.926 12.3641 197.953 9.40089C196.981 6.43768 195.433 4.81717 194.111 4.3804C192.787 3.94209 191.688 4.68753 191.138 5.76323C190.59 6.84049 190.592 8.24802 189.951 9.56757C189.31 10.8871 188.023 12.1172 186.839 13.3981C185.655 14.6791 184.573 16.0095 184.45 17.4278C184.326 18.8461 185.163 20.3555 186.68 21.9791C188.196 23.6027 190.391 25.339 192.106 26.6663C193.819 27.992 195.05 28.9087 195.148 29.6187C195.244 30.3286 194.205 30.8333 193.407 31.3457C192.609 31.8581 192.047 32.3782 190.339 32.943C188.63 33.5079 185.775 34.1175 183.615 34.0342C181.455 33.9508 179.99 33.1745 179.192 32.4106C178.392 31.6466 178.258 30.8966 177.929 30.1048C177.601 29.3131 177.075 28.4812 177.181 27.049C177.287 25.6168 178.021 23.5857 178.798 22.2091C179.573 20.834 180.392 20.1148 181.256 19.7289C182.12 19.3431 183.03 19.2906 183.754 19.4943C184.478 19.6996 185.018 20.1626 184.913 20.5392C184.807 20.9158 184.052 21.2059 183.809 21.6319C183.565 22.0578 183.831 22.6212 184.619 23.3126C185.408 24.004 186.722 24.8235 187.675 25.2217C188.63 25.6199 189.227 25.5952 189.14 25.2942C189.052 24.9948 188.278 24.4192 188.614 24.6815C188.949 24.9439 190.395 26.0458 191.531 27.0722C192.667 28.0985 193.491 29.0507 193.289 29.4211C193.085 29.7915 191.858 29.5801 190.188 28.9242C188.518 28.2682 186.409 27.1678 185.619 26.4764C184.831 25.785 185.361 25.5026 185.542 25.4424C185.724 25.3822 185.557 25.5443 185.035 25.5473C184.514 25.5504 183.64 25.3945 182.86 24.9964C182.078 24.5982 181.391 23.9562 181.286 23.4222C181.182 22.8882 181.661 22.4637 182.105 22.2477C182.551 22.0316 182.961 22.0239 182.743 22.1751C182.528 22.3264 181.684 22.6381 181.168 23.2555C180.652 23.8744 180.463 24.8004 180.415 25.4949C180.367 26.1894 180.461 26.6493 180.91 26.8144C181.359 26.9796 182.163 26.8484 182.906 26.8545C183.65 26.8607 184.333 27.0043 184.94 27.2867C185.547 27.5691 186.079 27.9904 185.724 28.4041C185.369 28.8177 184.129 29.2236 183.134 29.4597C182.139 29.6958 181.391 29.7637 181.157 29.6819C180.924 29.6002 181.209 29.3687 181.927 29.3038C182.645 29.239 183.796 29.3393 185.004 29.3918C186.211 29.4443 187.475 29.4474 188.744 29.7128C190.012 29.9798 191.286 30.5107 191.129 30.8765C190.973 31.2423 189.39 31.4444 187.632 31.6466C185.874 31.8503 183.943 32.0541 183.025 32.0479C182.108 32.0433 182.206 31.8287 182.237 32.0602C182.269 32.2917 182.233 32.9693 182.576 33.3937C182.919 33.8181 183.637 33.9879 184.881 33.9477C186.123 33.9092 187.892 33.6607 188.345 33.869C188.8 34.0774 187.943 34.741 187.493 35.3831C187.042 36.0251 187.001 36.6455 187.477 36.6609C187.953 36.6764 188.948 36.0884 189.84 35.3321C190.733 34.5774 191.524 33.6545 192.503 32.9646C193.484 32.2748 194.654 31.8179 195.574 31.0957C196.495 30.3749 197.167 29.3903 197.851 28.9612C198.535 28.5322 199.232 28.6603 199.147 29.0276C199.062 29.3949 198.197 30.0014 197.399 30.5123C196.601 31.0247 195.867 31.4429 196.146 31.872C196.426 32.301 197.718 32.7424 198.739 33.3968C199.761 34.0527 200.511 34.9231 200.758 35.6933C201.006 36.4634 200.75 37.1317 200.022 38.0623C199.296 38.9929 198.101 40.1875 196.543 41.1644C194.986 42.1413 193.066 42.9007 191.371 43.3189C189.674 43.7372 188.199 43.8112 187.486 43.4501C186.773 43.089 186.824 42.2926 187.276 41.328C187.73 40.3634 188.586 39.2291 189.464 38.0206C190.342 36.8122 191.241 35.5281 192.265 34.5697C193.287 33.6113 194.434 32.9801 194.555 33.1745C194.676 33.369 193.773 34.3891 193.087 35.3908C192.403 36.3909 191.935 37.3724 191.314 38.2645C190.693 39.1565 189.919 39.9591 189.311 40.3819C188.706 40.8033 188.268 40.8434 188.345 40.9391C188.422 41.0348 189.01 41.1876 189.646 41.3342C190.283 41.4823 190.965 41.6259 191.438 41.4947C191.911 41.3635 192.17 40.9592 192.598 40.1582C193.026 39.3572 193.622 38.1595 193.931 37.3091C194.242 36.4603 194.269 35.9587 194.532 35.2164C194.793 34.474 195.292 33.4894 195.713 33.2177C196.135 32.9446 196.478 33.3829 196.527 34.2009C196.575 35.0173 196.327 36.2134 195.978 36.8909C195.628 37.5684 195.176 37.7259 194.853 37.6826C194.529 37.6394 194.338 37.3925 194.338 37.7289C194.337 38.0669 194.524 38.9883 194.468 39.726C194.41 40.4653 194.108 41.0209 193.675 41.3234C193.242 41.6259 192.68 41.6768 192.68 41.5595C192.68 41.4422 193.241 41.1567 193.785 40.9761C194.329 40.7956 194.856 40.7184 195.425 40.6073C195.994 40.4961 196.607 40.3542 196.893 40.0208C197.179 39.6874 197.139 39.1627 197.029 38.5855C196.918 38.0083 196.739 37.3801 196.771 37.3909C196.804 37.4033 197.051 38.0546 197.33 38.3663C197.609 38.6781 197.921 38.6503 198.229 38.4759C198.537 38.3015 198.841 37.9805 199.021 37.553C199.2 37.127 199.253 36.593 198.992 35.9572C198.732 35.3213 198.157 34.5805 197.726 34.1947C197.293 33.8088 197.005 33.7764 197.194 34.0079C197.383 34.2394 198.051 34.7364 198.646 35.1531C199.239 35.5683 199.759 35.9032 200.182 35.9973C200.605 36.0915 200.934 35.9448 201.352 35.8924C201.772 35.8399 202.283 35.8816 203.166 35.6408C204.051 35.4 205.305 34.8753 206.844 33.8706C208.382 32.8659 210.202 31.3812 212.214 30.1434C214.225 28.9056 216.428 27.9133 218.022 27.1987C219.615 26.4826 220.598 26.0427 220.437 25.5581C220.277 25.0735 218.973 24.5457 216.829 24.697C214.685 24.8467 211.701 25.6739 209.183 26.444C206.666 27.2141 204.615 27.9272 202.963 28.4442C201.311 28.9597 200.059 29.2791 200.094 29.3054C200.13 29.3316 201.452 29.0662 202.858 28.7189C204.265 28.3717 205.754 27.9441 206.719 27.9441C207.683 27.9441 208.121 28.3747 207.456 28.8316C206.791 29.2884 205.023 29.7699 203.658 30.0693C202.293 30.3687 201.33 30.486 200.541 30.4984C199.753 30.5107 199.141 30.4197 198.743 30.5138C198.346 30.608 198.163 30.8888 198.301 31.2145C198.439 31.5401 198.9 31.909 199.557 32.318C200.213 32.7285 201.065 33.1792 201.82 33.6236C202.576 34.0681 203.237 34.508 203.882 34.4926C204.528 34.4771 205.16 34.011 205.405 33.4894C205.65 32.9677 205.509 32.3951 205.091 31.875C204.672 31.3549 203.977 30.8904 203.519 30.77C203.059 30.6496 202.838 30.875 203.269 31.1435C203.701 31.412 204.786 31.7253 205.7 31.9352C206.613 32.1451 207.355 32.2547 207.78 32.0109C208.204 31.767 208.312 31.1713 207.917 30.7083C207.522 30.2453 206.626 29.9165 206.494 29.8841C206.363 29.8517 207.001 30.1172 207.659 30.2036C208.318 30.29 209.002 30.199 209.563 29.9135C210.124 29.6279 210.565 29.148 210.339 28.8763C210.113 28.6032 209.219 28.5368 208.501 28.6032C207.783 28.668 207.241 28.864 207.406 28.688C207.571 28.5121 208.445 27.9627 209.404 27.583C210.363 27.2033 211.409 26.9919 212.407 26.9008C213.406 26.8113 214.358 26.8422 215.253 26.6879C216.149 26.5335 216.987 26.194 217.199 25.8961C217.41 25.5983 216.997 25.3421 215.907 25.5736C214.818 25.8051 213.05 26.5212 211.944 27.208C210.837 27.8948 210.388 28.5507 209.941 29.2081L186.993 18.6949ZM69.141 94.6134C67.9729 95.9469 66.8047 97.2803 65.5772 99.0413C64.3497 100.801 63.0646 102.986 62.0198 105.014C60.9766 107.042 60.1738 108.916 59.5841 110.815C58.9944 112.717 58.6146 114.646 58.1547 116.45C57.6932 118.254 57.1516 119.932 57.1404 121.056C57.1291 122.179 57.6499 122.749 58.3646 121.985C59.0793 121.221 59.9863 119.123 60.7106 117.254C61.4365 115.385 61.9797 113.743 62.3915 112.107C62.8002 110.471 63.0774 108.84 63.5854 107.698C64.0934 106.556 64.8305 105.901 65.3289 105.955C65.8288 106.009 66.09 106.773 65.8993 107.738C65.7102 108.703 65.0692 109.869 64.5436 110.552C64.0164 111.235 63.6046 111.434 63.7056 111.099C63.8065 110.765 64.4203 109.894 65.2135 109.181C66.0067 108.47 66.9777 107.917 67.6219 107.763C68.2661 107.608 68.5818 107.855 68.5241 108.317C68.4664 108.78 68.0354 109.459 67.3143 110.518C66.5948 111.576 65.5836 113.015 64.5404 114.141C63.4972 115.268 62.422 116.083 62.1912 116.055C61.9605 116.027 62.5742 115.157 63.603 114.16C64.6334 113.163 66.0772 112.039 67.5033 111.377C68.9295 110.715 70.3365 110.513 70.7211 111.052C71.1072 111.589 70.4727 112.865 69.25 114.311C68.029 115.757 66.223 117.373 64.7712 118.791C63.3194 120.21 62.2233 121.431 62.3804 121.536C62.5374 121.64 63.9491 120.628 65.5788 119.387C67.2101 118.146 69.0609 116.676 70.423 115.445C71.7883 114.214 72.6648 113.223 73.2193 112.3C73.7737 111.377 74.0061 110.521 73.8362 109.644C73.6648 108.767 73.0927 107.868 72.6184 107.02C72.144 106.173 71.7658 105.377 71.721 104.716C71.6745 104.056 71.9582 103.528 71.7611 102.929C71.564 102.329 70.8861 101.656 70.6698 100.577C70.4534 99.4981 70.6986 98.0165 70.3092 96.964C69.9214 95.9114 68.9007 95.2879 67.8591 95.5117C66.8159 95.7355 65.7519 96.8081 64.4587 98.3668C63.1655 99.9256 61.6448 101.974 60.4334 105.04C59.2219 108.107 58.3214 112.192 57.6291 115.367C56.9368 118.543 56.4561 120.807 56.6532 122.424C56.8503 124.042 57.7252 125.011 59.1658 125.121C60.6048 125.23 62.6079 124.482 64.4395 124.278C66.2711 124.074 67.928 124.415 69.7324 125.047C71.5367 125.678 73.4853 126.596 74.0557 126.943C74.6246 127.289 73.8122 127.064 72.5911 126.669C71.37 126.274 69.7404 125.71 68.702 125.53C67.6636 125.349 67.2117 125.55 66.4714 125.67C65.7311 125.79 64.7007 125.831 63.4492 125.979C62.1993 126.127 60.7314 126.385 60.1562 126.649C59.5825 126.913 59.903 127.183 60.7298 127.437C61.5567 127.692 62.8899 127.931 64.3818 128.147C65.8737 128.363 67.5258 128.558 68.9808 129.073C70.4358 129.587 71.6937 130.424 72.4629 130.559C73.2337 130.695 73.5173 130.132 73.8138 129.937C74.1118 129.741 74.4243 129.914 74.6967 129.553C74.9691 129.194 75.1983 128.3 75.4723 127.497C75.7447 126.695 76.0588 125.983 76.3216 124.942C76.5844 123.9 76.7959 122.529 76.9289 122.506C77.0603 122.483 77.1164 123.806 76.9433 124.273C76.7719 124.741 76.3745 124.351 75.5236 124.162C74.6743 123.974 73.3747 123.986 72.8299 123.75C72.2866 123.513 72.4934 123.026 72.1488 122.543C71.8043 122.06 70.9037 121.579 70.7595 121.326C70.6153 121.074 71.2258 121.049 72.3011 121.156C73.3763 121.262 74.9147 121.497 75.9018 121.33C76.8905 121.164 77.3247 120.594 77.3391 120.023C77.3536 119.452 76.9481 118.878 76.3552 118.441C75.7639 118.003 74.9868 117.702 74.1439 117.143C73.3026 116.584 72.3956 115.77 71.8203 115.7C71.2435 115.631 70.9967 116.305 71.2322 116.52C71.4662 116.733 72.1825 116.484 72.5478 116.526C72.9116 116.567 72.926 116.898 72.5126 117.521C72.0992 118.145 71.2579 119.062 70.3878 119.739C69.516 120.417 68.6171 120.856 67.553 121.008C66.489 121.159 65.2583 121.022 63.8883 121.627C62.5182 122.232 61.0055 123.579 61.1016 123.574C61.1961 123.571 62.8995 122.216 64.8016 120.597C66.7037 118.977 68.8045 117.092 70.3621 115.927C71.9197 114.762 72.934 114.319 73.849 114.265C74.764 114.211 75.5813 114.549 76.4514 115.232C77.3215 115.916 78.2429 116.95 78.8855 118.159C79.5281 119.367 79.8918 120.753 79.8646 121.951C79.8374 123.148 79.4207 124.159 79.2477 125.068C79.0762 125.977 79.1467 126.784 78.7413 128.07C78.3359 129.356 77.4529 131.121 76.211 132.052C74.9691 132.984 73.3667 133.081 71.9902 133.061C70.6121 133.04 69.4599 132.901 67.5658 131.961C65.6734 131.021 63.0389 129.28 61.3884 128.203C59.7379 127.124 59.0713 126.709 59.0072 127.005C58.9431 127.301 59.4815 128.312 60.4782 129.748C61.4734 131.183 62.9284 133.041 63.5405 133.515C64.151 133.989 63.9235 133.077 63.2633 131.905C62.6031 130.734 61.5102 129.303 60.5455 128.124C59.5793 126.946 58.738 126.02 57.8102 125.301C56.8824 124.582 55.868 124.068 55.4402 123.459C55.0139 122.849 55.1758 122.142 55.5507 122.423C55.9257 122.704 56.5138 123.969 55.8568 125.229C55.2014 126.488 53.3041 127.738 51.8603 128.899C50.4181 130.059 49.4294 131.127 48.8926 132.032C48.3574 132.936 48.2724 133.675 47.9215 133.929C47.5674 134.182 46.9456 133.947 46.545 133.503C46.1428 133.058 45.9649 132.402 46.2309 131.894C46.4969 131.387 47.2084 131.029 48.0737 130.7C48.9391 130.371 49.9598 130.075 51.0863 129.59C52.2129 129.106 53.4467 128.431 54.1422 128.147C54.8376 127.863 54.9947 127.967 54.9065 128.596C54.8184 129.226 54.4835 130.38 53.9803 131.155C53.4772 131.93 52.8057 132.323 52.1039 132.461C51.402 132.598 50.6697 132.479 50.0896 132.777C49.5095 133.077 49.0801 133.793 49.0272 134.365C48.9743 134.938 49.298 135.367 49.7707 135.699C50.2434 136.031 50.8652 136.265 51.4148 136.629C51.9661 136.995 52.4452 137.492 53.0253 137.654C53.6054 137.816 54.288 137.642 54.9226 137.765C55.5587 137.889 56.15 138.307 56.6676 138.38C57.1868 138.452 57.6339 138.177 58.2092 138.191C58.7828 138.205 59.4831 138.511 59.5633 138.582C59.6434 138.653 59.1001 138.489 58.6915 137.824C58.2813 137.159 58.0041 135.99 57.6403 134.126C57.2766 132.262 56.8263 129.701 57.2365 129.925C57.6467 130.149 58.9191 133.157 59.6065 135.432C60.2924 137.707 60.3949 139.25 59.8036 140.171C59.2107 141.093 57.924 141.394 55.8969 140.92C53.8698 140.445 51.1023 139.194 49.2724 137.906C47.4408 136.617 46.545 135.288 45.755 134.251C44.965 133.214 44.2872 132.467 43.7119 131.549C43.1382 130.632 42.6735 129.545 43.3225 129.059C43.9715 128.575 45.7342 128.69 47.5433 128.493C49.3525 128.294 51.2033 127.781 52.5798 127.286C53.9547 126.791 54.8521 126.315 54.8937 125.945C54.937 125.574 54.1214 125.312 52.083 124.543C50.0431 123.775 46.779 122.5 44.6669 121.386C42.5565 120.27 41.5983 119.313 41.4797 118.747C41.3611 118.18 42.0806 118.006 43.377 118.398C44.675 118.79 46.5498 119.748 48.2404 120.881C49.931 122.012 51.4389 123.318 51.3956 123.668C51.3523 124.02 49.7611 123.418 47.9071 122.533C46.0531 121.647 43.941 120.475 42.4956 119.739C41.0502 119.003 40.2731 118.702 39.2843 118.372C38.2956 118.041 37.0954 117.682 36.5265 117.833C35.9609 117.984 36.0266 118.643 36.3743 119.202C36.722 119.759 37.3518 120.214 38.4495 120.375C39.5471 120.535 41.1079 120.401 41.3948 120.409C41.6816 120.417 40.6945 120.565 39.7202 120.602C38.7475 120.639 37.7877 120.565 37.4175 120.856C37.0457 121.147 37.2652 121.801 37.5921 122.304C37.919 122.807 38.3533 123.159 39.201 123.31C40.0487 123.462 41.3098 123.414 42.6014 123.235C43.8945 123.056 45.2198 122.747 44.9538 122.795C44.6878 122.841 42.8321 123.244 41.5598 123.477C40.2891 123.71 39.6032 123.773 39.4334 124.295C39.2651 124.817 39.6096 125.798 40.7009 126.291C41.7922 126.783 43.627 126.786 45.5178 126.732C47.4087 126.678 49.3541 126.565 50.9261 126.21C52.4981 125.855 53.6967 125.256 53.6631 125.368C53.6294 125.479 52.3635 126.301 51.237 126.806C50.1104 127.309 49.1233 127.494 47.7356 127.658C46.3463 127.822 44.5548 127.965 43.0549 127.746C41.555 127.527 40.3452 126.948 38.9735 125.675C37.6018 124.401 36.0666 122.435 34.4386 120.951C32.8105 119.466 31.0862 118.464 29.2755 117.226C27.4647 115.989 25.569 114.515 25.0034 113.339C24.4393 112.164 25.2053 111.288 26.8462 111.224C28.4887 111.161 31.0045 111.911 34.3632 113.163C37.722 114.415 41.9252 116.168 45.3031 117.844C48.6795 119.518 51.2305 121.114 53.083 122.424C54.9338 123.735 56.0843 124.758 57.2044 126.286C58.3229 127.814 59.4094 129.846 60.4959 131.879L69.141 94.6134ZM65.8064 39.2198C65.6413 38.0083 65.4763 36.7968 65.1253 35.8214C64.776 34.846 64.2392 34.1083 63.7488 33.2424C63.2585 32.3766 62.813 31.3812 62.7761 30.7314C62.7393 30.0817 63.1111 29.7746 63.3066 29.8841C63.502 29.9937 63.5245 30.5184 63.1832 31.3086C62.8418 32.1004 62.1384 33.1576 61.0263 34.1252C59.9142 35.0929 58.3951 35.968 57.6195 36.7566C56.8439 37.5453 56.8135 38.2475 57.3743 39.3371C57.9352 40.4282 59.0889 41.9068 59.4543 42.2046C59.8212 42.5025 59.3982 41.6166 58.9175 40.7601C58.4367 39.9035 57.8983 39.0732 57.8246 38.3771C57.7493 37.6811 58.1387 37.1162 58.5088 37.0514C58.879 36.985 59.2315 37.4172 60.0888 38.4728C60.9461 39.5285 62.3098 41.2076 62.5518 41.612C62.7954 42.0163 61.9188 41.1459 61.0391 40.1196C60.1578 39.0933 59.2716 37.9095 59.0361 37.2135C58.8005 36.5174 59.2155 36.306 59.5296 36.0513C59.8421 35.7967 60.0504 35.4957 60.4975 35.5467C60.9446 35.5976 61.6272 35.9989 62.2025 36.6872C62.7761 37.3755 63.2408 38.3494 63.0405 38.1919C62.8434 38.0345 61.9813 36.7443 61.6705 36.0853C61.3612 35.4263 61.6016 35.3969 61.8868 35.1037C62.1704 34.812 62.4973 34.2549 63.1447 34.5018C63.7905 34.7487 64.7568 35.8013 65.3192 37.5808C65.8817 39.3602 66.0403 41.8682 66.0884 42.2941C66.1365 42.7201 66.0724 41.0656 65.9522 40.0563C65.832 39.047 65.6573 38.6843 65.3032 38.5623C64.9507 38.4404 64.4186 38.5577 64.1158 39.2692C63.8129 39.9807 63.7344 41.2879 63.7937 42.7155C63.853 44.1431 64.0485 45.6926 63.8642 46.9566C63.6799 48.2206 63.1175 49.2006 63.1816 49.4414C63.2473 49.6821 63.9411 49.1836 64.6302 48.1141C65.3176 47.0446 65.9971 45.404 66.5018 43.1955C67.0066 40.9869 67.3351 38.212 67.1765 35.8245C67.0162 33.4369 66.3688 31.4383 65.7871 30.0894C65.2055 28.7405 64.6911 28.0398 64.0068 27.8222C63.321 27.6062 62.4637 27.8716 61.8595 28.421C61.2554 28.9689 60.9061 29.8008 60.4606 30.7314C60.0135 31.6636 59.4703 32.6961 58.8085 33.5187C58.1451 34.3413 57.3631 34.9556 56.7894 35.5034C56.2157 36.0513 55.852 36.5313 55.7478 37.1687C55.6421 37.8046 55.7959 38.5963 56.4513 39.7399C57.1035 40.882 58.2573 42.3744 59.2011 43.6816C60.1433 44.9873 60.8773 46.1077 61.5503 47.0353C62.2249 47.9628 62.8402 48.6975 63.0534 48.7623C63.2681 48.8271 63.0806 48.2221 62.6848 47.4103C62.2874 46.5985 61.6801 45.5815 60.842 44.3344C60.0039 43.0874 58.9319 41.6104 57.9047 40.7261C56.8791 39.8418 55.8969 39.5485 54.9482 39.5455C53.998 39.5439 53.0798 39.831 52.2721 40.3001C51.4645 40.7693 50.7642 41.4191 50.2242 42.7911C49.6858 44.1647 49.3076 46.2605 49.3381 47.719C49.3685 49.1774 49.806 49.997 50.5111 50.6992C51.2177 51.4014 52.1904 51.9879 53.538 52.1005C54.8857 52.2147 56.6083 51.8567 58.0906 51.4986C59.5697 51.1406 60.8067 50.781 61.6064 50.5371C62.4044 50.2917 62.7617 50.1621 62.4669 50.105C62.1704 50.0479 61.2218 50.0649 60.0216 50.0818C58.8197 50.0988 57.3663 50.1158 56.009 50.051C54.6534 49.9862 53.3938 49.8395 52.7641 50C52.1343 50.1606 52.1327 50.6266 52.2978 50.923C52.4628 51.2193 52.7897 51.3412 52.6487 51.085C52.5061 50.8273 51.894 50.1899 51.5558 49.4907C51.2161 48.7916 51.1504 48.0323 51.817 47.773C52.4821 47.5137 53.881 47.756 55.187 47.9026C56.493 48.0493 57.7076 48.1002 58.8453 48.2499C59.9831 48.3996 61.0439 48.6512 61.4061 48.5586C61.7698 48.4644 61.4349 48.0261 60.8404 47.31C60.2443 46.5939 59.3886 45.5984 58.4015 45.0073C57.4144 44.4147 56.2959 44.2249 55.5812 44.2804C54.8665 44.3375 54.554 44.6416 54.7046 45.0922C54.8553 45.5429 55.4658 46.1432 56.009 46.5893C56.5523 47.0353 57.0298 47.3285 57.0025 47.1834C56.9769 47.0384 56.4465 46.4565 55.8568 46.1093C55.2671 45.762 54.6149 45.6509 53.8073 45.6432C52.998 45.6355 52.0334 45.7312 51.4982 45.9843C50.9629 46.2389 50.8588 46.651 50.987 47.0446C51.1136 47.4381 51.4741 47.8147 51.5174 47.6573C51.5606 47.4998 51.2914 46.81 51.144 46.2019C50.9982 45.5938 50.9758 45.0706 51.0687 44.6184C51.16 44.1678 51.3668 43.7896 51.95 43.7264C52.5333 43.6631 53.4916 43.9147 53.9884 44.1786C54.4851 44.4425 54.5172 44.7157 54.1053 44.549C53.6951 44.3807 52.841 43.7727 52.4564 43.2526C52.0702 42.7325 52.1536 42.3003 52.4356 42.0379C52.7176 41.774 53.2 41.6784 53.6663 41.7185C54.1326 41.7586 54.5845 41.9361 55.0251 42.3374C55.4658 42.7386 55.8969 43.3637 55.6693 43.2664C55.4434 43.1677 54.562 42.3466 54.3153 41.8111C54.0717 41.2755 54.4659 41.0271 54.9691 40.9977C55.4722 40.9684 56.086 41.1598 56.5539 41.4916C57.0234 41.8234 57.3455 42.2972 57.7525 42.8945C58.1611 43.4918 58.6563 44.2125 59.4703 45.1895C60.2844 46.1664 61.4157 47.3995 61.8916 48.4505C62.3659 49.5016 62.1865 50.372 62.8851 50.2995C63.5838 50.2269 65.1622 49.2145 65.989 48.8811C66.8159 48.5478 66.8912 48.895 66.5707 49.2284C66.2519 49.5617 65.5372 49.8812 64.8417 50.1606C64.1462 50.4399 63.47 50.6807 62.7233 50.9616C61.9765 51.2424 61.1625 51.5665 60.56 51.8906C59.9575 52.2147 59.5664 52.5419 59.0489 52.9509C58.5297 53.3599 57.8839 53.8522 57.3871 54.0652C56.8904 54.2782 56.5458 54.2149 56.5523 53.9124C56.5603 53.6099 56.9208 53.0713 57.557 52.5805C58.1948 52.0897 59.1049 51.6453 59.9382 51.3026C60.7715 50.96 61.5294 50.7162 62.1496 50.585C62.7697 50.4538 63.2553 50.4353 63.4956 50.6297C63.736 50.8242 63.7328 51.2332 63.4556 51.6437C63.18 52.0527 62.6303 52.4632 62.0102 52.8568C61.39 53.2503 60.6994 53.6269 60.0792 54.0405C59.4607 54.4541 58.9127 54.9033 58.4576 55.3477C58.0009 55.7938 57.6371 56.2352 57.2718 56.7259C56.9064 57.2167 56.5475 57.7553 56.3263 58.2893C56.1052 58.8233 56.0267 59.3512 56.243 59.7123C56.4609 60.0734 56.9737 60.2679 57.8583 60.166C58.7428 60.0642 59.9991 59.666 61.3852 59.2323C62.773 58.8002 64.2888 58.3326 65.5468 57.5254C66.8063 56.7182 67.8094 55.57 68.1187 54.7227C68.4279 53.8738 68.0402 53.3244 67.5066 52.8876C66.9745 52.4509 66.2935 52.1268 65.8464 51.7625C65.4009 51.3983 65.1862 50.994 65.0612 50.8921C64.9362 50.7902 64.8978 50.9893 65.0436 51.4045C65.1894 51.8197 65.5179 52.4493 65.9009 52.8907C66.2839 53.3321 66.7166 53.5883 66.9361 53.9788C67.1556 54.3693 67.1556 54.894 67.0226 55.3184C66.888 55.7413 66.6188 56.0638 66.0371 56.2984C65.4538 56.533 64.5581 56.6796 63.7921 57.0392C63.0261 57.3988 62.39 57.9714 62.7008 57.9714C63.0117 57.9714 64.2648 57.3988 64.6782 56.8108C65.0917 56.2213 64.6638 55.6163 64.5404 55.0761C64.417 54.5359 64.5997 54.0621 64.8144 53.6856C65.0324 53.309 65.284 53.0296 65.2471 53.1562C65.2135 53.2843 64.8914 53.8198 64.6766 54.255C64.4619 54.6903 64.3561 55.0252 64.1446 55.3061C63.9347 55.5869 63.6206 55.8123 63.361 55.891C63.1014 55.9697 62.8963 55.8987 62.7745 55.641C62.6528 55.3832 62.6143 54.9372 62.7441 54.4171C62.8723 53.897 63.1719 53.3013 63.4556 52.8429C63.7392 52.3845 64.01 52.0635 64.0309 52.0913C64.0517 52.1191 63.8257 52.4972 63.5101 52.9386C63.196 53.3784 62.7922 53.88 62.4076 54.3816C62.0246 54.8832 61.6608 55.3832 61.2346 55.8277C60.8083 56.2722 60.3196 56.6611 59.8581 56.9806C59.3966 57.3001 58.9623 57.5501 58.6915 57.8433C58.4207 58.135 58.3133 58.4699 58.5425 58.6273C58.77 58.7848 59.3357 58.7631 59.8308 58.51C60.326 58.2569 60.7491 57.7739 61.132 57.2738C61.515 56.7738 61.8579 56.2537 62.1528 56.0577C62.4476 55.8617 62.696 55.9882 62.8419 56.1487C62.9909 56.3092 63.0389 56.5006 63.0213 56.7846C63.0021 57.067 62.9156 57.4405 62.8194 57.6782C62.7217 57.9159 62.6127 58.0177 62.3355 58.1643C62.0583 58.311 61.6144 58.5023 60.9718 58.6459C60.3292 58.7894 59.4895 58.8851 59.0136 58.8542C58.5377 58.8233 58.4255 58.6675 58.0938 58.6644C57.7621 58.6613 57.2109 58.8125 57.1564 58.7369C57.1035 58.6613 57.5474 58.3588 57.9512 57.9668C58.355 57.5748 58.7188 57.0948 59.1306 56.5731C59.544 56.0515 60.0055 55.4882 60.4302 54.9866C60.8532 54.4835 61.2394 54.0405 61.6576 53.6362C62.0743 53.2318 62.5246 52.8629 62.9685 52.3984C63.4155 51.9339 63.8562 51.3721 64.2648 51.0264C64.675 50.6791 65.0532 50.5479 65.6077 50.7517C66.1605 50.9538 66.8896 51.4909 67.5851 51.94C68.2805 52.3907 68.9423 52.7534 69.3702 53.0975C69.7981 53.4417 69.9935 53.7643 69.7516 53.9973C69.508 54.2304 68.827 54.3739 68.8414 54.4696C68.8558 54.5668 69.5641 54.6177 70.415 54.3893C71.2627 54.1624 72.253 53.6562 73.3683 53.0497C74.4852 52.4432 75.7271 51.7332 76.735 51.1884C77.743 50.6436 78.5153 50.264 79.5713 49.892C80.6274 49.5201 81.9654 49.1574 83.0631 48.591C84.1607 48.023 85.018 47.2514 85.2472 46.688C85.4763 46.1247 85.0789 45.7698 84.3947 45.6123C83.7121 45.4534 82.7442 45.4904 81.1914 45.5892C79.6403 45.688 77.5058 45.8469 75.7207 46.188C73.9372 46.5291 72.5046 47.0507 71.4101 47.4535C70.3156 47.8563 69.5593 48.1372 68.6026 48.4999C67.646 48.8626 66.489 49.304 66.7823 49.3117C67.0755 49.3194 68.819 48.895 70.2515 48.5339C71.6825 48.1727 72.801 47.8764 73.4388 47.9104C74.0766 47.9443 74.2336 48.3085 73.8939 48.6712C73.5558 49.0339 72.7225 49.3981 71.8011 49.5972C70.8797 49.7979 69.8718 49.8365 68.726 49.892C67.5803 49.9476 66.2983 50.0201 66.896 49.8519C67.4937 49.6837 69.9759 49.2731 71.6873 48.9706C73.3987 48.6697 74.341 48.4783 75.0204 48.5786C75.7015 48.6789 76.1229 49.071 76.1165 49.4506C76.1117 49.8303 75.6838 50.1961 75.0028 50.3025C74.3217 50.409 73.3907 50.2562 72.9965 50.0464C72.6023 49.8365 72.7514 49.5741 73.1039 49.5972C73.4564 49.6204 74.0157 49.9291 74.2913 50.2393C74.5669 50.5495 74.5589 50.8612 74.3298 51.1823C74.1006 51.5017 73.6487 51.8305 73.1712 51.9663C72.6921 52.1021 72.1841 52.0434 71.4966 51.9477C70.8092 51.8521 69.9407 51.7209 69.21 51.4354C68.4808 51.1514 67.8879 50.7131 68.3398 50.7301C68.7933 50.747 70.2884 51.2177 71.0656 51.6175C71.8428 52.0172 71.8957 52.3459 71.7338 52.6237C71.5736 52.9015 71.2002 53.1315 70.8252 53.3398C70.4502 53.5482 70.0737 53.738 70.399 53.522C70.7243 53.3059 71.7466 52.6824 72.5831 52.3675C73.4196 52.0527 74.0654 52.0481 74.5589 51.7857C75.0541 51.5233 75.3954 51.0048 75.9306 50.5078C76.4658 50.0109 77.1933 49.5355 77.9016 49.0895C78.6099 48.6434 79.3005 48.2283 80.0152 47.9181C80.7283 47.6079 81.467 47.4057 81.7603 47.4042C82.0519 47.4042 81.8997 47.6032 81.4222 47.7668C80.9446 47.9304 80.1418 48.0585 79.3037 48.0817C78.4657 48.1048 77.5955 48.0215 76.8023 47.9057C76.0091 47.79 75.2976 47.6418 74.5733 47.6557C73.8506 47.6696 73.1215 47.8455 72.3892 48.0215L65.8064 39.2198ZM222.899 69.5156C219.626 71.0019 216.353 72.4881 213.031 73.4589C209.709 74.4296 206.336 74.8864 203.833 75.1457C201.328 75.405 199.692 75.4683 198.468 76.3032C197.244 77.1382 196.429 78.7463 197.378 79.8529C198.328 80.9595 201.043 81.5645 203.903 81.3469C206.765 81.1293 209.773 80.0875 212.452 78.5966C215.133 77.1058 217.482 75.1642 219.727 73.2891C221.972 71.4139 224.115 69.6051 223.695 69.0217C223.275 68.4384 220.295 69.0835 217.308 68.7547C214.321 68.4276 211.327 67.1265 208.297 66.3672C205.264 65.6079 202.19 65.3903 199.437 66.0601C196.684 66.7314 194.252 68.2902 194.652 68.3072C195.055 68.3242 198.292 66.7978 200.482 63.4271C202.671 60.0565 203.812 54.8415 204.696 50.264C205.581 45.6849 206.209 41.7416 206.147 40.9545C206.086 40.1674 205.337 42.5364 203.387 43.9177C201.439 45.299 198.29 45.6926 195.165 46.6556C192.04 47.6187 188.938 49.1543 186.506 51.1251C184.071 53.096 182.307 55.5052 181.387 58.9715C180.468 62.4378 180.395 66.9645 181.258 69.0233C182.12 71.0821 183.916 70.6716 185.991 68.5479C188.068 66.4243 190.425 62.5876 192.757 59.1814C195.09 55.7752 197.396 52.8028 199.493 50.2177C201.589 47.6326 203.477 45.4379 204.655 43.8421C205.833 42.2463 206.299 41.2478 206.767 40.2508L222.899 69.5156ZM157.734 81.6062C158.203 78.8822 158.673 76.1566 158.391 73.2366C158.109 70.3166 157.075 67.1991 155.5 65.0754C153.926 62.9518 151.811 61.8236 149.696 60.6954L157.734 81.6062ZM136.788 101.342C134.772 102.255 132.756 103.168 129.816 103.344C126.874 103.522 123.009 102.961 120.097 102.258C117.185 101.552 115.229 100.703 113.485 100.225C111.742 99.7481 110.212 99.6432 110.715 98.8437C111.218 98.0443 113.755 96.5488 116.137 95.1351C118.52 93.7214 120.751 92.3895 122.74 91.2706C124.728 90.1516 126.475 89.2442 128.84 88.8737C131.204 88.5033 134.187 88.6685 136.072 89.4432C137.958 90.2165 138.748 91.5978 139.447 92.5778C140.145 93.5578 140.751 94.135 139.538 94.5872C138.325 95.0394 135.29 95.3666 132.458 95.8265C129.625 96.2849 126.992 96.876 124.121 97.1229C121.249 97.3699 118.137 97.2711 115.942 97.5705C113.748 97.8699 112.473 98.5675 111.199 99.2635L136.788 101.342ZM122.123 85.4491C122.866 85.5803 123.611 85.7114 124.528 85.9908C125.443 86.2701 126.528 86.6976 127.528 87.068C128.526 87.4384 129.439 87.7533 130.301 87.5511C131.164 87.3474 131.976 86.6266 132.298 85.2639C132.622 83.9011 132.455 81.8948 132.699 79.8745C132.944 77.8543 133.599 75.8171 134.235 74.1935C134.872 72.5699 135.489 71.3568 136.094 70.207C136.7 69.0557 137.295 67.9676 136.28 66.9506C135.266 65.9335 132.644 64.989 130.455 64.4071C128.266 63.8253 126.51 63.6077 125.515 63.7219C124.518 63.8361 124.286 64.2806 123.959 65.2143C123.632 66.1496 123.211 67.5725 123.057 68.5634C122.903 69.5542 123.017 70.1113 123.491 69.94C123.965 69.7687 124.802 68.8689 124.895 67.0879C124.989 65.3069 124.339 62.6416 123.433 60.5164C122.528 58.3912 121.365 56.8062 119.958 55.7536C118.551 54.7026 116.899 54.1841 115.931 53.6176C114.961 53.0512 114.674 52.4385 113.311 52.2549C111.945 52.0728 109.505 52.3197 107.319 52.6129C105.132 52.9062 103.199 53.2442 101.861 53.9248C100.523 54.6054 99.7781 55.6271 99.2798 56.4497C98.7798 57.2723 98.5218 57.8958 97.4979 58.2863C96.4723 58.6783 94.6792 58.8388 93.0287 59.7802C91.3781 60.7217 89.8686 62.4425 88.9376 63.7481C88.0066 65.0538 87.6573 65.9428 87.4105 66.7283C87.1653 67.5124 87.0227 68.1914 87.0323 68.994C87.0403 69.795 87.199 70.721 87.2775 71.6007C87.356 72.4804 87.3512 73.3169 87.3897 73.979C87.4265 74.6411 87.5067 75.1318 87.465 75.5547C87.4233 75.9776 87.2599 76.3341 87.3544 77.22C87.449 78.1059 87.8031 79.5211 88.4104 80.6477C89.0193 81.7744 89.8831 82.6124 90.6795 83.0939C91.4759 83.5755 92.2034 83.7005 92.729 83.9088C93.2546 84.1172 93.5783 84.4073 93.8764 84.7654C94.176 85.1234 94.4516 85.5463 94.8138 85.8874C95.1776 86.2285 95.6262 86.4862 96.2384 86.6668C96.8505 86.8473 97.6245 86.9492 98.4113 87.1035C99.1965 87.2563 99.9945 87.46 100.711 87.5897C101.427 87.7209 102.063 87.778 102.808 87.8536C103.555 87.9277 104.409 88.0203 105.145 88.045C105.879 88.0697 106.492 88.028 107.111 88.0234C107.729 88.0203 108.354 88.0558 108.995 88.0959C109.636 88.1376 110.297 88.1839 110.966 88.2255C111.638 88.2672 112.319 88.3027 112.817 88.1484C113.316 87.994 113.628 87.6499 114.006 87.3443C114.383 87.0387 114.823 86.7733 115.24 86.6297C115.655 86.4862 116.049 86.4661 115.53 86.2408C115.009 86.0155 113.578 85.588 111.958 85.5262C110.341 85.4645 108.534 85.7701 106.758 85.8534C104.983 85.9368 103.238 85.7963 101.522 85.3225C99.807 84.8487 98.1196 84.0416 96.8248 82.8671C95.5285 81.6926 94.6199 80.1523 94.2497 78.6476C93.8796 77.1428 94.0462 75.6735 94.0414 74.4543C94.0334 73.2351 93.8523 72.2643 93.4789 71.6794C93.1056 71.0945 92.5399 70.8907 91.5031 71.4695C90.4647 72.0467 88.9569 73.4048 88.1861 74.4929C87.4169 75.5809 87.3833 76.3989 87.0035 76.1227C86.6221 75.8464 85.893 74.4759 85.5789 72.877C85.2632 71.2781 85.3642 69.4523 85.7071 68.4955C86.05 67.5386 86.6397 67.4506 86.5179 67.3009C86.3961 67.1512 85.5677 66.9367 84.885 66.929C84.204 66.9213 83.672 67.1203 83.0663 67.9923C82.4606 68.8643 81.7843 70.4107 81.6177 72.0745C81.4494 73.7397 81.7891 75.5223 81.9173 76.8928C82.0455 78.2633 81.9606 79.2202 81.6289 79.9764C81.2972 80.7326 80.7171 81.2882 80.6338 81.6602C80.5521 82.0337 80.9671 82.2235 81.4574 82.5322C81.9478 82.8408 82.5118 83.2653 83.2041 83.8517C83.8947 84.4382 84.7136 85.1882 85.5901 85.8812C86.4667 86.5742 87.4009 87.2131 88.3415 87.6946C89.2822 88.1762 90.2292 88.5034 91.3205 88.8012C92.4117 89.0991 93.6488 89.3723 94.7224 89.5822C95.7977 89.792 96.7095 89.9402 97.4786 90.0313C98.2478 90.1223 98.8712 90.1594 99.6003 90.0884C100.329 90.0174 101.163 89.843 101.759 89.6007C102.355 89.3584 102.714 89.0466 102.85 88.7441C102.986 88.4416 102.896 88.1453 102.85 87.9987C102.804 87.8521 102.805 87.8505 103.195 87.8829C103.584 87.9153 104.363 87.9786 104.531 88.7055C104.699 89.4324 104.262 90.823 104.342 92.0438C104.422 93.263 105.02 94.3125 105.63 94.6875C106.242 95.0626 106.869 94.7647 107.404 94.8835C107.943 95.0024 108.391 95.5379 108.824 95.595C109.258 95.6521 109.676 95.2308 110.077 94.7199C110.478 94.2091 110.862 93.6087 111.135 93.1581C111.409 92.7074 111.571 92.408 112.173 92.371C112.774 92.3339 113.814 92.5608 115.057 92.3972C116.301 92.2336 117.75 91.6826 118.873 91.1456C119.998 90.61 120.796 90.0884 121.288 88.7981C121.776 87.5079 121.959 85.4475 122.459 84.4583C122.959 83.469 123.781 83.5492 124.643 83.2344C125.505 82.9195 126.411 82.2096 127.066 81.2157C127.725 80.2202 128.133 78.9423 127.672 77.0626C127.21 75.1843 125.877 72.7072 124.533 72.0853C123.188 71.4618 121.829 72.6934 121.015 74.0006C120.2 75.3062 119.929 76.6875 119.567 77.9994C119.203 79.3128 118.748 80.5582 118.091 81.6077C117.434 82.6572 116.575 83.5122 115.775 84.145C114.974 84.7777 114.234 85.1867 113.481 85.1836C112.729 85.1805 111.968 84.7669 111.123 84.6697C110.279 84.5725 109.353 84.7916 108.438 85.0339C107.524 85.2762 106.621 85.5401 106.194 85.4105C105.768 85.2808 105.815 84.7577 107.151 82.9797C108.487 81.2018 111.112 78.1707 112.875 75.4544C114.636 72.7366 115.537 70.3351 115.825 68.9322C116.113 67.5293 115.791 67.1281 115.479 67.3333C115.166 67.5386 114.862 68.3504 115.131 67.4985C115.4 66.6465 116.242 64.1324 116.969 62.8823C117.697 61.6322 118.309 61.6446 118.782 62.0582C119.254 62.4718 119.586 63.2867 119.485 64.154C119.384 65.0214 118.847 65.9459 118.389 66.6512C117.929 67.3565 117.546 67.8457 117.376 68.3566C117.208 68.869 117.251 69.4029 117.117 70.0373C116.982 70.6716 116.666 71.4062 116.344 72.2952C116.022 73.1857 115.695 74.2305 115.461 75.0099C115.227 75.7893 115.086 76.3001 114.668 76.9453C114.25 77.5904 113.553 78.3667 112.902 79.038C112.252 79.7094 111.647 80.2758 111.178 80.7635C110.708 81.2527 110.37 81.6633 110.098 82.1139C109.824 82.5646 109.616 83.0538 109.26 83.5415C108.906 84.0307 108.406 84.5184 107.907 85.0077L122.123 85.4491ZM120.139 75.9436C120.054 75.2244 119.969 74.5068 119.655 73.7351C119.341 72.9634 118.801 72.1362 118.358 71.3707C117.916 70.6052 117.572 69.8984 117.229 69.1931L120.139 75.9436ZM117.011 91.908C116.416 93.0022 115.82 94.0964 115.098 95.3882C114.375 96.68 113.526 98.1693 111.838 99.3777C110.151 100.586 107.625 101.512 105.734 101.957C103.842 102.401 102.582 102.364 101.621 102.684C100.659 103.003 99.9993 103.681 99.1484 103.684C98.2991 103.687 97.2591 103.014 96.3665 102.259C95.474 101.504 94.724 100.666 93.9292 99.85C93.1344 99.0336 92.2931 98.2403 91.4166 97.714C90.5401 97.1877 89.6267 96.9285 89.4728 96.3482C89.319 95.7694 89.9231 94.8681 90.609 94.2075C91.2932 93.547 92.0576 93.1272 92.5111 92.4929C92.9646 91.8586 93.1056 91.0144 93.3283 90.3801C93.5495 89.7457 93.8523 89.3229 94.0975 89.2256C94.3427 89.1269 94.5317 89.3522 94.7192 89.5775L117.011 91.908ZM101.347 78.2417C101.449 77.6274 101.552 77.0132 101.427 76.473C101.3 75.9313 100.945 75.4621 100.512 75.1272C100.079 74.7923 99.5714 74.5901 99.1612 74.4821C98.7494 74.3756 98.4353 74.3633 98.7077 74.2197C98.9801 74.0762 99.839 73.7999 100.714 73.4357C101.591 73.0715 102.481 72.6177 103.403 72.1084C104.324 71.5991 105.275 71.0343 105.768 70.4787C106.262 69.9231 106.298 69.3783 106.021 69.0927C105.744 68.8072 105.154 68.7841 104.632 68.9677C104.11 69.1514 103.654 69.5465 103.557 69.4678C103.459 69.3891 103.719 68.8396 104.137 68.4538C104.555 68.068 105.135 67.8473 105.691 67.8334C106.247 67.8179 106.778 68.0093 107.122 68.3735C107.468 68.7362 107.629 69.2718 107.689 69.8119C107.75 70.3521 107.713 70.8984 107.51 71.4818C107.306 72.0652 106.933 72.6887 106.782 73.411C106.632 74.1333 106.706 74.9559 106.803 75.0068C106.901 75.0578 107.024 74.3355 107.491 73.9172C107.957 73.499 108.765 73.3848 109.154 72.7952C109.543 72.2057 109.515 71.1423 109.242 70.1654C108.97 69.1884 108.452 68.2948 107.923 67.6852C107.395 67.0771 106.851 66.7515 106.233 66.5601C105.616 66.3687 104.92 66.3101 104.337 66.52C103.751 66.7299 103.276 67.2068 102.973 67.7408C102.671 68.2748 102.541 68.8643 102.794 69.3829C103.047 69.9015 103.682 70.349 103.627 70.4709C103.576 70.5929 102.836 70.3907 102.345 69.9987C101.855 69.6067 101.613 69.0264 101.627 68.4924C101.642 67.9584 101.909 67.4691 102.345 66.9969C102.781 66.5246 103.384 66.0709 104.159 65.7283C104.935 65.3856 105.885 65.1557 106.648 65.1526C107.412 65.1495 107.989 65.3748 108.608 66.0832C109.226 66.7916 109.886 67.9846 110.547 69.1776L101.347 78.2417ZM104.795 65.4859C103.751 65.6495 102.706 65.8131 101.852 66.4845C100.996 67.1558 100.334 68.3334 100.624 69.3551C100.914 70.3768 102.159 71.2426 103.049 71.346C103.938 71.4494 104.475 70.7904 104.475 70.7904C104.475 70.7904 103.938 71.4494 103.358 71.7535C102.78 72.0575 102.158 72.0066 101.592 71.7133C101.026 71.4201 100.52 70.883 100.256 70.3428C99.9913 69.8011 99.9704 69.2563 100.079 69.5233C100.19 69.7903 100.427 70.8722 100.474 71.6917C100.52 72.5112 100.373 73.0699 100.227 73.6286L104.795 65.4859ZM119.82 43.0535C117.003 41.95 114.184 40.8449 110.712 41.6521C107.241 42.4577 103.114 45.1756 99.5778 46.4535C96.0413 47.7313 93.096 47.5739 92.5704 48.5184C92.0448 49.4645 93.9372 51.5141 95.6406 52.7781C97.344 54.0421 98.8567 54.5205 100.369 54.9974L119.82 43.0535ZM126.441 50.6297C122.935 51.6236 119.426 52.616 115.67 52.1546C111.913 51.6931 107.907 49.7794 104.015 48.9305C100.124 48.0817 96.3473 48.2993 92.5688 48.5169L126.441 50.6297Z" stroke="currentColor" stroke-width="1" stroke-linecap="round" stroke-linejoin="round"/>
</svg>
